<svg width="20" height="22" viewBox="0 0 20 22" fill="none" xmlns="http://www.w3.org/2000/svg">
<path fill-rule="evenodd" clip-rule="evenodd" d="M1.31304 9.58538C1.22813 9.49859 1.19539 9.37325 1.22689 9.25598L1.39739 8.61872L0.425349 8.85719C0.24097 8.90235 0.0549155 8.78964 0.00997022 8.60527C-0.0351899 8.42089 0.0773022 8.23462 0.261681 8.18946L1.79786 7.81241C1.91594 7.78362 2.04067 7.81902 2.12519 7.90582C2.21031 7.99262 2.24349 8.11796 2.21199 8.23543L2.04106 8.87249L3.7357 8.45689C3.92013 8.41156 4.10614 8.52444 4.1513 8.70882C4.19646 8.8932 4.08375 9.07926 3.89937 9.12463L1.64059 9.6788C1.61344 9.68546 1.58611 9.68855 1.55856 9.68855C1.46738 9.68855 1.37853 9.65229 1.31304 9.58538ZM14.0994 6.42379C14.0671 6.43307 14.035 6.43745 14.003 6.43745C13.8541 6.43745 13.717 6.33987 13.6731 6.18969C13.6203 6.00738 13.7253 5.81677 13.9074 5.76353L15.5827 5.27648L15.116 4.80992C15.03 4.72416 14.9963 4.59925 15.0263 4.48155C15.0563 4.36386 15.1464 4.27066 15.2635 4.23689L16.782 3.79522C16.9642 3.74219 17.155 3.84678 17.2082 4.02931C17.261 4.21141 17.1562 4.40223 16.9741 4.45526L16.0133 4.73473L16.4794 5.20107C16.5653 5.28705 16.5997 5.41196 16.5697 5.52965C16.5392 5.64734 16.4493 5.74054 16.3325 5.77431L14.0994 6.42379ZM3.6636 4.73468L2.70235 4.45521C2.52025 4.40215 2.41515 4.21137 2.4686 4.02927C2.52141 3.84695 2.71223 3.74215 2.89433 3.79517L4.41332 4.23685C4.52972 4.27062 4.62009 4.36382 4.65012 4.48151C4.68054 4.5992 4.64617 4.72411 4.56019 4.80988L4.09406 5.27643L5.76903 5.76348C5.95152 5.81672 6.05597 6.00733 6.00312 6.18965C5.95921 6.33982 5.82231 6.43741 5.67312 6.43741C5.64141 6.43741 5.6091 6.43307 5.57739 6.42374L3.3437 5.77427C3.22726 5.7405 3.13715 5.6473 3.10712 5.52961C3.07669 5.41191 3.11107 5.287 3.19683 5.20102L3.6636 4.73468ZM17.8786 7.81241L19.4145 8.18946C19.5989 8.23462 19.712 8.42089 19.6669 8.60527C19.6213 8.78964 19.4352 8.90235 19.2509 8.85719L18.2788 8.61872L18.45 9.25598C18.4812 9.37325 18.4483 9.49859 18.3636 9.58538C18.2979 9.65229 18.2088 9.68855 18.1179 9.68855C18.0903 9.68855 18.0628 9.68541 18.0358 9.6788L15.7773 9.12463C15.5925 9.07926 15.48 8.8932 15.5251 8.70882C15.5707 8.52444 15.7568 8.41152 15.9409 8.45689L17.6354 8.87249L17.4647 8.23543C17.4333 8.11796 17.4659 7.99262 17.551 7.90582C17.6362 7.81902 17.7603 7.78362 17.8786 7.81241ZM15.6833 14.1157L18.1772 19.217C18.1862 19.2353 18.1981 19.2622 18.2129 19.2976C18.5267 20.0472 18.1781 20.8957 17.4277 21.2097C16.6727 21.5256 15.8199 21.1936 15.5023 20.4347C15.488 20.4006 15.4782 20.3761 15.4729 20.3615L13.24 14.1616C13.1432 13.8929 13.0995 13.6349 13.0995 13.3495V11.538C13.0995 11.2476 13.0656 10.9758 12.9947 10.7114C12.8613 10.2134 12.4889 9.59481 12.1843 9.08874C12.107 8.96045 12.0341 8.83939 11.9706 8.72936C11.8563 8.5314 11.9787 8.28837 12.2055 8.26147L13.5065 8.10683C13.7807 8.07422 14.0248 8.18804 14.1746 8.42037L14.9698 9.65409C15.2444 10.08 15.3689 10.5046 15.3689 11.0112V12.7631C15.3689 13.2491 15.4699 13.6792 15.6833 14.1157ZM16.0564 12.4253C16.8557 12.5816 17.4714 13.1704 17.6822 13.9569L18.9422 18.6592C19.025 18.9682 19.0413 19.2725 18.9929 19.5635C18.9604 19.3351 18.8932 19.1228 18.7922 18.9162L16.2983 13.8149C16.1306 13.472 16.0564 13.1445 16.0564 12.7631V12.4253ZM9.83843 15.482C10.8536 15.482 11.8379 15.1598 12.6557 14.5597L14.8284 20.5925C14.9273 20.8672 15.0736 21.113 15.2722 21.3281H4.4046C4.60329 21.113 4.74951 20.8672 4.84842 20.5925L7.02118 14.5597C7.83905 15.1598 8.82325 15.482 9.83843 15.482ZM6.57731 11.538V13.3496C6.57731 13.635 6.53353 13.893 6.43681 14.1617L4.20385 20.3616C4.19861 20.3762 4.18877 20.4007 4.17446 20.4348C3.85683 21.1936 3.00412 21.5257 2.24911 21.2098C1.49871 20.8957 1.1501 20.0473 1.4639 19.2977C1.47869 19.2623 1.49063 19.2353 1.49957 19.217L3.99356 14.1157C4.20694 13.6793 4.30796 13.2492 4.30796 12.7631V11.0113C4.30796 10.5047 4.43244 10.08 4.70697 9.65413L5.50228 8.42041C5.65207 8.18808 5.89613 8.0743 6.17036 8.10687L7.47132 8.26152C7.69815 8.28841 7.82053 8.5314 7.70623 8.7294C7.64271 8.83943 7.56983 8.96049 7.4926 9.08878C7.18795 9.59485 6.81553 10.2135 6.68212 10.7114C6.61126 10.9759 6.57731 11.2477 6.57731 11.538ZM3.62051 12.4253V12.7631C3.62051 13.1444 3.54626 13.472 3.37863 13.8149L0.884642 18.9162C0.783666 19.1229 0.716462 19.3351 0.683935 19.5636C0.635552 19.2726 0.65188 18.9683 0.734681 18.6593L1.9947 13.9569C2.20542 13.1704 2.82116 12.5816 3.62051 12.4253ZM8.09365 9.41739C8.17039 9.29108 8.24131 9.17435 8.29976 9.07311C8.66255 8.44482 8.26019 7.66348 7.55193 7.57934L7.26043 7.54471C7.53045 7.3248 7.82921 7.13866 8.15027 6.99278C8.66413 6.75928 9.23579 6.62922 9.83851 6.62922C10.4412 6.62922 11.0128 6.75924 11.5268 6.99278C11.8478 7.13866 12.1465 7.3248 12.4166 7.54471L12.125 7.57934C11.4194 7.66313 11.0142 8.44452 11.3771 9.07311L12.0777 10.2864C12.1926 10.4856 12.2765 10.6834 12.3315 10.8886C12.386 11.0921 12.4121 11.3057 12.4121 11.538V13.3495C12.4121 13.524 12.4247 13.6881 12.4514 13.851C11.7144 14.465 10.7977 14.7945 9.83847 14.7945C8.87919 14.7945 7.9625 14.465 7.22554 13.851C7.25231 13.6881 7.26486 13.524 7.26486 13.3495V11.538C7.26486 11.3057 7.29098 11.092 7.34547 10.8886C7.46039 10.4597 7.81533 9.8755 8.09365 9.41739Z" fill="#0072BC"/>
<path d="M8.03817 3.53319C8.0071 3.47699 8.00882 3.41305 8.04294 3.35865L10.1491 0H12.3665L10.9622 2.23932H13.1129C13.1813 2.23932 13.2398 2.27666 13.2687 2.33866C13.2976 2.40071 13.2884 2.46954 13.2444 2.52188L10.0835 6.27683C10.029 6.34163 9.93738 6.35718 9.86447 6.31404C9.79159 6.2709 9.76117 6.18316 9.79172 6.10414L10.7518 3.62179H8.18851C8.12432 3.62179 8.06928 3.58939 8.03817 3.53319Z" fill="#EEC000"/>
</svg>
