<svg width="28" height="26" viewBox="0 0 28 26" fill="none" xmlns="http://www.w3.org/2000/svg">
<path d="M20.1507 1.54215C23.5948 1.54215 26.2165 4.1638 26.2165 7.60792C26.2165 12.0801 22.1041 15.9869 14.8046 22.4125L14.7532 22.4639L14.7018 22.5153L13.8793 23.3378L13.0054 22.4639L12.954 22.4125L12.9026 22.3611C5.65454 15.9869 1.54215 12.0801 1.54215 7.60792C1.54215 4.11239 4.1638 1.49074 7.65933 1.49074C9.56131 1.49074 11.5147 2.41603 12.7484 3.85537L13.9307 5.2433L15.113 3.85537C16.2954 2.41603 18.2487 1.54215 20.1507 1.54215ZM20.1507 0C17.7861 0 15.4215 1.13091 13.8793 2.93008C12.3372 1.13091 9.97255 0 7.65933 0C3.34132 0 0 3.28991 0 7.60792C0 12.9026 4.72925 17.1692 11.9259 23.5948L13.8793 25.5482L15.8327 23.5948C23.0294 17.1692 27.7586 12.9026 27.7586 7.60792C27.7586 3.28991 24.4173 0 20.1507 0Z" fill="#FBBB00"/>
<path d="M2 11.9548L9.70161 11.9944L11.7581 8L14.5 15L16.7177 10.2147L17.8065 11.9944H27" stroke="#0072BC" stroke-width="2" stroke-miterlimit="10" stroke-linecap="round"/>
</svg>
