<svg width="40" height="40" viewBox="0 0 40 40" fill="none" xmlns="http://www.w3.org/2000/svg">
<circle cx="20" cy="20" r="20" fill="#F5F2F2"/>
<path d="M16.325 24.725C16.0351 25.0149 15.5649 25.0149 15.275 24.725C14.9851 24.4351 14.9851 23.9649 15.275 23.675L18.2429 20.7071C18.6334 20.3166 18.6334 19.6834 18.2429 19.2929L15.275 16.325C14.9851 16.0351 14.9851 15.5649 15.275 15.275C15.5649 14.9851 16.0351 14.9851 16.325 15.275L19.2929 18.2429C19.6834 18.6334 20.3166 18.6334 20.7071 18.2429L23.675 15.275C23.9649 14.9851 24.4351 14.9851 24.725 15.275C25.0149 15.5649 25.0149 16.0351 24.725 16.325L21.7571 19.2929C21.3666 19.6834 21.3666 20.3166 21.7571 20.7071L24.725 23.675C25.0149 23.9649 25.0149 24.4351 24.725 24.725C24.4351 25.0149 23.9649 25.0149 23.675 24.725L20.7071 21.7571C20.3166 21.3666 19.6834 21.3666 19.2929 21.7571L16.325 24.725Z" fill="black"/>
</svg>
