<svg width="42" height="34" viewBox="0 0 42 34" fill="none" xmlns="http://www.w3.org/2000/svg">
<g clip-path="url(#clip0_40_179)">
<circle cx="16.1796" cy="16.6797" r="5.66667" transform="rotate(-40.0722 16.1796 16.6797)" stroke="#FBBF24" stroke-width="2"/>
<path d="M8.66928 7.752L6.52344 5.20122" stroke="#FBBF24" stroke-width="2" stroke-linecap="round"/>
<path d="M17.1819 5.05618L17.4683 1.73517" stroke="#FBBF24" stroke-width="2" stroke-linecap="round"/>
<path d="M25.1074 9.16929L27.6582 7.02345" stroke="#FBBF24" stroke-width="2" stroke-linecap="round"/>
<path d="M4.70117 26.336L7.25195 24.1902" stroke="#FBBF24" stroke-width="2" stroke-linecap="round"/>
<path d="M1.23514 15.3912L4.55615 15.6776" stroke="#FBBF24" stroke-width="2" stroke-linecap="round"/>
<path d="M25 14.5002C28.0314 14.5002 30.6844 16.1189 32.1424 18.5391C32.6561 19.3919 32.913 19.8182 32.983 19.9158C33.677 20.8833 33.994 21.0624 35.1808 21.1576C35.3006 21.1672 35.5337 21.1672 36 21.1672C38.2091 21.1672 40 22.9581 40 25.1672V27.1672C39.9998 29.3762 38.209 31.1672 36 31.1672H15L14.7432 31.1604C12.1012 31.0267 10.0002 28.8424 10 26.1672C10 23.4058 12.2386 21.1672 15 21.1672C16.0671 21.1672 16.9573 20.3982 17.3942 19.4246C18.697 16.5219 21.6122 14.5002 25 14.5002Z" fill="white"/>
<path d="M25 14.5002L25 13.5002L25 13.5002L25 14.5002ZM36 21.1672L36 20.1672H36V21.1672ZM40 27.1672L41 27.1673V27.1672H40ZM15 31.1672L14.9734 32.1669L14.9867 32.1672H15V31.1672ZM14.7432 31.1604L14.6926 32.1591L14.7046 32.1597L14.7166 32.16L14.7432 31.1604ZM10 26.1672L9 26.1672L9 26.1673L10 26.1672ZM32.1424 18.5391L31.2858 19.0551L32.1424 18.5391ZM32.983 19.9158L32.1705 20.4987L32.983 19.9158ZM35.1808 21.1576L35.1008 22.1544L35.1808 21.1576ZM25 14.5002V15.5002C27.6664 15.5002 30.0012 16.9228 31.2858 19.0551L32.1424 18.5391L32.999 18.0231C31.3676 15.3151 28.3964 13.5002 25 13.5002V14.5002ZM36 21.1672L36 22.1672C37.6569 22.1672 39 23.5104 39 25.1672H40H41C41 22.4058 38.7614 20.1672 36 20.1672L36 21.1672ZM40 25.1672H39V27.1672H40H41V25.1672H40ZM40 27.1672L39 27.1671C38.9999 28.824 37.6567 30.1672 36 30.1672V31.1672V32.1672C38.7614 32.1672 40.9998 29.9284 41 27.1673L40 27.1672ZM36 31.1672V30.1672H15V31.1672V32.1672H36V31.1672ZM15 31.1672L15.0266 30.1676L14.7698 30.1607L14.7432 31.1604L14.7166 32.16L14.9734 32.1669L15 31.1672ZM14.7432 31.1604L14.7937 30.1617C12.681 30.0548 11.0001 28.307 11 26.1672L10 26.1672L9 26.1673C9.0002 29.3778 11.5215 31.9987 14.6926 32.1591L14.7432 31.1604ZM10 26.1672H11C11 23.9581 12.7909 22.1672 15 22.1672V21.1672V20.1672C11.6863 20.1672 9 22.8535 9 26.1672H10ZM17.3942 19.4246L18.3065 19.8341C19.454 17.2775 22.0203 15.5002 25 15.5002L25 14.5002L25 13.5002C21.204 13.5002 17.94 15.7664 16.4819 19.0152L17.3942 19.4246ZM15 21.1672V22.1672C16.5778 22.1672 17.7623 21.0466 18.3065 19.8341L17.3942 19.4246L16.4819 19.0152C16.1522 19.7497 15.5564 20.1672 15 20.1672V21.1672ZM32.1424 18.5391L31.2858 19.0551C31.7781 19.8722 32.0695 20.358 32.1705 20.4987L32.983 19.9158L33.7956 19.333C33.799 19.3377 33.7855 19.3184 33.742 19.2489C33.7034 19.1872 33.6512 19.1023 33.5833 18.9907C33.4476 18.7678 33.2564 18.4504 32.999 18.0231L32.1424 18.5391ZM36 21.1672V20.1672C35.5033 20.1672 35.3287 20.1663 35.2608 20.1608L35.1808 21.1576L35.1008 22.1544C35.2724 22.1682 35.5641 22.1672 36 22.1672V21.1672ZM32.983 19.9158L32.1705 20.4987C32.5246 20.9924 32.8849 21.4405 33.4052 21.7345C33.9255 22.0284 34.4952 22.1058 35.1008 22.1544L35.1808 21.1576L35.2608 20.1608C34.6796 20.1142 34.4974 20.0544 34.389 19.9932C34.2806 19.9319 34.1354 19.8067 33.7956 19.333L32.983 19.9158Z" fill="#FBBF24"/>
</g>
<defs>
<clipPath id="clip0_40_179">
<rect width="42" height="34" fill="white"/>
</clipPath>
</defs>
</svg>
