<svg width="40" height="40" viewBox="0 0 40 40" fill="none" xmlns="http://www.w3.org/2000/svg">
<path d="M17.5488 13.333L18.2938 14.0001L17.9957 14.333H17.5488V13.333ZM5 18.333H4V18.3329L5 18.333ZM5 25H4H5ZM25 10V11C22.3356 11 19.9435 12.1577 18.2938 14.0001L17.5488 13.333L16.8038 12.666C18.8163 10.4184 21.7424 9 25 9V10ZM17.5488 13.333V14.333H10V13.333V12.333H17.5488V13.333ZM10 13.333V14.333C7.79103 14.333 6.00014 16.124 6 18.3331L5 18.333L4 18.3329C4.00021 15.0195 6.68634 12.333 10 12.333V13.333ZM5 18.333H6V25H5H4V18.333H5ZM5 25H6C6 27.2091 7.79086 29 10 29V30V31C6.68629 31 4 28.3137 4 25H5ZM10 30V29H25V30V31H10V30ZM25 30V29C29.9706 29 34 24.9706 34 20H35H36C36 26.0751 31.0751 31 25 31V30ZM35 20H34C34 15.0294 29.9706 11 25 11V10V9C31.0751 9 36 13.9249 36 20H35Z" fill="#27AE60"/>
<path d="M27.1962 29.7559C29.0355 29.3418 30.7202 28.4163 32.0561 27.086C33.392 25.7557 34.3247 24.0749 34.7465 22.2374C35.1683 20.3999 35.0621 18.4806 34.4401 16.7009C33.8181 14.9211 32.7057 13.3535 31.2312 12.1787C29.7566 11.004 27.9801 10.27 26.1063 10.0614C24.2326 9.85281 22.3381 10.1782 20.6413 10.9999C18.9446 11.8216 17.5146 13.1063 16.5165 14.7056C15.5184 16.305 14.9927 18.154 15.0001 20.0393" stroke="#27AE60" stroke-width="2"/>
</svg>
