<svg width="336" height="103" viewBox="0 0 336 103" fill="none" xmlns="http://www.w3.org/2000/svg">
<rect width="333" height="79" rx="20" fill="#0072BC"/>
<path d="M25.12 33V21.48H28.848C28.9387 21.48 29.1253 21.4827 29.408 21.488C29.6907 21.4933 29.9627 21.512 30.224 21.544C31.152 21.656 31.9387 21.9787 32.584 22.512C33.2293 23.0453 33.72 23.7227 34.056 24.544C34.392 25.3653 34.56 26.264 34.56 27.24C34.56 28.216 34.392 29.1147 34.056 29.936C33.72 30.7573 33.2293 31.4347 32.584 31.968C31.9387 32.5013 31.152 32.824 30.224 32.936C29.9627 32.968 29.6907 32.9867 29.408 32.992C29.1253 32.9973 28.9387 33 28.848 33H25.12ZM27.328 30.952H28.848C28.992 30.952 29.1867 30.9493 29.432 30.944C29.6773 30.9333 29.8987 30.9093 30.096 30.872C30.5973 30.7707 31.0053 30.536 31.32 30.168C31.64 29.8 31.8747 29.3573 32.024 28.84C32.1787 28.3227 32.256 27.7893 32.256 27.24C32.256 26.664 32.176 26.1173 32.016 25.6C31.8613 25.0827 31.624 24.6453 31.304 24.288C30.984 23.9307 30.5813 23.704 30.096 23.608C29.8987 23.5653 29.6773 23.5413 29.432 23.536C29.1867 23.5307 28.992 23.528 28.848 23.528H27.328V30.952ZM38.8794 33.24C38.2607 33.24 37.7354 33.1227 37.3034 32.888C36.8767 32.648 36.5514 32.3307 36.3274 31.936C36.1087 31.536 35.9994 31.096 35.9994 30.616C35.9994 30.216 36.0607 29.8507 36.1834 29.52C36.306 29.1893 36.5034 28.8987 36.7754 28.648C37.0527 28.392 37.4234 28.1787 37.8874 28.008C38.2074 27.8907 38.5887 27.7867 39.0314 27.696C39.474 27.6053 39.9754 27.52 40.5354 27.44C41.0954 27.3547 41.7114 27.2613 42.3834 27.16L41.5994 27.592C41.5994 27.08 41.4767 26.704 41.2314 26.464C40.986 26.224 40.5754 26.104 39.9994 26.104C39.6794 26.104 39.346 26.1813 38.9994 26.336C38.6527 26.4907 38.41 26.7653 38.2714 27.16L36.3034 26.536C36.522 25.8213 36.9327 25.24 37.5354 24.792C38.138 24.344 38.9594 24.12 39.9994 24.12C40.762 24.12 41.4394 24.2373 42.0314 24.472C42.6234 24.7067 43.0714 25.112 43.3754 25.688C43.546 26.008 43.6474 26.328 43.6794 26.648C43.7114 26.968 43.7274 27.3253 43.7274 27.72V33H41.8234V31.224L42.0954 31.592C41.674 32.1733 41.218 32.5947 40.7274 32.856C40.242 33.112 39.626 33.24 38.8794 33.24ZM39.3434 31.528C39.7434 31.528 40.0794 31.4587 40.3514 31.32C40.6287 31.176 40.8474 31.0133 41.0074 30.832C41.1727 30.6507 41.2847 30.4987 41.3434 30.376C41.4554 30.1413 41.5194 29.8693 41.5354 29.56C41.5567 29.2453 41.5674 28.984 41.5674 28.776L42.2074 28.936C41.562 29.0427 41.0394 29.1333 40.6394 29.208C40.2394 29.2773 39.9167 29.3413 39.6714 29.4C39.426 29.4587 39.21 29.5227 39.0234 29.592C38.81 29.6773 38.6367 29.7707 38.5034 29.872C38.3754 29.968 38.2794 30.0747 38.2154 30.192C38.1567 30.3093 38.1274 30.44 38.1274 30.584C38.1274 30.7813 38.1754 30.952 38.2714 31.096C38.3727 31.2347 38.514 31.3413 38.6954 31.416C38.8767 31.4907 39.0927 31.528 39.3434 31.528ZM45.9675 23.16V21.24H48.1435V23.16H45.9675ZM45.9675 33V24.36H48.1435V33H45.9675ZM50.7019 33V21.24H52.8779V33H50.7019ZM56.3803 36.84L58.0443 32.264L58.0763 33.608L54.3163 24.36H56.5723L59.1003 30.904H58.5883L61.1003 24.36H63.2763L58.3963 36.84H56.3803ZM66.8044 33L70.3244 21.48H73.5724L77.0924 33H74.8524L71.7164 22.84H72.1324L69.0444 33H66.8044ZM68.9164 30.6V28.568H74.9964V30.6H68.9164ZM82.0303 33.24C81.2356 33.24 80.5396 33.04 79.9423 32.64C79.3449 32.24 78.8783 31.696 78.5423 31.008C78.2116 30.32 78.0463 29.544 78.0463 28.68C78.0463 27.8 78.2143 27.0187 78.5503 26.336C78.8916 25.648 79.3689 25.1067 79.9823 24.712C80.5956 24.3173 81.3156 24.12 82.1423 24.12C82.9636 24.12 83.6543 24.32 84.2143 24.72C84.7743 25.12 85.1983 25.664 85.4862 26.352C85.7743 27.04 85.9183 27.816 85.9183 28.68C85.9183 29.544 85.7716 30.32 85.4783 31.008C85.1903 31.696 84.7583 32.24 84.1823 32.64C83.6063 33.04 82.8889 33.24 82.0303 33.24ZM82.3823 31.304C82.8676 31.304 83.2543 31.1947 83.5423 30.976C83.8356 30.7573 84.0463 30.4507 84.1743 30.056C84.3023 29.6613 84.3663 29.2027 84.3663 28.68C84.3663 28.1573 84.3023 27.6987 84.1743 27.304C84.0463 26.9093 83.8409 26.6027 83.5583 26.384C83.2809 26.1653 82.9156 26.056 82.4623 26.056C81.9769 26.056 81.5769 26.176 81.2623 26.416C80.9529 26.6507 80.7236 26.968 80.5743 27.368C80.4249 27.7627 80.3503 28.2 80.3503 28.68C80.3503 29.1653 80.4223 29.608 80.5663 30.008C80.7103 30.4027 80.9316 30.7173 81.2303 30.952C81.5289 31.1867 81.9129 31.304 82.3823 31.304ZM84.3663 33V27.08H84.0943V21.48H86.2863V33H84.3663ZM90.8623 33L87.7263 24.36H89.9023L91.9503 30.344L93.9983 24.36H96.1743L93.0383 33H90.8623ZM97.78 23.16V21.24H99.956V23.16H97.78ZM97.78 33V24.36H99.956V33H97.78ZM106.162 33.24C105.266 33.24 104.498 33.04 103.858 32.64C103.218 32.24 102.728 31.696 102.386 31.008C102.045 30.32 101.874 29.544 101.874 28.68C101.874 27.8053 102.05 27.024 102.402 26.336C102.76 25.648 103.261 25.1067 103.906 24.712C104.552 24.3173 105.314 24.12 106.194 24.12C107.213 24.12 108.066 24.3787 108.754 24.896C109.448 25.408 109.89 26.1093 110.082 27L107.906 27.576C107.778 27.128 107.554 26.7787 107.234 26.528C106.92 26.2773 106.562 26.152 106.162 26.152C105.704 26.152 105.328 26.264 105.034 26.488C104.741 26.7067 104.525 27.008 104.386 27.392C104.248 27.7707 104.178 28.2 104.178 28.68C104.178 29.432 104.344 30.0427 104.674 30.512C105.01 30.976 105.506 31.208 106.162 31.208C106.653 31.208 107.026 31.096 107.282 30.872C107.538 30.648 107.73 30.328 107.858 29.912L110.082 30.376C109.837 31.2933 109.373 32 108.69 32.496C108.008 32.992 107.165 33.24 106.162 33.24ZM115.464 33.24C114.579 33.24 113.797 33.0507 113.12 32.672C112.448 32.288 111.92 31.7627 111.536 31.096C111.157 30.424 110.968 29.656 110.968 28.792C110.968 27.848 111.155 27.0267 111.528 26.328C111.901 25.6293 112.416 25.088 113.072 24.704C113.728 24.3147 114.483 24.12 115.336 24.12C116.243 24.12 117.013 24.3333 117.648 24.76C118.283 25.1867 118.752 25.7867 119.056 26.56C119.36 27.3333 119.467 28.2427 119.376 29.288H117.224V28.488C117.224 27.608 117.083 26.976 116.8 26.592C116.523 26.2027 116.067 26.008 115.432 26.008C114.691 26.008 114.144 26.2347 113.792 26.688C113.445 27.136 113.272 27.8 113.272 28.68C113.272 29.4853 113.445 30.1093 113.792 30.552C114.144 30.9893 114.659 31.208 115.336 31.208C115.763 31.208 116.128 31.1147 116.432 30.928C116.736 30.7413 116.968 30.472 117.128 30.12L119.304 30.744C118.979 31.5333 118.464 32.1467 117.76 32.584C117.061 33.0213 116.296 33.24 115.464 33.24ZM112.6 29.288V27.672H118.328V29.288H112.6Z" fill="white"/>
<path d="M24.78 58V50.95H27.91C28.6833 50.95 29.2733 51.1367 29.68 51.51C30.0867 51.8833 30.29 52.3967 30.29 53.05C30.29 53.6967 30.0867 54.21 29.68 54.59C29.2733 54.97 28.6833 55.16 27.91 55.16H26.07V58H24.78ZM26.07 54.14H27.76C28.1867 54.14 28.5067 54.0467 28.72 53.86C28.9333 53.6667 29.04 53.3967 29.04 53.05C29.04 52.7033 28.9333 52.4367 28.72 52.25C28.5067 52.0567 28.1867 51.96 27.76 51.96H26.07V54.14ZM33.536 58.1C32.6893 58.1 32.026 57.8667 31.546 57.4C31.066 56.9333 30.826 56.2933 30.826 55.48C30.826 54.9533 30.9293 54.4933 31.136 54.1C31.3427 53.7067 31.6293 53.4 31.996 53.18C32.3693 52.96 32.8027 52.85 33.296 52.85C33.7827 52.85 34.1893 52.9533 34.516 53.16C34.8427 53.3667 35.0893 53.6567 35.256 54.03C35.4293 54.4033 35.516 54.84 35.516 55.34V55.67H31.836V55.01H34.626L34.456 55.15C34.456 54.6833 34.356 54.3267 34.156 54.08C33.9627 53.8333 33.6793 53.71 33.306 53.71C32.8927 53.71 32.5727 53.8567 32.346 54.15C32.126 54.4433 32.016 54.8533 32.016 55.38V55.51C32.016 56.0567 32.1493 56.4667 32.416 56.74C32.6893 57.0067 33.0727 57.14 33.566 57.14C33.8527 57.14 34.1193 57.1033 34.366 57.03C34.6193 56.95 34.8593 56.8233 35.086 56.65L35.456 57.49C35.216 57.6833 34.9293 57.8333 34.596 57.94C34.2627 58.0467 33.9093 58.1 33.536 58.1ZM36.5645 58V54.24C36.5645 54.0267 36.5579 53.81 36.5445 53.59C36.5379 53.37 36.5212 53.1567 36.4945 52.95H37.7045L37.8445 54.33H37.6445C37.7112 53.9967 37.8212 53.72 37.9745 53.5C38.1345 53.28 38.3279 53.1167 38.5545 53.01C38.7812 52.9033 39.0279 52.85 39.2945 52.85C39.4145 52.85 39.5112 52.8567 39.5845 52.87C39.6579 52.8767 39.7312 52.8933 39.8045 52.92L39.7945 54.02C39.6679 53.9667 39.5579 53.9333 39.4645 53.92C39.3779 53.9067 39.2679 53.9 39.1345 53.9C38.8479 53.9 38.6045 53.96 38.4045 54.08C38.2112 54.2 38.0645 54.3667 37.9645 54.58C37.8712 54.7933 37.8245 55.0367 37.8245 55.31V58H36.5645ZM42.2515 58.1C41.8182 58.1 41.4182 58.05 41.0515 57.95C40.6915 57.8433 40.3882 57.6967 40.1415 57.51L40.4915 56.67C40.7448 56.8433 41.0248 56.9767 41.3315 57.07C41.6382 57.1633 41.9482 57.21 42.2615 57.21C42.5948 57.21 42.8415 57.1533 43.0015 57.04C43.1682 56.9267 43.2515 56.7733 43.2515 56.58C43.2515 56.4267 43.1982 56.3067 43.0915 56.22C42.9915 56.1267 42.8282 56.0567 42.6015 56.01L41.6015 55.82C41.1748 55.7267 40.8482 55.5667 40.6215 55.34C40.4015 55.1133 40.2915 54.8167 40.2915 54.45C40.2915 54.1367 40.3748 53.86 40.5415 53.62C40.7148 53.38 40.9582 53.1933 41.2715 53.06C41.5915 52.92 41.9648 52.85 42.3915 52.85C42.7648 52.85 43.1148 52.9 43.4415 53C43.7748 53.1 44.0548 53.25 44.2815 53.45L43.9215 54.26C43.7148 54.0933 43.4782 53.9633 43.2115 53.87C42.9448 53.7767 42.6848 53.73 42.4315 53.73C42.0848 53.73 41.8315 53.7933 41.6715 53.92C41.5115 54.04 41.4315 54.1967 41.4315 54.39C41.4315 54.5367 41.4782 54.66 41.5715 54.76C41.6715 54.8533 41.8248 54.9233 42.0315 54.97L43.0315 55.16C43.4782 55.2467 43.8148 55.4 44.0415 55.62C44.2748 55.8333 44.3915 56.1267 44.3915 56.5C44.3915 56.8333 44.3015 57.12 44.1215 57.36C43.9415 57.6 43.6915 57.7833 43.3715 57.91C43.0515 58.0367 42.6782 58.1 42.2515 58.1ZM47.7413 58.1C47.2213 58.1 46.7713 57.9933 46.3913 57.78C46.0113 57.5667 45.7146 57.2633 45.5013 56.87C45.2946 56.4767 45.1913 56.01 45.1913 55.47C45.1913 54.93 45.2946 54.4667 45.5013 54.08C45.7146 53.6867 46.0113 53.3833 46.3913 53.17C46.7713 52.9567 47.2213 52.85 47.7413 52.85C48.2613 52.85 48.7113 52.9567 49.0913 53.17C49.4779 53.3833 49.7746 53.6867 49.9813 54.08C50.1946 54.4667 50.3013 54.93 50.3013 55.47C50.3013 56.01 50.1946 56.4767 49.9813 56.87C49.7746 57.2633 49.4779 57.5667 49.0913 57.78C48.7113 57.9933 48.2613 58.1 47.7413 58.1ZM47.7413 57.14C48.1346 57.14 48.4479 57.0033 48.6813 56.73C48.9146 56.45 49.0313 56.03 49.0313 55.47C49.0313 54.91 48.9146 54.4933 48.6813 54.22C48.4479 53.9467 48.1346 53.81 47.7413 53.81C47.3479 53.81 47.0346 53.9467 46.8013 54.22C46.5679 54.4933 46.4513 54.91 46.4513 55.47C46.4513 56.03 46.5679 56.45 46.8013 56.73C47.0346 57.0033 47.3479 57.14 47.7413 57.14ZM51.3792 58V54.21C51.3792 54.0033 51.3726 53.7933 51.3592 53.58C51.3459 53.3667 51.3259 53.1567 51.2992 52.95H52.5092L52.6092 53.95H52.4892C52.6492 53.5967 52.8859 53.3267 53.1992 53.14C53.5126 52.9467 53.8759 52.85 54.2892 52.85C54.8826 52.85 55.3292 53.0167 55.6292 53.35C55.9292 53.6833 56.0792 54.2033 56.0792 54.91V58H54.8292V54.97C54.8292 54.5633 54.7492 54.2733 54.5892 54.1C54.4359 53.92 54.2026 53.83 53.8892 53.83C53.5026 53.83 53.1959 53.95 52.9692 54.19C52.7426 54.43 52.6292 54.75 52.6292 55.15V58H51.3792ZM59.3546 58.1C58.9146 58.1 58.5279 57.9967 58.1946 57.79C57.8613 57.5767 57.6013 57.2733 57.4146 56.88C57.2279 56.4867 57.1346 56.0167 57.1346 55.47C57.1346 54.9233 57.2279 54.4567 57.4146 54.07C57.6013 53.6767 57.8613 53.3767 58.1946 53.17C58.5279 52.9567 58.9146 52.85 59.3546 52.85C59.7813 52.85 60.1546 52.9567 60.4746 53.17C60.8013 53.3767 61.0179 53.6567 61.1246 54.01H61.0146L61.1246 52.95H62.3246C62.3046 53.1567 62.2846 53.3667 62.2646 53.58C62.2513 53.7933 62.2446 54.0033 62.2446 54.21V58H61.0046L60.9946 56.96H61.1146C61.0079 57.3067 60.7913 57.5833 60.4646 57.79C60.1379 57.9967 59.7679 58.1 59.3546 58.1ZM59.7046 57.14C60.0979 57.14 60.4146 57.0033 60.6546 56.73C60.8946 56.45 61.0146 56.03 61.0146 55.47C61.0146 54.91 60.8946 54.4933 60.6546 54.22C60.4146 53.9467 60.0979 53.81 59.7046 53.81C59.3113 53.81 58.9946 53.9467 58.7546 54.22C58.5146 54.4933 58.3946 54.91 58.3946 55.47C58.3946 56.03 58.5113 56.45 58.7446 56.73C58.9846 57.0033 59.3046 57.14 59.7046 57.14ZM63.6058 58V50.64H64.8558V58H63.6058ZM66.2132 58V52.95H67.4632V58H66.2132ZM66.1432 52V50.78H67.5332V52H66.1432ZM68.6206 58V57.18L71.7806 53.59V53.89H68.6206V52.95H72.9106V53.77L69.7206 57.39L69.7106 57.06H73.0206V58H68.6206ZM76.4266 58.1C75.58 58.1 74.9166 57.8667 74.4366 57.4C73.9566 56.9333 73.7166 56.2933 73.7166 55.48C73.7166 54.9533 73.82 54.4933 74.0266 54.1C74.2333 53.7067 74.52 53.4 74.8866 53.18C75.26 52.96 75.6933 52.85 76.1866 52.85C76.6733 52.85 77.08 52.9533 77.4066 53.16C77.7333 53.3667 77.98 53.6567 78.1466 54.03C78.32 54.4033 78.4066 54.84 78.4066 55.34V55.67H74.7266V55.01H77.5166L77.3466 55.15C77.3466 54.6833 77.2466 54.3267 77.0466 54.08C76.8533 53.8333 76.57 53.71 76.1966 53.71C75.7833 53.71 75.4633 53.8567 75.2366 54.15C75.0166 54.4433 74.9066 54.8533 74.9066 55.38V55.51C74.9066 56.0567 75.04 56.4667 75.3066 56.74C75.58 57.0067 75.9633 57.14 76.4566 57.14C76.7433 57.14 77.01 57.1033 77.2566 57.03C77.51 56.95 77.75 56.8233 77.9766 56.65L78.3466 57.49C78.1066 57.6833 77.82 57.8333 77.4866 57.94C77.1533 58.0467 76.8 58.1 76.4266 58.1ZM81.4252 58.1C80.9852 58.1 80.5952 57.9967 80.2552 57.79C79.9218 57.5767 79.6618 57.2733 79.4752 56.88C79.2885 56.4867 79.1952 56.0167 79.1952 55.47C79.1952 54.9233 79.2885 54.4567 79.4752 54.07C79.6618 53.6767 79.9218 53.3767 80.2552 53.17C80.5952 52.9567 80.9852 52.85 81.4252 52.85C81.8452 52.85 82.2152 52.9533 82.5352 53.16C82.8618 53.36 83.0785 53.6333 83.1852 53.98H83.0552V50.64H84.3052V58H83.0752V56.93H83.1952C83.0885 57.29 82.8718 57.5767 82.5452 57.79C82.2252 57.9967 81.8518 58.1 81.4252 58.1ZM81.7752 57.14C82.1685 57.14 82.4852 57.0033 82.7252 56.73C82.9652 56.45 83.0852 56.03 83.0852 55.47C83.0852 54.91 82.9652 54.4933 82.7252 54.22C82.4852 53.9467 82.1685 53.81 81.7752 53.81C81.3818 53.81 81.0618 53.9467 80.8152 54.22C80.5752 54.4933 80.4552 54.91 80.4552 55.47C80.4552 56.03 80.5752 56.45 80.8152 56.73C81.0618 57.0033 81.3818 57.14 81.7752 57.14ZM88.4105 58V52.95H89.6605V58H88.4105ZM88.3405 52V50.78H89.7305V52H88.3405ZM91.0179 58V54.21C91.0179 54.0033 91.0112 53.7933 90.9979 53.58C90.9846 53.3667 90.9646 53.1567 90.9379 52.95H92.1479L92.2479 53.95H92.1279C92.2879 53.5967 92.5246 53.3267 92.8379 53.14C93.1512 52.9467 93.5146 52.85 93.9279 52.85C94.5212 52.85 94.9679 53.0167 95.2679 53.35C95.5679 53.6833 95.7179 54.2033 95.7179 54.91V58H94.4679V54.97C94.4679 54.5633 94.3879 54.2733 94.2279 54.1C94.0746 53.92 93.8412 53.83 93.5279 53.83C93.1412 53.83 92.8346 53.95 92.6079 54.19C92.3812 54.43 92.2679 54.75 92.2679 55.15V58H91.0179ZM98.8433 58.1C98.4099 58.1 98.0099 58.05 97.6433 57.95C97.2833 57.8433 96.9799 57.6967 96.7333 57.51L97.0833 56.67C97.3366 56.8433 97.6166 56.9767 97.9233 57.07C98.2299 57.1633 98.5399 57.21 98.8533 57.21C99.1866 57.21 99.4333 57.1533 99.5933 57.04C99.7599 56.9267 99.8433 56.7733 99.8433 56.58C99.8433 56.4267 99.7899 56.3067 99.6833 56.22C99.5833 56.1267 99.4199 56.0567 99.1933 56.01L98.1933 55.82C97.7666 55.7267 97.4399 55.5667 97.2133 55.34C96.9933 55.1133 96.8833 54.8167 96.8833 54.45C96.8833 54.1367 96.9666 53.86 97.1333 53.62C97.3066 53.38 97.5499 53.1933 97.8633 53.06C98.1833 52.92 98.5566 52.85 98.9833 52.85C99.3566 52.85 99.7066 52.9 100.033 53C100.367 53.1 100.647 53.25 100.873 53.45L100.513 54.26C100.307 54.0933 100.07 53.9633 99.8033 53.87C99.5366 53.7767 99.2766 53.73 99.0233 53.73C98.6766 53.73 98.4233 53.7933 98.2633 53.92C98.1033 54.04 98.0233 54.1967 98.0233 54.39C98.0233 54.5367 98.0699 54.66 98.1633 54.76C98.2633 54.8533 98.4166 54.9233 98.6233 54.97L99.6233 55.16C100.07 55.2467 100.407 55.4 100.633 55.62C100.867 55.8333 100.983 56.1267 100.983 56.5C100.983 56.8333 100.893 57.12 100.713 57.36C100.533 57.6 100.283 57.7833 99.9633 57.91C99.6433 58.0367 99.2699 58.1 98.8433 58.1ZM102.053 58V52.95H103.303V58H102.053ZM101.983 52V50.78H103.373V52H101.983ZM107 60.24C106.534 60.24 106.11 60.19 105.73 60.09C105.357 59.99 105.024 59.8367 104.73 59.63L105 58.73C105.194 58.8567 105.394 58.96 105.6 59.04C105.807 59.12 106.02 59.18 106.24 59.22C106.46 59.26 106.684 59.28 106.91 59.28C107.377 59.28 107.724 59.1633 107.95 58.93C108.184 58.7033 108.3 58.3767 108.3 57.95V56.74H108.4C108.294 57.0867 108.077 57.3633 107.75 57.57C107.43 57.7767 107.06 57.88 106.64 57.88C106.187 57.88 105.79 57.78 105.45 57.58C105.117 57.3733 104.857 57.08 104.67 56.7C104.484 56.32 104.39 55.8733 104.39 55.36C104.39 54.8467 104.484 54.4033 104.67 54.03C104.857 53.65 105.117 53.36 105.45 53.16C105.79 52.9533 106.187 52.85 106.64 52.85C107.067 52.85 107.437 52.9533 107.75 53.16C108.07 53.36 108.284 53.6333 108.39 53.98L108.3 53.92L108.4 52.95H109.61C109.584 53.1567 109.564 53.3667 109.55 53.58C109.537 53.7933 109.53 54.0033 109.53 54.21V57.8C109.53 58.5933 109.314 59.1967 108.88 59.61C108.454 60.03 107.827 60.24 107 60.24ZM106.98 56.92C107.38 56.92 107.697 56.7867 107.93 56.52C108.17 56.2467 108.29 55.86 108.29 55.36C108.29 54.86 108.17 54.4767 107.93 54.21C107.697 53.9433 107.38 53.81 106.98 53.81C106.574 53.81 106.25 53.9433 106.01 54.21C105.77 54.4767 105.65 54.86 105.65 55.36C105.65 55.86 105.77 56.2467 106.01 56.52C106.25 56.7867 106.574 56.92 106.98 56.92ZM110.881 58V50.64H112.131V53.96H111.991C112.145 53.6 112.381 53.3267 112.701 53.14C113.021 52.9467 113.388 52.85 113.801 52.85C114.401 52.85 114.848 53.02 115.141 53.36C115.435 53.6933 115.581 54.2033 115.581 54.89V58H114.331V54.95C114.331 54.5567 114.255 54.2733 114.101 54.1C113.955 53.92 113.718 53.83 113.391 53.83C113.011 53.83 112.705 53.95 112.471 54.19C112.245 54.4233 112.131 54.7367 112.131 55.13V58H110.881ZM119.067 58.1C118.467 58.1 118.013 57.9433 117.707 57.63C117.4 57.3167 117.247 56.8467 117.247 56.22V53.89H116.277V52.95H117.247V51.66L118.497 51.34V52.95H119.847V53.89H118.497V56.14C118.497 56.4867 118.563 56.73 118.697 56.87C118.83 57.01 119.013 57.08 119.247 57.08C119.373 57.08 119.48 57.07 119.567 57.05C119.66 57.03 119.75 57.0033 119.837 56.97V57.96C119.723 58.0067 119.597 58.04 119.457 58.06C119.323 58.0867 119.193 58.1 119.067 58.1ZM122.496 58.1C122.062 58.1 121.662 58.05 121.296 57.95C120.936 57.8433 120.632 57.6967 120.386 57.51L120.736 56.67C120.989 56.8433 121.269 56.9767 121.576 57.07C121.882 57.1633 122.192 57.21 122.506 57.21C122.839 57.21 123.086 57.1533 123.246 57.04C123.412 56.9267 123.496 56.7733 123.496 56.58C123.496 56.4267 123.442 56.3067 123.336 56.22C123.236 56.1267 123.072 56.0567 122.846 56.01L121.846 55.82C121.419 55.7267 121.092 55.5667 120.866 55.34C120.646 55.1133 120.536 54.8167 120.536 54.45C120.536 54.1367 120.619 53.86 120.786 53.62C120.959 53.38 121.202 53.1933 121.516 53.06C121.836 52.92 122.209 52.85 122.636 52.85C123.009 52.85 123.359 52.9 123.686 53C124.019 53.1 124.299 53.25 124.526 53.45L124.166 54.26C123.959 54.0933 123.722 53.9633 123.456 53.87C123.189 53.7767 122.929 53.73 122.676 53.73C122.329 53.73 122.076 53.7933 121.916 53.92C121.756 54.04 121.676 54.1967 121.676 54.39C121.676 54.5367 121.722 54.66 121.816 54.76C121.916 54.8533 122.069 54.9233 122.276 54.97L123.276 55.16C123.722 55.2467 124.059 55.4 124.286 55.62C124.519 55.8333 124.636 56.1267 124.636 56.5C124.636 56.8333 124.546 57.12 124.366 57.36C124.186 57.6 123.936 57.7833 123.616 57.91C123.296 58.0367 122.922 58.1 122.496 58.1ZM128.79 58V53.89H127.82V52.95H129.14L128.79 53.27V52.5C128.79 51.8733 128.95 51.4 129.27 51.08C129.596 50.76 130.073 50.6 130.7 50.6C130.846 50.6 131 50.61 131.16 50.63C131.326 50.65 131.47 50.6867 131.59 50.74V51.72C131.503 51.6867 131.4 51.66 131.28 51.64C131.16 51.62 131.043 51.61 130.93 51.61C130.756 51.61 130.6 51.6433 130.46 51.71C130.326 51.7767 130.22 51.88 130.14 52.02C130.066 52.1533 130.03 52.3333 130.03 52.56V53.17L129.85 52.95H131.36V53.89H130.04V58H128.79ZM134.284 58.1C133.764 58.1 133.314 57.9933 132.934 57.78C132.554 57.5667 132.258 57.2633 132.044 56.87C131.838 56.4767 131.734 56.01 131.734 55.47C131.734 54.93 131.838 54.4667 132.044 54.08C132.258 53.6867 132.554 53.3833 132.934 53.17C133.314 52.9567 133.764 52.85 134.284 52.85C134.804 52.85 135.254 52.9567 135.634 53.17C136.021 53.3833 136.318 53.6867 136.524 54.08C136.738 54.4667 136.844 54.93 136.844 55.47C136.844 56.01 136.738 56.4767 136.524 56.87C136.318 57.2633 136.021 57.5667 135.634 57.78C135.254 57.9933 134.804 58.1 134.284 58.1ZM134.284 57.14C134.678 57.14 134.991 57.0033 135.224 56.73C135.458 56.45 135.574 56.03 135.574 55.47C135.574 54.91 135.458 54.4933 135.224 54.22C134.991 53.9467 134.678 53.81 134.284 53.81C133.891 53.81 133.578 53.9467 133.344 54.22C133.111 54.4933 132.994 54.91 132.994 55.47C132.994 56.03 133.111 56.45 133.344 56.73C133.578 57.0033 133.891 57.14 134.284 57.14ZM137.912 58V54.24C137.912 54.0267 137.906 53.81 137.892 53.59C137.886 53.37 137.869 53.1567 137.842 52.95H139.052L139.192 54.33H138.992C139.059 53.9967 139.169 53.72 139.322 53.5C139.482 53.28 139.676 53.1167 139.902 53.01C140.129 52.9033 140.376 52.85 140.642 52.85C140.762 52.85 140.859 52.8567 140.932 52.87C141.006 52.8767 141.079 52.8933 141.152 52.92L141.142 54.02C141.016 53.9667 140.906 53.9333 140.812 53.92C140.726 53.9067 140.616 53.9 140.482 53.9C140.196 53.9 139.952 53.96 139.752 54.08C139.559 54.2 139.412 54.3667 139.312 54.58C139.219 54.7933 139.172 55.0367 139.172 55.31V58H137.912ZM144.492 60.27L144.202 59.28C144.515 59.2133 144.779 59.1367 144.992 59.05C145.205 58.9633 145.382 58.85 145.522 58.71C145.662 58.57 145.779 58.39 145.872 58.17L146.122 57.58L146.092 58.07L143.892 52.95H145.222L146.802 56.89H146.512L148.102 52.95H149.362L147.062 58.28C146.909 58.64 146.742 58.9367 146.562 59.17C146.382 59.41 146.189 59.6 145.982 59.74C145.775 59.8867 145.549 60 145.302 60.08C145.055 60.16 144.785 60.2233 144.492 60.27ZM152.204 58.1C151.684 58.1 151.234 57.9933 150.854 57.78C150.474 57.5667 150.177 57.2633 149.964 56.87C149.757 56.4767 149.654 56.01 149.654 55.47C149.654 54.93 149.757 54.4667 149.964 54.08C150.177 53.6867 150.474 53.3833 150.854 53.17C151.234 52.9567 151.684 52.85 152.204 52.85C152.724 52.85 153.174 52.9567 153.554 53.17C153.941 53.3833 154.237 53.6867 154.444 54.08C154.657 54.4667 154.764 54.93 154.764 55.47C154.764 56.01 154.657 56.4767 154.444 56.87C154.237 57.2633 153.941 57.5667 153.554 57.78C153.174 57.9933 152.724 58.1 152.204 58.1ZM152.204 57.14C152.597 57.14 152.911 57.0033 153.144 56.73C153.377 56.45 153.494 56.03 153.494 55.47C153.494 54.91 153.377 54.4933 153.144 54.22C152.911 53.9467 152.597 53.81 152.204 53.81C151.811 53.81 151.497 53.9467 151.264 54.22C151.031 54.4933 150.914 54.91 150.914 55.47C150.914 56.03 151.031 56.45 151.264 56.73C151.497 57.0033 151.811 57.14 152.204 57.14ZM157.662 58.1C157.042 58.1 156.579 57.93 156.272 57.59C155.965 57.25 155.812 56.73 155.812 56.03V52.95H157.062V56.02C157.062 56.3933 157.139 56.67 157.292 56.85C157.445 57.0233 157.679 57.11 157.992 57.11C158.345 57.11 158.632 56.99 158.852 56.75C159.079 56.51 159.192 56.1933 159.192 55.8V52.95H160.442V58H159.222V56.97H159.362C159.215 57.33 158.992 57.61 158.692 57.81C158.399 58.0033 158.055 58.1 157.662 58.1ZM161.789 58V54.24C161.789 54.0267 161.782 53.81 161.769 53.59C161.762 53.37 161.746 53.1567 161.719 52.95H162.929L163.069 54.33H162.869C162.936 53.9967 163.046 53.72 163.199 53.5C163.359 53.28 163.552 53.1167 163.779 53.01C164.006 52.9033 164.252 52.85 164.519 52.85C164.639 52.85 164.736 52.8567 164.809 52.87C164.882 52.8767 164.956 52.8933 165.029 52.92L165.019 54.02C164.892 53.9667 164.782 53.9333 164.689 53.92C164.602 53.9067 164.492 53.9 164.359 53.9C164.072 53.9 163.829 53.96 163.629 54.08C163.436 54.2 163.289 54.3667 163.189 54.58C163.096 54.7933 163.049 55.0367 163.049 55.31V58H161.789ZM170.429 58.1C169.989 58.1 169.599 57.9967 169.259 57.79C168.926 57.5767 168.666 57.2733 168.479 56.88C168.292 56.4867 168.199 56.0167 168.199 55.47C168.199 54.9233 168.292 54.4567 168.479 54.07C168.666 53.6767 168.926 53.3767 169.259 53.17C169.599 52.9567 169.989 52.85 170.429 52.85C170.849 52.85 171.219 52.9533 171.539 53.16C171.866 53.36 172.082 53.6333 172.189 53.98H172.059V50.64H173.309V58H172.079V56.93H172.199C172.092 57.29 171.876 57.5767 171.549 57.79C171.229 57.9967 170.856 58.1 170.429 58.1ZM170.779 57.14C171.172 57.14 171.489 57.0033 171.729 56.73C171.969 56.45 172.089 56.03 172.089 55.47C172.089 54.91 171.969 54.4933 171.729 54.22C171.489 53.9467 171.172 53.81 170.779 53.81C170.386 53.81 170.066 53.9467 169.819 54.22C169.579 54.4933 169.459 54.91 169.459 55.47C169.459 56.03 169.579 56.45 169.819 56.73C170.066 57.0033 170.386 57.14 170.779 57.14ZM176.62 58.1C176.18 58.1 175.794 57.9967 175.46 57.79C175.127 57.5767 174.867 57.2733 174.68 56.88C174.494 56.4867 174.4 56.0167 174.4 55.47C174.4 54.9233 174.494 54.4567 174.68 54.07C174.867 53.6767 175.127 53.3767 175.46 53.17C175.794 52.9567 176.18 52.85 176.62 52.85C177.047 52.85 177.42 52.9567 177.74 53.17C178.067 53.3767 178.284 53.6567 178.39 54.01H178.28L178.39 52.95H179.59C179.57 53.1567 179.55 53.3667 179.53 53.58C179.517 53.7933 179.51 54.0033 179.51 54.21V58H178.27L178.26 56.96H178.38C178.274 57.3067 178.057 57.5833 177.73 57.79C177.404 57.9967 177.034 58.1 176.62 58.1ZM176.97 57.14C177.364 57.14 177.68 57.0033 177.92 56.73C178.16 56.45 178.28 56.03 178.28 55.47C178.28 54.91 178.16 54.4933 177.92 54.22C177.68 53.9467 177.364 53.81 176.97 53.81C176.577 53.81 176.26 53.9467 176.02 54.22C175.78 54.4933 175.66 54.91 175.66 55.47C175.66 56.03 175.777 56.45 176.01 56.73C176.25 57.0033 176.57 57.14 176.97 57.14ZM180.723 60.27L180.433 59.28C180.746 59.2133 181.009 59.1367 181.223 59.05C181.436 58.9633 181.613 58.85 181.753 58.71C181.893 58.57 182.009 58.39 182.103 58.17L182.353 57.58L182.323 58.07L180.123 52.95H181.453L183.033 56.89H182.743L184.333 52.95H185.593L183.293 58.28C183.139 58.64 182.973 58.9367 182.793 59.17C182.613 59.41 182.419 59.6 182.213 59.74C182.006 59.8867 181.779 60 181.533 60.08C181.286 60.16 181.016 60.2233 180.723 60.27ZM185.634 58V56.61H187.034V58H185.634Z" fill="white"/>
<path opacity="0.2" d="M211.5 54.0412C199.9 54.4412 190.333 79.8746 187 92.5412C225 120.041 333 84.0413 333 77.0413C333 70.0413 338 34.5412 333 23.5412C328 12.5412 293.5 8.54125 279.5 9.04125C265.5 9.54125 251 27.0412 244 40.5412C237 54.0412 226 53.5412 211.5 54.0412Z" fill="white"/>
<circle cx="282" cy="42" r="18" fill="white"/>
<path d="M286.983 40.9917V44.325C286.983 44.5417 286.975 44.75 286.95 44.95C286.758 47.2 285.433 48.3167 282.992 48.3167H282.658C282.45 48.3167 282.25 48.4167 282.125 48.5833L281.125 49.9167C280.683 50.5083 279.967 50.5083 279.525 49.9167L278.525 48.5833C278.416 48.4417 278.175 48.3167 277.992 48.3167H277.658C275 48.3167 273.667 47.6583 273.667 44.325V40.9917C273.667 38.55 274.792 37.225 277.033 37.0333C277.233 37.0083 277.442 37 277.658 37H282.992C285.65 37 286.983 38.3333 286.983 40.9917Z" stroke="#575656" stroke-width="1.5" stroke-miterlimit="10" stroke-linecap="round" stroke-linejoin="round"/>
<path d="M290.317 37.6582V40.9915C290.317 43.4415 289.192 44.7582 286.95 44.9498C286.975 44.7498 286.983 44.5415 286.983 44.3248V40.9915C286.983 38.3332 285.65 36.9998 282.992 36.9998H277.658C277.442 36.9998 277.233 37.0082 277.033 37.0332C277.225 34.7915 278.55 33.6665 280.992 33.6665H286.325C288.983 33.6665 290.317 34.9998 290.317 37.6582Z" stroke="#575656" stroke-width="1.5" stroke-miterlimit="10" stroke-linecap="round" stroke-linejoin="round"/>
<path d="M283.246 43.0417H283.254" stroke="#575656" stroke-width="2" stroke-linecap="round" stroke-linejoin="round"/>
<path d="M280.329 43.0417H280.337" stroke="#575656" stroke-width="2" stroke-linecap="round" stroke-linejoin="round"/>
<path d="M277.413 43.0417H277.42" stroke="#575656" stroke-width="2" stroke-linecap="round" stroke-linejoin="round"/>
</svg>
