<svg width="19" height="21" viewBox="0 0 19 21" fill="none" xmlns="http://www.w3.org/2000/svg">
<path d="M12.5836 6.87864C12.7402 7.00614 12.8306 7.19364 12.8986 7.38629L13.1114 7.99614H15.3009C16.3069 7.99614 17.0789 7.13223 17.0789 6.11973C17.0789 5.24551 16.4995 4.46129 15.6586 4.28082C15.5217 4.25176 15.4392 4.10786 15.4861 3.9752C15.9061 2.77661 15.0806 1.4477 13.8173 1.4477C13.5422 1.4477 13.2352 1.51942 13.0027 1.65489C12.8578 1.73879 12.6919 1.66145 12.653 1.5152C12.3141 0.234105 10.9017 -0.403395 9.77906 0.275355C9.48141 0.456293 9.23156 0.717855 9.05766 1.03145C8.97938 1.17629 8.78531 1.19739 8.6775 1.07926C7.99875 0.332543 6.87187 0.304418 6.16078 1.02629C5.84062 1.35161 5.63438 1.80348 5.6175 2.30598C5.61609 2.49207 5.43281 2.59145 5.28516 2.52254C4.17984 2.01348 2.91469 2.80004 2.80453 4.07036C2.79656 4.17114 2.72344 4.25926 2.61984 4.28036C1.78125 4.45989 1.19953 5.24504 1.19953 6.11926C1.19953 7.13176 1.97156 7.99567 2.9775 7.99567H5.40094L5.61375 7.38583C5.66672 7.23442 5.73469 7.08676 5.83453 6.97004C5.86359 6.93676 5.89547 6.90489 5.92875 6.87817C6.27703 6.37332 6.75 5.98379 7.30688 5.71801C7.66547 5.54645 8.06016 5.42692 8.47875 5.36036L7.30406 5.26614C7.14047 5.25395 7.03031 5.07723 7.12078 4.91411L8.70469 1.83957C8.74969 1.75332 8.84156 1.70692 8.93203 1.71348L10.222 1.82129C10.3842 1.83442 10.4958 2.0102 10.4039 2.17473L9.55359 3.82614L10.9861 3.9977C11.1694 4.01879 11.2598 4.23161 11.1338 4.38442L10.3538 5.42223C11.2547 5.63129 12.0548 6.11223 12.5836 6.87864Z" fill="#A1A1A1"/>
<path fill-rule="evenodd" clip-rule="evenodd" d="M2.95688 15.1235L5.07094 11.403L4.90219 9.56411H4.5675C3.03797 9.56411 1.78781 10.8157 1.78781 12.3438V15.1235H2.95688ZM6.32531 7.20723C6.17766 7.20723 6.10219 7.40504 6.05578 7.54051L5.36625 9.51114L5.54297 11.434C5.54672 11.4832 5.53641 11.5296 5.51391 11.5708L3.30562 15.4586C3.26859 15.5369 3.1875 15.5927 3.09281 15.5927H1.78734V17.7494C1.78734 19.0436 3.27797 19.8049 4.32375 19.0146C4.61203 18.7966 4.81781 18.4882 4.90688 18.139L6.58125 11.6918V7.46364C6.58172 7.32254 6.46453 7.20723 6.32531 7.20723ZM12.1861 7.20723C12.0464 7.20723 11.9311 7.32301 11.9311 7.46364V11.6918L13.6041 18.139C13.9045 19.308 15.3764 19.7519 16.2591 18.8683C16.5459 18.5815 16.7255 18.1854 16.7255 17.7494V15.5927H15.4195C15.3253 15.5927 15.2442 15.5369 15.2067 15.4586L12.9984 11.5708C12.9759 11.5296 12.9652 11.4832 12.9694 11.434L13.1461 9.51114L12.458 7.54051C12.4092 7.40504 12.3338 7.20723 12.1861 7.20723ZM11.5988 12.2707L11.5902 12.2395C11.5553 12.1123 11.4619 11.7721 11.4619 11.718V7.46364C11.4619 7.16457 11.6452 6.90301 11.9123 6.79286C11.2373 6.08739 10.2581 5.77098 9.25594 5.77098C8.25281 5.77098 7.27359 6.08739 6.59859 6.79286C6.86578 6.90301 7.04906 7.16504 7.04906 7.46364V11.7185C7.04906 11.7663 6.97746 12.0327 6.93691 12.1836C6.92653 12.2222 6.91818 12.2533 6.91359 12.2711C8.29453 13.953 10.2169 13.953 11.5988 12.2707ZM13.2028 18.4268L13.147 18.2407L11.7398 12.8168C10.253 14.3965 8.25844 14.3965 6.77156 12.8168L5.36438 18.2407L5.31 18.4268H13.2028ZM16.8422 18.896C16.0223 20.1063 14.2538 20.0997 13.4381 18.896H5.07328C4.25766 20.0997 2.48906 20.1063 1.66922 18.896H0.267188C0.120938 18.896 0 19.0155 0 19.1632V20.3604C0 20.5066 0.120938 20.6275 0.267188 20.6275H18.2438C18.39 20.6275 18.5109 20.5066 18.5109 20.3604V19.1632C18.5109 19.0169 18.39 18.896 18.2438 18.896H16.8422ZM13.6092 9.56411L13.4405 11.403L15.5545 15.1235H16.725V12.3438C16.725 10.8157 15.4734 9.56411 13.9439 9.56411H13.6092Z" fill="#0072BC"/>
<path d="M9.25359 5.30176L9.83438 5.33504L10.5267 4.41442L9.1636 4.25223C9.00422 4.23207 8.90859 4.05817 8.98266 3.91192L9.83438 2.25911L9.04781 2.19395L7.68984 4.82879L9.06797 4.93895H9.06656C9.21422 4.95114 9.315 5.09551 9.27375 5.23801L9.25359 5.30176Z" fill="#EEC000"/>
</svg>
