<svg width="14" height="14" viewBox="0 0 14 14" fill="none" xmlns="http://www.w3.org/2000/svg">
<path d="M9.33366 1.16675H4.66699C2.33366 1.16675 1.16699 2.33341 1.16699 4.66675V12.2501C1.16699 12.5709 1.42949 12.8334 1.75033 12.8334H9.33366C11.667 12.8334 12.8337 11.6667 12.8337 9.33341V4.66675C12.8337 2.33341 11.667 1.16675 9.33366 1.16675Z" stroke="#0072BC" stroke-linecap="round" stroke-linejoin="round"/>
<path d="M7.53112 4.57342L4.50362 7.60092C4.38695 7.71759 4.27612 7.94509 4.25279 8.10842L4.08946 9.26342C4.03112 9.68342 4.32279 9.97509 4.74279 9.91676L5.89778 9.75342C6.06111 9.73009 6.28862 9.61926 6.40529 9.50259L9.43279 6.47509C9.95196 5.95592 10.2028 5.34925 9.43279 4.57925C8.66279 3.80342 8.05612 4.04842 7.53112 4.57342Z" stroke="#0072BC" stroke-miterlimit="10" stroke-linecap="round" stroke-linejoin="round"/>
<path d="M7.09961 5.00513C7.35628 5.92096 8.07378 6.64429 8.99544 6.90096" stroke="#0072BC" stroke-miterlimit="10" stroke-linecap="round" stroke-linejoin="round"/>
</svg>
