<svg width="123" height="34" viewBox="0 0 123 34" fill="none" xmlns="http://www.w3.org/2000/svg">
<g clip-path="url(#clip0_2_160)">
<path fill-rule="evenodd" clip-rule="evenodd" d="M24.4967 6.59366C23.51 6.59366 22.5388 6.81086 21.8528 7.09012C21.1667 6.81086 20.1955 6.59366 19.2089 6.59366C14.8614 6.59366 10.9302 10.736 10.9302 16.4143C10.9302 22.6046 15.956 27.3986 21.8528 27.3986C27.7496 27.3986 32.7753 22.6124 32.7753 16.4143C32.7753 10.736 28.8441 6.59366 24.4967 6.59366ZM21.8528 9.96806C22.693 10.4723 23.7953 11.9229 23.7953 13.5674C23.7953 14.7698 23.009 15.7162 21.8528 15.7162C20.6965 15.7162 19.9103 14.7698 19.9103 13.5674C19.9026 11.9229 21.0126 10.4723 21.8528 9.96806ZM21.8528 24.6913C17.3435 24.6913 13.6127 21.0376 13.6127 16.36C13.6127 12.0858 16.6806 9.16906 19.0855 9.27766C17.9447 10.418 17.251 12.0858 17.251 13.6993C17.251 16.4764 19.4401 18.4235 21.8528 18.4235C24.2655 18.4235 26.4546 16.4764 26.4546 13.6993C26.4546 12.0858 25.7608 10.418 24.62 9.27766C27.025 9.16906 30.0929 12.0858 30.0929 16.36C30.0929 21.0454 26.3621 24.6913 21.8528 24.6913Z" fill="#0072BC"/>
<path d="M48.5078 11.3333V13.5985C48.5078 13.5985 51.6913 13.5985 51.938 13.5985C51.938 13.8467 51.938 22.0926 51.938 22.0926H54.3661C54.3661 22.0926 54.3661 13.8544 54.3661 13.5985C54.605 13.5985 57.7962 13.5985 57.7962 13.5985V11.3333H48.5078Z" fill="#0072BC"/>
<path d="M88.4595 11.3333H82.3469V13.614H88.2976C89.1686 13.614 89.5078 14.0173 89.5078 15.0413C89.5078 15.0491 89.5078 15.3361 89.5078 15.4214C89.2611 15.4214 84.5745 15.4214 84.5745 15.4214C82.7014 15.4214 81.7687 16.3678 81.7687 18.501V19.0053C81.7687 21.2006 82.7323 22.0771 84.6824 22.0771H91.9127V15.0103C91.9205 12.3108 91.0263 11.3333 88.4595 11.3333ZM84.9368 19.7887C84.5668 19.7887 84.1583 19.6026 84.1583 18.6795C84.1583 17.7563 84.5668 17.5934 84.9368 17.5934C84.9368 17.5934 89.2688 17.5934 89.5155 17.5934V19.7887C89.2688 19.7887 84.9368 19.7887 84.9368 19.7887Z" fill="#0072BC"/>
<path d="M108.616 11.3333H102.504V13.614H108.455C109.326 13.614 109.665 14.0173 109.665 15.0413C109.665 15.0491 109.665 15.3361 109.665 15.4214C109.418 15.4214 104.732 15.4214 104.732 15.4214C102.858 15.4214 101.926 16.3678 101.926 18.501V19.0053C101.926 21.2006 102.889 22.0771 104.839 22.0771H112.07V15.0103C112.07 12.3108 111.183 11.3333 108.616 11.3333ZM105.094 19.7887C104.724 19.7887 104.315 19.6026 104.315 18.6795C104.315 17.7563 104.724 17.5934 105.094 17.5934C105.094 17.5934 109.426 17.5934 109.672 17.5934V19.7887C109.426 19.7887 105.094 19.7887 105.094 19.7887Z" fill="#0072BC"/>
<path d="M58.5593 11.3333V13.5985C58.5593 13.5985 61.7505 13.5985 61.9895 13.5985C61.9895 13.8467 61.9895 22.0926 61.9895 22.0926H64.4176C64.4176 22.0926 64.4176 13.8544 64.4176 13.5985C64.6565 13.5985 67.8477 13.5985 67.8477 13.5985V11.3333H58.5593Z" fill="#0072BC"/>
<path d="M92.4061 11.3333V13.5985C92.4061 13.5985 95.5896 13.5985 95.8362 13.5985C95.8362 13.8467 95.8362 22.0926 95.8362 22.0926H98.2643C98.2643 22.0926 98.2643 13.8544 98.2643 13.5985C98.5033 13.5985 101.694 13.5985 101.694 13.5985V11.3333H92.4061Z" fill="#0072BC"/>
<path d="M80.836 18.3226V15.1034C80.836 12.2875 79.7492 11.3333 77.298 11.3333H70.7999V22.0849H77.4136C80.0112 22.0849 80.836 20.7894 80.836 18.3226ZM78.354 18.3692C78.354 19.4009 78.0071 19.7965 77.1361 19.7965C77.1361 19.7965 73.467 19.7965 73.228 19.7965V13.6217C73.467 13.6217 77.1361 13.6217 77.1361 13.6217C78.0071 13.6217 78.354 14.0251 78.354 15.0491C78.354 15.0646 78.354 18.3692 78.354 18.3692Z" fill="#0072BC"/>
<path d="M45.0853 19.525C45.0314 19.4241 41.7862 13.0632 41.3931 12.4426C40.9383 11.7212 40.3756 11.217 39.3119 11.217C38.3175 11.217 37.1459 11.6591 37.1459 14.0561V22.1004H39.5431C39.5431 22.1004 39.5431 15.8791 39.5431 15.3904C39.5431 14.9094 39.5123 14.1958 39.5046 14.0561C39.4969 13.9398 39.5046 13.8234 39.5663 13.7924C39.6356 13.7536 39.705 13.8157 39.7513 13.9087C39.7975 14.0018 42.8037 19.9827 43.4435 20.9911C43.8983 21.7125 44.461 22.2168 45.5247 22.2168C46.5114 22.2168 47.6907 21.7746 47.6907 19.3776V11.3333H45.3012C45.3012 11.3333 45.3012 17.5546 45.3012 18.0434C45.3012 18.5243 45.332 19.238 45.3397 19.3854C45.3474 19.5017 45.3397 19.6181 45.278 19.6491C45.201 19.6801 45.1316 19.6181 45.0853 19.525Z" fill="#0072BC"/>
</g>
<defs>
<clipPath id="clip0_2_160">
<rect width="123" height="34" fill="white"/>
</clipPath>
</defs>
</svg>
