<svg width="177" height="100" viewBox="0 0 177 100" fill="none" xmlns="http://www.w3.org/2000/svg">
<path d="M31.4331 99.3726C24.408 99.3726 -5.34342 80.0936 5.38323 61.6529C14.7249 45.5931 34.9301 69.0024 28.7519 36.2127C26.1591 22.4513 45.3773 7.25042 64.3793 16.1961C75.1088 21.2472 93.7638 25.1698 99.8837 15.3229C113.149 -6.02002 151.707 -4.79116 163.07 17.2866C175.239 40.9295 148.322 39.1209 158.482 51.3959C164.289 58.4104 168.164 57.9693 174.173 69.321C181.209 82.609 172.539 99.5551 156.125 99.5551L31.4331 99.3726Z" fill="#F5F8FF"/>
<path d="M132.141 99.5549H123.619C121.883 99.5549 120.476 98.1476 120.476 96.4113V12.8697C120.476 11.1334 121.883 9.7262 123.619 9.7262H132.141C133.877 9.7262 135.284 11.1338 135.284 12.8697V96.4109C135.284 98.1472 133.877 99.5549 132.141 99.5549Z" fill="#E1ECFA"/>
<path d="M111.839 100H103.317C101.581 100 100.174 98.5924 100.174 96.8565V26.3766C100.174 24.6403 101.581 23.233 103.317 23.233H111.839C113.575 23.233 114.982 24.6407 114.982 26.3766V96.8561C114.983 98.5924 113.575 100 111.839 100Z" fill="#E1ECFA"/>
<path d="M92.0819 99.7474H83.5605C81.8242 99.7474 80.417 98.3398 80.417 96.6039V38.6018C80.417 36.8655 81.8246 35.4583 83.5605 35.4583H92.0819C93.8182 35.4583 95.2255 36.8659 95.2255 38.6018V96.6035C95.2255 98.3398 93.8182 99.7474 92.0819 99.7474Z" fill="#E1ECFA"/>
<path d="M86.3742 43.0349C72.1271 43.5333 59.2704 49.473 49.7941 58.8294C49.1678 59.4477 49.1847 60.4652 49.8297 61.0641L72.678 82.2919C73.2499 82.8233 74.1358 82.853 74.7257 82.3414C78.0315 79.4729 82.29 77.7423 86.9195 77.3139C87.711 77.2408 88.3233 76.591 88.3233 75.7961V44.9256C88.3233 43.859 87.44 42.9974 86.3742 43.0349Z" fill="#E69724"/>
<path d="M33.624 99.6143H65.1215C65.9445 99.6143 66.6153 98.9686 66.6648 98.1471C66.9639 93.1912 68.2504 89.3889 71.1695 85.8653C71.6874 85.2402 71.6125 84.3142 71.017 83.7621L48.389 62.7831C47.756 62.1962 46.7644 62.2408 46.1858 62.8821C37.7385 72.2407 32.4618 84.5161 32.0758 98.0223C32.0511 98.8933 32.7523 99.6143 33.624 99.6143Z" fill="#F0C66C"/>
<path d="M90.2803 44.5714V75.7818C90.2803 76.5857 90.8975 77.2446 91.6976 77.3221C96.4096 77.7801 100.464 79.5205 103.887 82.395C104.481 82.8941 105.36 82.8574 105.929 82.329L128.795 61.0843C129.44 60.4854 129.457 59.4683 128.831 58.8499C119.274 49.404 106.274 43.4351 91.8757 43.0232C91.0032 42.9985 90.2803 43.6989 90.2803 44.5714Z" fill="#F0C66C"/>
<path d="M146.311 98.0115C145.926 84.5166 140.657 72.2505 132.222 62.8948C131.644 62.2529 130.651 62.2083 130.018 62.7967L107.399 83.8109C106.815 84.3535 106.738 85.2552 107.227 85.8852C110.205 89.7224 111.217 92.8259 111.765 98.2161C111.846 99.0039 112.511 99.6035 113.303 99.6035H144.763C145.635 99.6039 146.336 98.8828 146.311 98.0115Z" fill="#E69724"/>
<path d="M89.1311 78.976C78.2973 78.976 69.4135 87.3235 68.5598 97.9372C68.4871 98.8396 69.1977 99.6143 70.1031 99.6143H108.159C109.064 99.6143 109.775 98.8396 109.702 97.9372C108.849 87.3231 99.9644 78.976 89.1311 78.976Z" fill="#BAD4EF"/>
</svg>
