<svg width="154" height="194" viewBox="0 0 154 194" fill="none" xmlns="http://www.w3.org/2000/svg">
<path d="M0 101.211H30L47 88.2031L58.5 101.211L64 107.715L68.5 101.211L74.5 92.1055L82 101.211L98 83L109 98.1758L124 92.5391L129.5 101.211H154V194H0V101.211Z" fill="url(#paint0_linear_402_1103)"/>
<path d="M94.4688 5.19115C106.062 5.19115 114.887 14.0161 114.887 25.6097C114.887 40.664 101.044 53.8149 76.4728 75.4447L76.2997 75.6178L76.1267 75.7908L73.3581 78.5594L70.4164 75.6178L70.2434 75.4447L70.0703 75.2717C45.6719 53.8149 31.8288 40.664 31.8288 25.6097C31.8288 13.8431 40.6538 5.01811 52.4204 5.01811C58.8228 5.01811 65.3983 8.1328 69.5512 12.9779L73.5311 17.6499L77.511 12.9779C81.4909 8.1328 88.0663 5.19115 94.4688 5.19115ZM94.4688 0C86.509 0 78.5492 3.80684 73.3581 9.86319C68.1669 3.80684 60.2071 0 52.4204 0C37.8852 0 26.6377 11.0745 26.6377 25.6097C26.6377 43.4326 42.5572 57.7948 66.7826 79.4246L73.3581 86.0001L79.9335 79.4246C104.159 57.7948 120.078 43.4326 120.078 25.6097C120.078 11.0745 108.831 0 94.4688 0Z" fill="#FBBB00"/>
<path d="M20 41.5141L52.9629 41.6893L61.7645 24L73.5 55L82.9919 33.8079L87.6516 41.6893H127" stroke="#0072BC" stroke-width="2" stroke-miterlimit="10" stroke-linecap="round"/>
<defs>
<linearGradient id="paint0_linear_402_1103" x1="77" y1="96.5" x2="77" y2="175.5" gradientUnits="userSpaceOnUse">
<stop stop-color="#91D8F7"/>
<stop offset="1" stop-color="#E3F1F7" stop-opacity="0"/>
</linearGradient>
</defs>
</svg>
