<svg width="38" height="37" viewBox="0 0 38 37" fill="none" xmlns="http://www.w3.org/2000/svg">
<rect x="0.5" width="37" height="37" rx="18.5" fill="#9ED042"/>
<path d="M8.69775 9.79328C8.72524 9.78118 8.75101 9.77098 8.7785 9.76233C8.81118 9.74694 8.84213 9.73312 8.87481 9.71946C8.8162 9.74349 8.75775 9.76925 8.69775 9.79328ZM11.2611 9.08544C11.299 9.08026 11.3367 9.07506 11.3746 9.07178C11.402 9.06832 11.4313 9.06314 11.4587 9.05968C11.3934 9.06816 11.3265 9.0768 11.2611 9.08544ZM14.1974 9.05276C14.2249 9.05622 14.2524 9.05968 14.2799 9.06487C14.3178 9.06832 14.3555 9.07351 14.3933 9.0787C14.3282 9.06988 14.2628 9.06141 14.1974 9.05276ZM14.1974 9.05276C14.2249 9.05622 14.2524 9.05968 14.2799 9.06487C14.3178 9.06832 14.3555 9.07351 14.3933 9.0787C14.3282 9.06988 14.2628 9.06141 14.1974 9.05276ZM11.2611 9.08544C11.299 9.08026 11.3367 9.07506 11.3746 9.07178C11.402 9.06832 11.4313 9.06314 11.4587 9.05968C11.3934 9.06816 11.3265 9.0768 11.2611 9.08544ZM8.69775 9.79328C8.72524 9.78118 8.75101 9.77098 8.7785 9.76233C8.81118 9.74694 8.84213 9.73312 8.87481 9.71946C8.8162 9.74349 8.75775 9.76925 8.69775 9.79328ZM8.69775 9.79328C8.72524 9.78118 8.75101 9.77098 8.7785 9.76233C8.81118 9.74694 8.84213 9.73312 8.87481 9.71946C8.8162 9.74349 8.75775 9.76925 8.69775 9.79328ZM11.2611 9.08544C11.299 9.08026 11.3367 9.07506 11.3746 9.07178C11.402 9.06832 11.4313 9.06314 11.4587 9.05968C11.3934 9.06816 11.3265 9.0768 11.2611 9.08544ZM14.1974 9.05276C14.2249 9.05622 14.2524 9.05968 14.2799 9.06487C14.3178 9.06832 14.3555 9.07351 14.3933 9.0787C14.3282 9.06988 14.2628 9.06141 14.1974 9.05276ZM14.1974 9.05276C14.2249 9.05622 14.2524 9.05968 14.2799 9.06487C14.3178 9.06832 14.3555 9.07351 14.3933 9.0787C14.3282 9.06988 14.2628 9.06141 14.1974 9.05276ZM11.2611 9.08544C11.299 9.08026 11.3367 9.07506 11.3746 9.07178C11.402 9.06832 11.4313 9.06314 11.4587 9.05968C11.3934 9.06816 11.3265 9.0768 11.2611 9.08544ZM8.69775 9.79328C8.72524 9.78118 8.75101 9.77098 8.7785 9.76233C8.81118 9.74694 8.84213 9.73312 8.87481 9.71946C8.8162 9.74349 8.75775 9.76925 8.69775 9.79328ZM8.69775 9.79328C8.72524 9.78118 8.75101 9.77098 8.7785 9.76233C8.81118 9.74694 8.84213 9.73312 8.87481 9.71946C8.8162 9.74349 8.75775 9.76925 8.69775 9.79328ZM11.2611 9.08544C11.299 9.08026 11.3367 9.07506 11.3746 9.07178C11.402 9.06832 11.4313 9.06314 11.4587 9.05968C11.3934 9.06816 11.3265 9.0768 11.2611 9.08544ZM14.1974 9.05276C14.2249 9.05622 14.2524 9.05968 14.2799 9.06487C14.3178 9.06832 14.3555 9.07351 14.3933 9.0787C14.3282 9.06988 14.2628 9.06141 14.1974 9.05276ZM23.6027 9.07852C23.6423 9.07333 23.6834 9.06816 23.723 9.0647C23.7488 9.05951 23.7746 9.05605 23.8003 9.05259C23.735 9.06141 23.6679 9.06988 23.6027 9.07852ZM26.539 9.05968C26.5682 9.06314 26.5992 9.06833 26.6284 9.07334C26.6645 9.0768 26.6988 9.08026 26.7349 9.08544C26.6696 9.0768 26.6044 9.06816 26.539 9.05968ZM29.1214 9.71946C29.1541 9.73329 29.185 9.74694 29.2177 9.76233C29.2452 9.77098 29.271 9.78118 29.2985 9.79328C29.24 9.76925 29.1798 9.74349 29.1214 9.71946ZM29.1214 9.71946C29.1541 9.73329 29.185 9.74694 29.2177 9.76233C29.2452 9.77098 29.271 9.78118 29.2985 9.79328C29.24 9.76925 29.1798 9.74349 29.1214 9.71946ZM26.539 9.05968C26.5682 9.06314 26.5992 9.06833 26.6284 9.07334C26.6645 9.0768 26.6988 9.08026 26.7349 9.08544C26.6696 9.0768 26.6044 9.06816 26.539 9.05968ZM23.6027 9.07852C23.6423 9.07333 23.6834 9.06816 23.723 9.0647C23.7488 9.05951 23.7746 9.05605 23.8003 9.05259C23.735 9.06141 23.6679 9.06988 23.6027 9.07852ZM14.1974 9.05276C14.2249 9.05622 14.2524 9.05968 14.2799 9.06487C14.3178 9.06832 14.3555 9.07351 14.3933 9.0787C14.3282 9.06988 14.2628 9.06141 14.1974 9.05276ZM11.2611 9.08544C11.299 9.08026 11.3367 9.07506 11.3746 9.07178C11.402 9.06832 11.4313 9.06314 11.4587 9.05968C11.3934 9.06816 11.3265 9.0768 11.2611 9.08544ZM8.69775 9.79328C8.72524 9.78118 8.75101 9.77098 8.7785 9.76233C8.81118 9.74694 8.84213 9.73312 8.87481 9.71946C8.8162 9.74349 8.75775 9.76925 8.69775 9.79328ZM8.69775 9.79328C8.72524 9.78118 8.75101 9.77098 8.7785 9.76233C8.81118 9.74694 8.84213 9.73312 8.87481 9.71946C8.8162 9.74349 8.75775 9.76925 8.69775 9.79328ZM11.2611 9.08544C11.299 9.08026 11.3367 9.07506 11.3746 9.07178C11.402 9.06832 11.4313 9.06314 11.4587 9.05968C11.3934 9.06816 11.3265 9.0768 11.2611 9.08544ZM14.1974 9.05276C14.2249 9.05622 14.2524 9.05968 14.2799 9.06487C14.3178 9.06832 14.3555 9.07351 14.3933 9.0787C14.3282 9.06988 14.2628 9.06141 14.1974 9.05276ZM23.6027 9.07852C23.6423 9.07333 23.6834 9.06816 23.723 9.0647C23.7488 9.05951 23.7746 9.05605 23.8003 9.05259C23.735 9.06141 23.6679 9.06988 23.6027 9.07852ZM26.539 9.05968C26.5682 9.06314 26.5992 9.06833 26.6284 9.07334C26.6645 9.0768 26.6988 9.08026 26.7349 9.08544C26.6696 9.0768 26.6044 9.06816 26.539 9.05968ZM29.1214 9.71946C29.1541 9.73329 29.185 9.74694 29.2177 9.76233C29.2452 9.77098 29.271 9.78118 29.2985 9.79328C29.24 9.76925 29.1798 9.74349 29.1214 9.71946ZM29.1214 9.71946C29.1541 9.73329 29.185 9.74694 29.2177 9.76233C29.2452 9.77098 29.271 9.78118 29.2985 9.79328C29.24 9.76925 29.1798 9.74349 29.1214 9.71946ZM26.539 9.05968C26.5682 9.06314 26.5992 9.06833 26.6284 9.07334C26.6645 9.0768 26.6988 9.08026 26.7349 9.08544C26.6696 9.0768 26.6044 9.06816 26.539 9.05968ZM23.6027 9.07852C23.6423 9.07333 23.6834 9.06816 23.723 9.0647C23.7488 9.05951 23.7746 9.05605 23.8003 9.05259C23.735 9.06141 23.6679 9.06988 23.6027 9.07852ZM14.1974 9.05276C14.2249 9.05622 14.2524 9.05968 14.2799 9.06487C14.3178 9.06832 14.3555 9.07351 14.3933 9.0787C14.3282 9.06988 14.2628 9.06141 14.1974 9.05276ZM11.2611 9.08544C11.299 9.08026 11.3367 9.07506 11.3746 9.07178C11.402 9.06832 11.4313 9.06314 11.4587 9.05968C11.3934 9.06816 11.3265 9.0768 11.2611 9.08544ZM8.69775 9.79328C8.72524 9.78118 8.75101 9.77098 8.7785 9.76233C8.81118 9.74694 8.84213 9.73312 8.87481 9.71946C8.8162 9.74349 8.75775 9.76925 8.69775 9.79328ZM8.69775 9.79328C8.72524 9.78118 8.75101 9.77098 8.7785 9.76233C8.81118 9.74694 8.84213 9.73312 8.87481 9.71946C8.8162 9.74349 8.75775 9.76925 8.69775 9.79328ZM11.2611 9.08544C11.299 9.08026 11.3367 9.07506 11.3746 9.07178C11.402 9.06832 11.4313 9.06314 11.4587 9.05968C11.3934 9.06816 11.3265 9.0768 11.2611 9.08544ZM14.1974 9.05276C14.2249 9.05622 14.2524 9.05968 14.2799 9.06487C14.3178 9.06832 14.3555 9.07351 14.3933 9.0787C14.3282 9.06988 14.2628 9.06141 14.1974 9.05276ZM23.6027 9.07852C23.6423 9.07333 23.6834 9.06816 23.723 9.0647C23.7488 9.05951 23.7746 9.05605 23.8003 9.05259C23.735 9.06141 23.6679 9.06988 23.6027 9.07852ZM26.539 9.05968C26.5682 9.06314 26.5992 9.06833 26.6284 9.07334C26.6645 9.0768 26.6988 9.08026 26.7349 9.08544C26.6696 9.0768 26.6044 9.06816 26.539 9.05968ZM29.1214 9.71946C29.1541 9.73329 29.185 9.74694 29.2177 9.76233C29.2452 9.77098 29.271 9.78118 29.2985 9.79328C29.24 9.76925 29.1798 9.74349 29.1214 9.71946ZM29.1214 9.71946C29.1541 9.73329 29.185 9.74694 29.2177 9.76233C29.2452 9.77098 29.271 9.78118 29.2985 9.79328C29.24 9.76925 29.1798 9.74349 29.1214 9.71946ZM26.6284 9.07334C26.6645 9.0768 26.6988 9.08026 26.7349 9.08544C26.6696 9.0768 26.6044 9.06833 26.539 9.05968C26.5682 9.06314 26.5992 9.06815 26.6284 9.07334ZM23.723 9.0647C23.7488 9.05951 23.7746 9.05605 23.8003 9.05259C23.735 9.06141 23.6679 9.06988 23.6027 9.07852C23.6421 9.07351 23.6834 9.06816 23.723 9.0647ZM14.1974 9.05276C14.2249 9.05622 14.2524 9.05968 14.2799 9.06487C14.3178 9.06832 14.3555 9.07351 14.3933 9.0787C14.3282 9.06988 14.2628 9.06141 14.1974 9.05276ZM11.3746 9.07178C11.402 9.06832 11.4313 9.06296 11.4587 9.05951C11.3934 9.06815 11.3265 9.07662 11.2611 9.08526C11.299 9.08025 11.3367 9.07524 11.3746 9.07178ZM8.7785 9.76233C8.81118 9.74694 8.84213 9.73312 8.87481 9.71946C8.8162 9.74349 8.75775 9.76925 8.69775 9.79328C8.72524 9.78118 8.75101 9.77098 8.7785 9.76233ZM6.27512 10.3431C6.17381 10.1851 6.1515 9.94958 6.2013 9.77444C6.25628 9.57509 6.3799 9.44973 6.53983 9.33285C6.98141 9.00815 7.45895 8.74017 7.95897 8.51852C10.105 7.56326 12.5155 7.30028 14.8299 7.66457C15.0154 7.69379 15.1736 7.85182 15.2715 8.00311C15.3797 8.17151 15.3884 8.38279 15.3453 8.57176C15.3057 8.74881 15.1598 8.92396 15.0068 9.01335C14.8213 9.12158 14.639 9.11984 14.4364 9.08889C14.3849 9.08025 14.3314 9.07178 14.2799 9.06487C13.3143 8.94453 12.3385 8.95144 11.3746 9.07178C10.4847 9.19886 9.61186 9.42051 8.77867 9.7625C8.25289 9.99107 7.74942 10.2677 7.28553 10.6078C6.95201 10.8516 6.47257 10.6507 6.27512 10.3431ZM7.90899 14.5011C7.90899 12.2486 9.29218 10.4238 10.9966 10.4238C12.701 10.4238 14.0825 12.2486 14.0825 14.5011C14.0825 16.7536 12.701 18.5782 10.9966 18.5782C9.29218 18.5782 7.90899 16.7534 7.90899 14.5011ZM27.9564 26.6622C25.5271 28.5452 22.4823 29.4989 18.912 29.4989C15.3399 29.4989 12.2971 28.5454 9.86584 26.6622C9.32467 26.2429 9.22664 25.4664 9.64419 24.9251C10.0635 24.3856 10.8401 24.2859 11.3813 24.7052C13.3675 26.2446 15.9019 27.0247 18.912 27.0247C21.9206 27.0247 24.4547 26.2446 26.4427 24.7052C26.6678 24.5298 26.9341 24.4456 27.1986 24.4456C27.5679 24.4456 27.934 24.6106 28.1779 24.9251C28.5956 25.4662 28.4978 26.2429 27.9564 26.6622ZM26.3637 18.5782C24.6593 18.5782 23.2778 16.7534 23.2778 14.5011C23.2778 12.2486 24.6593 10.4238 26.3637 10.4238C28.0681 10.4238 29.4513 12.2486 29.4513 14.5011C29.4513 16.7534 28.0681 18.5782 26.3637 18.5782ZM31.7209 10.3431C31.6367 10.5029 31.4512 10.6351 31.2793 10.6816C31.1144 10.728 30.855 10.7143 30.7107 10.6078C30.2468 10.2675 29.7433 9.9909 29.2175 9.7625C28.3876 9.42051 27.5149 9.19903 26.6282 9.07351C25.6643 8.95317 24.6885 8.9447 23.7229 9.06487C23.6679 9.07178 23.6129 9.08025 23.5597 9.08889C23.3517 9.12157 23.1765 9.11294 22.991 9.01335C22.8191 8.92396 22.7092 8.75054 22.6507 8.57176C22.594 8.39472 22.6336 8.16113 22.7263 8.00311C22.8088 7.86047 22.996 7.69033 23.1661 7.66457C23.8361 7.55807 24.5115 7.4979 25.1884 7.50136C26.3378 7.50655 27.5028 7.6663 28.6076 7.98754C29.6143 8.27956 30.6092 8.70921 31.4562 9.33285C31.6194 9.45319 31.7328 9.58027 31.7947 9.77444C31.8566 9.96341 31.812 10.1712 31.7209 10.3431ZM29.1214 9.71946C29.1541 9.73329 29.185 9.74694 29.2177 9.76233C29.2452 9.77098 29.271 9.78118 29.2985 9.79328C29.24 9.76925 29.1798 9.74349 29.1214 9.71946ZM26.539 9.05968C26.5682 9.06314 26.5992 9.06833 26.6284 9.07334C26.6645 9.0768 26.6988 9.08026 26.7349 9.08544C26.6696 9.0768 26.6044 9.06816 26.539 9.05968ZM23.6027 9.07852C23.6423 9.07333 23.6834 9.06816 23.723 9.0647C23.7488 9.05951 23.7746 9.05605 23.8003 9.05259C23.735 9.06141 23.6679 9.06988 23.6027 9.07852ZM14.1974 9.05276C14.2249 9.05622 14.2524 9.05968 14.2799 9.06487C14.3178 9.06832 14.3555 9.07351 14.3933 9.0787C14.3282 9.06988 14.2628 9.06141 14.1974 9.05276ZM11.2611 9.08544C11.299 9.08026 11.3367 9.07506 11.3746 9.07178C11.402 9.06832 11.4313 9.06314 11.4587 9.05968C11.3934 9.06816 11.3265 9.0768 11.2611 9.08544ZM8.69775 9.79328C8.72524 9.78118 8.75101 9.77098 8.7785 9.76233C8.81118 9.74694 8.84213 9.73312 8.87481 9.71946C8.8162 9.74349 8.75775 9.76925 8.69775 9.79328ZM8.69775 9.79328C8.72524 9.78118 8.75101 9.77098 8.7785 9.76233C8.81118 9.74694 8.84213 9.73312 8.87481 9.71946C8.8162 9.74349 8.75775 9.76925 8.69775 9.79328ZM11.2611 9.08544C11.299 9.08026 11.3367 9.07506 11.3746 9.07178C11.402 9.06832 11.4313 9.06314 11.4587 9.05968C11.3934 9.06816 11.3265 9.0768 11.2611 9.08544ZM14.1974 9.05276C14.2249 9.05622 14.2524 9.05968 14.2799 9.06487C14.3178 9.06832 14.3555 9.07351 14.3933 9.0787C14.3282 9.06988 14.2628 9.06141 14.1974 9.05276ZM23.6027 9.07852C23.6423 9.07333 23.6834 9.06816 23.723 9.0647C23.7488 9.05951 23.7746 9.05605 23.8003 9.05259C23.735 9.06141 23.6679 9.06988 23.6027 9.07852ZM26.539 9.05968C26.5682 9.06314 26.5992 9.06833 26.6284 9.07334C26.6645 9.0768 26.6988 9.08026 26.7349 9.08544C26.6696 9.0768 26.6044 9.06816 26.539 9.05968ZM29.1214 9.71946C29.1541 9.73329 29.185 9.74694 29.2177 9.76233C29.2452 9.77098 29.271 9.78118 29.2985 9.79328C29.24 9.76925 29.1798 9.74349 29.1214 9.71946ZM29.1214 9.71946C29.1541 9.73329 29.185 9.74694 29.2177 9.76233C29.2452 9.77098 29.271 9.78118 29.2985 9.79328C29.24 9.76925 29.1798 9.74349 29.1214 9.71946ZM26.539 9.05968C26.5682 9.06314 26.5992 9.06833 26.6284 9.07334C26.6645 9.0768 26.6988 9.08026 26.7349 9.08544C26.6696 9.0768 26.6044 9.06816 26.539 9.05968ZM23.6027 9.07852C23.6423 9.07333 23.6834 9.06816 23.723 9.0647C23.7488 9.05951 23.7746 9.05605 23.8003 9.05259C23.735 9.06141 23.6679 9.06988 23.6027 9.07852ZM14.1974 9.05276C14.2249 9.05622 14.2524 9.05968 14.2799 9.06487C14.3178 9.06832 14.3555 9.07351 14.3933 9.0787C14.3282 9.06988 14.2628 9.06141 14.1974 9.05276ZM11.2611 9.08544C11.299 9.08026 11.3367 9.07506 11.3746 9.07178C11.402 9.06832 11.4313 9.06314 11.4587 9.05968C11.3934 9.06816 11.3265 9.0768 11.2611 9.08544ZM8.69775 9.79328C8.72524 9.78118 8.75101 9.77098 8.7785 9.76233C8.81118 9.74694 8.84213 9.73312 8.87481 9.71946C8.8162 9.74349 8.75775 9.76925 8.69775 9.79328ZM8.69775 9.79328C8.72524 9.78118 8.75101 9.77098 8.7785 9.76233C8.81118 9.74694 8.84213 9.73312 8.87481 9.71946C8.8162 9.74349 8.75775 9.76925 8.69775 9.79328ZM11.2611 9.08544C11.299 9.08026 11.3367 9.07506 11.3746 9.07178C11.402 9.06832 11.4313 9.06314 11.4587 9.05968C11.3934 9.06816 11.3265 9.0768 11.2611 9.08544ZM14.1974 9.05276C14.2249 9.05622 14.2524 9.05968 14.2799 9.06487C14.3178 9.06832 14.3555 9.07351 14.3933 9.0787C14.3282 9.06988 14.2628 9.06141 14.1974 9.05276ZM23.6027 9.07852C23.6423 9.07333 23.6834 9.06816 23.723 9.0647C23.7488 9.05951 23.7746 9.05605 23.8003 9.05259C23.735 9.06141 23.6679 9.06988 23.6027 9.07852ZM26.539 9.05968C26.5682 9.06314 26.5992 9.06833 26.6284 9.07334C26.6645 9.0768 26.6988 9.08026 26.7349 9.08544C26.6696 9.0768 26.6044 9.06816 26.539 9.05968ZM29.1214 9.71946C29.1541 9.73329 29.185 9.74694 29.2177 9.76233C29.2452 9.77098 29.271 9.78118 29.2985 9.79328C29.24 9.76925 29.1798 9.74349 29.1214 9.71946ZM29.1214 9.71946C29.1541 9.73329 29.185 9.74694 29.2177 9.76233C29.2452 9.77098 29.271 9.78118 29.2985 9.79328C29.24 9.76925 29.1798 9.74349 29.1214 9.71946ZM26.539 9.05968C26.5682 9.06314 26.5992 9.06833 26.6284 9.07334C26.6645 9.0768 26.6988 9.08026 26.7349 9.08544C26.6696 9.0768 26.6044 9.06816 26.539 9.05968ZM23.6027 9.07852C23.6423 9.07333 23.6834 9.06816 23.723 9.0647C23.7488 9.05951 23.7746 9.05605 23.8003 9.05259C23.735 9.06141 23.6679 9.06988 23.6027 9.07852ZM14.1974 9.05276C14.2249 9.05622 14.2524 9.05968 14.2799 9.06487C14.3178 9.06832 14.3555 9.07351 14.3933 9.0787C14.3282 9.06988 14.2628 9.06141 14.1974 9.05276ZM11.2611 9.08544C11.299 9.08026 11.3367 9.07506 11.3746 9.07178C11.402 9.06832 11.4313 9.06314 11.4587 9.05968C11.3934 9.06816 11.3265 9.0768 11.2611 9.08544ZM8.69775 9.79328C8.72524 9.78118 8.75101 9.77098 8.7785 9.76233C8.81118 9.74694 8.84213 9.73312 8.87481 9.71946C8.8162 9.74349 8.75775 9.76925 8.69775 9.79328ZM8.69775 9.79328C8.72524 9.78118 8.75101 9.77098 8.7785 9.76233C8.81118 9.74694 8.84213 9.73312 8.87481 9.71946C8.8162 9.74349 8.75775 9.76925 8.69775 9.79328ZM11.2611 9.08544C11.299 9.08026 11.3367 9.07506 11.3746 9.07178C11.402 9.06832 11.4313 9.06314 11.4587 9.05968C11.3934 9.06816 11.3265 9.0768 11.2611 9.08544ZM14.1974 9.05276C14.2249 9.05622 14.2524 9.05968 14.2799 9.06487C14.3178 9.06832 14.3555 9.07351 14.3933 9.0787C14.3282 9.06988 14.2628 9.06141 14.1974 9.05276ZM23.6027 9.07852C23.6423 9.07333 23.6834 9.06816 23.723 9.0647C23.7488 9.05951 23.7746 9.05605 23.8003 9.05259C23.735 9.06141 23.6679 9.06988 23.6027 9.07852ZM26.539 9.05968C26.5682 9.06314 26.5992 9.06833 26.6284 9.07334C26.6645 9.0768 26.6988 9.08026 26.7349 9.08544C26.6696 9.0768 26.6044 9.06816 26.539 9.05968ZM29.1214 9.71946C29.1541 9.73329 29.185 9.74694 29.2177 9.76233C29.2452 9.77098 29.271 9.78118 29.2985 9.79328C29.24 9.76925 29.1798 9.74349 29.1214 9.71946ZM29.1214 9.71946C29.1541 9.73329 29.185 9.74694 29.2177 9.76233C29.2452 9.77098 29.271 9.78118 29.2985 9.79328C29.24 9.76925 29.1798 9.74349 29.1214 9.71946ZM26.539 9.05968C26.5682 9.06314 26.5992 9.06833 26.6284 9.07334C26.6645 9.0768 26.6988 9.08026 26.7349 9.08544C26.6696 9.0768 26.6044 9.06816 26.539 9.05968ZM23.6027 9.07852C23.6423 9.07333 23.6834 9.06816 23.723 9.0647C23.7488 9.05951 23.7746 9.05605 23.8003 9.05259C23.735 9.06141 23.6679 9.06988 23.6027 9.07852ZM14.1974 9.05276C14.2249 9.05622 14.2524 9.05968 14.2799 9.06487C14.3178 9.06832 14.3555 9.07351 14.3933 9.0787C14.3282 9.06988 14.2628 9.06141 14.1974 9.05276ZM11.2611 9.08544C11.299 9.08026 11.3367 9.07506 11.3746 9.07178C11.402 9.06832 11.4313 9.06314 11.4587 9.05968C11.3934 9.06816 11.3265 9.0768 11.2611 9.08544ZM8.69775 9.79328C8.72524 9.78118 8.75101 9.77098 8.7785 9.76233C8.81118 9.74694 8.84213 9.73312 8.87481 9.71946C8.8162 9.74349 8.75775 9.76925 8.69775 9.79328ZM8.69775 9.79328C8.72524 9.78118 8.75101 9.77098 8.7785 9.76233C8.81118 9.74694 8.84213 9.73312 8.87481 9.71946C8.8162 9.74349 8.75775 9.76925 8.69775 9.79328ZM11.2611 9.08544C11.299 9.08026 11.3367 9.07506 11.3746 9.07178C11.402 9.06832 11.4313 9.06314 11.4587 9.05968C11.3934 9.06816 11.3265 9.0768 11.2611 9.08544ZM14.1974 9.05276C14.2249 9.05622 14.2524 9.05968 14.2799 9.06487C14.3178 9.06832 14.3555 9.07351 14.3933 9.0787C14.3282 9.06988 14.2628 9.06141 14.1974 9.05276ZM14.1974 9.05276C14.2249 9.05622 14.2524 9.05968 14.2799 9.06487C14.3178 9.06832 14.3555 9.07351 14.3933 9.0787C14.3282 9.06988 14.2628 9.06141 14.1974 9.05276ZM11.2611 9.08544C11.299 9.08026 11.3367 9.07506 11.3746 9.07178C11.402 9.06832 11.4313 9.06314 11.4587 9.05968C11.3934 9.06816 11.3265 9.0768 11.2611 9.08544ZM8.69775 9.79328C8.72524 9.78118 8.75101 9.77098 8.7785 9.76233C8.81118 9.74694 8.84213 9.73312 8.87481 9.71946C8.8162 9.74349 8.75775 9.76925 8.69775 9.79328Z" fill="white"/>
</svg>
