<svg width="38" height="37" viewBox="0 0 38 37" fill="none" xmlns="http://www.w3.org/2000/svg">
<rect x="0.5" width="37" height="37" rx="18.5" fill="#1BC76D"/>
<path d="M27.1769 7.23437C27.1992 7.23783 27.2215 7.24129 27.244 7.24474C27.2869 7.24993 27.3299 7.25513 27.3728 7.26014C27.3076 7.25167 27.2423 7.24302 27.1769 7.23437ZM28.9742 7.70344C28.9948 7.71209 29.0155 7.72056 29.0361 7.73093C29.0757 7.74632 29.1134 7.76188 29.1512 7.77727C29.0928 7.75324 29.0326 7.72748 28.9742 7.70344ZM29.0361 7.73093C29.0757 7.74632 29.1134 7.76188 29.1512 7.77727C29.0928 7.75324 29.0326 7.72748 28.9742 7.70344C28.9948 7.71209 29.0155 7.72056 29.0361 7.73093ZM27.244 7.24474C27.2869 7.24993 27.3299 7.25513 27.3728 7.26014C27.3076 7.25167 27.2423 7.24302 27.1769 7.23437C27.1992 7.23783 27.2215 7.24129 27.244 7.24474ZM7.28595 8.71195C7.29459 8.70504 7.30307 8.69812 7.31172 8.69138C7.32209 8.68446 7.32728 8.67772 7.3323 8.67426C7.31691 8.6829 7.27732 8.71542 7.26193 8.72925C7.26539 8.72752 7.26711 8.72406 7.27229 8.72233C7.24999 8.73944 7.22769 8.75846 7.20522 8.77558C7.13986 8.82883 7.0764 8.88382 7.01278 8.9388C6.8857 9.04876 6.76191 9.16217 6.64157 9.28078C6.40107 9.5161 6.17595 9.76525 5.9664 10.0282C5.8478 10.1778 5.62787 10.236 5.44581 10.2447C5.24819 10.2533 5.0644 10.157 4.92349 10.0282C4.78777 9.90461 4.70703 9.68796 4.70703 9.50589C4.70703 9.29461 4.79641 9.14333 4.92349 8.98357C5.2207 8.61081 5.55058 8.26191 5.90969 7.94585C6.57638 7.35645 7.32538 6.85313 8.13817 6.49057C9.01096 6.10051 9.90777 5.85483 10.8597 5.75697C11.2704 5.71409 11.5814 6.12974 11.5968 6.49576C11.6055 6.67955 11.5091 6.88927 11.3803 7.01635C11.2327 7.16591 11.0608 7.21224 10.8597 7.23282C10.8253 7.23628 10.7894 7.24147 10.755 7.24492C10.1433 7.33431 9.54364 7.49926 8.9698 7.72938C8.37001 7.98873 7.80827 8.32034 7.28595 8.71195ZM9.59345 17.6585C9.48694 17.4918 9.4629 17.2427 9.51443 17.0555C9.57287 16.8424 9.70514 16.7169 9.87354 16.5898C9.94408 16.5366 10.0145 16.4816 10.0848 16.4284C10.1363 16.3872 10.1896 16.3459 10.2428 16.3063C10.7669 15.8991 11.2858 15.4885 11.7944 15.0675C11.2515 14.6173 10.6983 14.1809 10.1415 13.7497C10.1227 13.7343 10.1037 13.7204 10.0848 13.7051C10.0145 13.6518 9.94391 13.5968 9.87354 13.5436C9.70168 13.4148 9.58151 13.284 9.51443 13.078C9.44907 12.8769 9.49731 12.6569 9.59345 12.4749C9.68283 12.3065 9.87873 12.1673 10.0608 12.1158C10.2326 12.0694 10.511 12.0814 10.6621 12.1948C11.6466 12.9422 12.6191 13.7068 13.5538 14.5144C13.8562 14.7755 13.8562 15.3562 13.5538 15.6192C12.6191 16.4268 11.6466 17.1914 10.6621 17.9388C10.4989 18.0626 10.2515 18.0608 10.0608 18.0161C9.86144 17.9711 9.69995 17.8252 9.59345 17.6585ZM28.1925 25.6306C27.873 26.5034 27.3541 27.287 26.7459 27.9879C24.8456 30.158 21.8456 31.2662 19.0004 31.2455C15.248 31.2935 11.1948 29.2662 9.80836 25.6305C9.42522 24.6133 10.4183 23.56 11.4595 23.8899C12.1966 24.1219 12.9165 24.4243 13.6501 24.6443C17.2841 25.7575 21.2306 25.706 24.8336 24.4897C25.3525 24.3144 25.8577 24.1152 26.3852 23.9381C26.7065 23.823 27.0467 23.7853 27.3885 23.9124C28.0843 24.1652 28.4432 24.9332 28.1925 25.6306ZM28.4072 17.6585C28.3179 17.8269 28.122 17.9661 27.9399 18.0159C27.768 18.064 27.4897 18.052 27.3386 17.9386C26.3541 17.1912 25.3815 16.4266 24.4469 15.619C24.1445 15.358 24.1445 14.7755 24.4469 14.5142C25.3815 13.7066 26.3541 12.9421 27.3386 12.1946C27.5018 12.0708 27.7509 12.0726 27.9399 12.1156C28.1393 12.162 28.3007 12.308 28.4072 12.4747C28.5137 12.6414 28.5378 12.8905 28.4863 13.0778C28.4278 13.2908 28.2956 13.4163 28.1271 13.5434C28.0378 13.612 27.9484 13.6809 27.8592 13.7497C27.3024 14.1809 26.7492 14.6173 26.2063 15.0675C26.7148 15.4885 27.2338 15.8991 27.7578 16.3063C27.7923 16.3321 27.8267 16.3578 27.8592 16.3836C27.9486 16.4524 28.0378 16.521 28.1271 16.5898C28.299 16.7187 28.4192 16.8494 28.4863 17.0555C28.5514 17.2564 28.5034 17.4763 28.4072 17.6585ZM33.0772 10.028C32.9536 10.1638 32.7369 10.2445 32.5566 10.2445C32.3882 10.2445 32.1442 10.1672 32.0343 10.028C31.8246 9.76524 31.5996 9.5161 31.3589 9.28061C31.2386 9.16201 31.115 9.04859 30.9879 8.93863C30.9191 8.87846 30.8505 8.82001 30.7801 8.7633C30.7663 8.75293 30.7526 8.741 30.7388 8.7289C30.7336 8.72371 30.7284 8.71853 30.7199 8.71507C30.7147 8.70988 30.7096 8.7047 30.7028 8.70141C30.7063 8.70487 30.7115 8.70833 30.7147 8.71179C30.1907 8.32346 29.634 7.99028 29.0361 7.73093C28.4605 7.49908 27.8592 7.33396 27.244 7.24474C27.2096 7.23956 27.1754 7.23593 27.1427 7.23247C26.9364 7.2119 26.7716 7.15691 26.6204 7.016C26.4743 6.88374 26.4124 6.68612 26.4039 6.49541C26.3953 6.31162 26.4915 6.10017 26.6204 5.97309C26.7407 5.85102 26.9656 5.73777 27.1427 5.75662C27.6702 5.8116 28.1942 5.90273 28.7045 6.05211C30.4089 6.55559 31.9707 7.59504 33.0772 8.98324C33.206 9.14472 33.285 9.29773 33.2937 9.50556C33.3022 9.70335 33.2077 9.88731 33.0772 10.028ZM28.9742 7.70344C28.9948 7.71209 29.0155 7.72056 29.0361 7.73093C29.0757 7.74632 29.1134 7.76188 29.1512 7.77727C29.0928 7.75324 29.0326 7.72748 28.9742 7.70344ZM27.1769 7.23437C27.1992 7.23783 27.2215 7.24129 27.244 7.24474C27.2869 7.24993 27.3299 7.25513 27.3728 7.26014C27.3076 7.25167 27.2423 7.24302 27.1769 7.23437ZM10.6277 7.26014C10.6708 7.25495 10.7121 7.24994 10.755 7.24492C10.7773 7.24147 10.8011 7.23783 10.8234 7.23437C10.7583 7.24302 10.6931 7.25167 10.6277 7.26014ZM8.84947 7.77727C8.88907 7.76015 8.92847 7.74477 8.9698 7.72938L9.02651 7.70344C8.96789 7.72748 8.90964 7.75324 8.84947 7.77727Z" fill="black"/>
</svg>
