<svg width="375" height="862" viewBox="0 0 375 862" fill="none" xmlns="http://www.w3.org/2000/svg">
<g clip-path="url(#clip0_1434_15118)">
<rect width="375" height="862" fill="white"/>
<rect y="108" width="375" height="104" fill="url(#paint0_linear_1434_15118)"/>
<path d="M210.913 159.86C125.266 192.675 50.453 88.3121 -21.2638 121.665C-64.0876 132.424 -150.561 155.126 -153.863 159.86C-157.165 164.594 -99.8307 273.174 -101.035 324.997C-101.035 324.997 -240.5 839 176.814 839C573 839 444.095 324.997 444.095 324.997C487.435 269.229 592.302 247.223 543.184 183.53C481.786 103.913 296.56 127.045 210.913 159.86Z" fill="#00A0F0" fill-opacity="0.15"/>
<path d="M262.004 181.464C173.025 198.629 95.3029 144.041 20.7966 161.486C-23.6928 167.114 -113.529 178.988 -116.96 181.464C-120.39 183.941 -123.749 238.773 -125 265.879L535.909 323C580.934 293.83 658.228 227.161 607.199 193.845C543.413 152.201 350.983 164.3 262.004 181.464Z" fill="#00A0F0" fill-opacity="0.2"/>
</g>
<defs>
<linearGradient id="paint0_linear_1434_15118" x1="187.5" y1="108" x2="187.5" y2="212" gradientUnits="userSpaceOnUse">
<stop stop-color="#00A0F0" stop-opacity="0"/>
<stop offset="1" stop-color="white"/>
</linearGradient>
<clipPath id="clip0_1434_15118">
<rect width="375" height="862" fill="white"/>
</clipPath>
</defs>
</svg>
