<svg width="70" height="70" viewBox="0 0 70 70" fill="none" xmlns="http://www.w3.org/2000/svg">
<path d="M49.1741 27.1137C44.7177 20.2109 38.81 14.2478 34.9886 6.98682C31.1671 14.2478 25.2594 20.2109 20.803 27.1137C16.2236 34.207 13.2058 43.2717 16.4856 51.0518C18.7233 56.36 23.6887 60.2491 29.1958 61.9391C31.0825 62.518 33.0258 62.8534 34.9885 62.9906C36.9512 62.8534 38.8946 62.5181 40.7813 61.9391C46.2884 60.2491 51.2538 56.36 53.4915 51.0518C56.7712 43.2717 53.7535 34.207 49.1741 27.1137Z" fill="#E73243"/>
<path d="M49.1738 27.1137C49.1461 27.0707 49.1183 27.0278 49.0904 26.9849C49.0699 26.9534 49.0494 26.9219 49.0289 26.8904L49.0058 26.8549C48.9931 26.8354 48.9804 26.8159 48.9676 26.7965C48.9568 26.7799 48.9459 26.7634 48.935 26.7468C48.9113 26.7106 48.8875 26.6744 48.8636 26.6382C48.8526 26.6214 48.8415 26.6048 48.8305 26.588C48.8063 26.5514 48.7821 26.5148 48.7578 26.4782L48.7304 26.437C48.7037 26.3968 48.677 26.3567 48.6502 26.3166L48.6309 26.2876C48.6011 26.243 48.5712 26.1984 48.5412 26.1539L48.5302 26.1376C48.4978 26.0894 48.4653 26.0412 48.4328 25.9931L48.4255 25.9823C44.2775 19.8511 39.1137 14.3801 35.5115 7.93896L35.5152 7.95688C36.3208 11.8762 37.5608 15.6933 39.4537 19.2186C42.0509 24.0556 45.3469 28.4741 46.9637 33.7785C48.8874 40.0898 50.2039 50.6749 42.7212 53.9866C40.7544 54.8571 38.5503 55.0214 36.4289 54.8133C34.4065 54.615 32.2019 54.0562 30.7715 52.5088C28.3843 49.9264 29.2098 46.1251 29.5291 42.9782C29.6631 41.6569 29.8428 40.0669 29.2209 38.8347C28.6617 37.7267 27.2886 37.0737 26.1057 37.5448C24.776 38.0743 23.7987 39.4343 22.9463 40.519C21.9637 41.7694 21.0441 43.1163 19.7913 44.1175C18.1168 45.4556 16.4639 45.2449 15.1084 44.2951C15.1381 46.2034 15.4337 48.0917 16.0549 49.9195L16.056 49.9227C16.0791 49.9907 16.1027 50.0587 16.1267 50.1265C16.1508 50.1944 16.1753 50.2621 16.2002 50.3298L16.2084 50.3519C16.218 50.3776 16.2275 50.4033 16.2371 50.4289L16.248 50.4576C16.2564 50.48 16.2649 50.5023 16.2734 50.5246L16.2879 50.5622C16.2959 50.5828 16.3038 50.6033 16.3118 50.6238L16.3258 50.6598C16.3339 50.6803 16.342 50.7008 16.3502 50.7213L16.3657 50.7603C16.3736 50.7801 16.3816 50.7999 16.3896 50.8196L16.4049 50.8576C16.4139 50.8797 16.423 50.9019 16.4322 50.924L16.4447 50.9546C16.4582 50.9871 16.4717 51.0195 16.4854 51.0519C16.5203 51.1348 16.556 51.2174 16.5923 51.2997C16.6648 51.4641 16.74 51.6272 16.8178 51.7889C16.8567 51.8698 16.8962 51.9502 16.9363 52.0303C17.0769 52.3108 17.2253 52.5868 17.3809 52.8583C17.4254 52.9359 17.4705 53.0131 17.5162 53.0899C17.5619 53.1668 17.6081 53.2432 17.655 53.3193C17.7722 53.5095 17.893 53.6974 18.0173 53.8829C18.1168 54.0313 18.2186 54.1782 18.3225 54.3235C18.3745 54.3962 18.427 54.4684 18.4801 54.5403C18.5066 54.5763 18.5333 54.6121 18.5601 54.6478C18.6136 54.7193 18.6678 54.7904 18.7225 54.8611C18.8865 55.0732 19.0553 55.2817 19.2286 55.4866C19.2863 55.5549 19.3446 55.6228 19.4033 55.6903C19.5209 55.8253 19.6404 55.9586 19.7618 56.0903C19.8225 56.1561 19.8837 56.2216 19.9454 56.2866C20.007 56.3516 20.0691 56.4162 20.1317 56.4804C20.1943 56.5445 20.2574 56.6083 20.3209 56.6716C20.4161 56.7666 20.5124 56.8607 20.6097 56.9538C20.7718 57.109 20.9366 57.2614 21.1042 57.4112C21.2382 57.531 21.3738 57.6491 21.5111 57.7654C21.5797 57.8236 21.6488 57.8813 21.7182 57.9386C21.753 57.9672 21.7878 57.9957 21.8227 58.0241C21.9275 58.1094 22.0331 58.1936 22.1395 58.2769C22.2815 58.3879 22.425 58.4971 22.5699 58.6044C22.6424 58.6581 22.7152 58.7113 22.7884 58.7641C23.1177 59.0016 23.4542 59.2298 23.797 59.4485C23.9875 59.5699 24.18 59.6885 24.3743 59.804C24.5297 59.8964 24.6863 59.9869 24.8441 60.0755C24.923 60.1198 25.0021 60.1636 25.0815 60.2069C25.2006 60.2719 25.3203 60.3357 25.4406 60.3985C25.5208 60.4404 25.6013 60.4817 25.682 60.5225C26.812 61.0945 27.9907 61.5694 29.1954 61.9391C31.0822 62.5181 33.0255 62.8534 34.9882 62.9906C36.9508 62.8534 38.8942 62.5181 40.781 61.9391C41.9856 61.5694 43.1644 61.0945 44.2943 60.5225C44.375 60.4817 44.4555 60.4404 44.5357 60.3985C44.656 60.3357 44.7758 60.2719 44.8949 60.2069C44.9743 60.1636 45.0534 60.1198 45.1323 60.0755C45.29 59.9869 45.4467 59.8964 45.6021 59.804C45.7964 59.6885 45.9888 59.5699 46.1793 59.4485C46.5222 59.2298 46.8587 59.0016 47.188 58.7641C47.2612 58.7114 47.334 58.6581 47.4065 58.6044C47.5514 58.4971 47.6949 58.3879 47.8369 58.2769C47.9434 58.1937 48.049 58.1094 48.1538 58.0241C48.1886 57.9957 48.2235 57.9672 48.2582 57.9386C48.3277 57.8813 48.3967 57.8236 48.4653 57.7654C48.6027 57.6491 48.7383 57.531 48.8723 57.4112C49.0398 57.2614 49.2046 57.1089 49.3668 56.9538C49.464 56.8607 49.5603 56.7666 49.6556 56.6716C49.7191 56.6083 49.7821 56.5445 49.8447 56.4804C49.9073 56.4162 49.9694 56.3516 50.0311 56.2866C50.0927 56.2216 50.1539 56.1561 50.2146 56.0903C50.336 55.9586 50.4555 55.8253 50.5731 55.6903C50.6318 55.6228 50.6901 55.5549 50.7478 55.4866C50.9211 55.2817 51.0899 55.0732 51.2539 54.8611C51.3086 54.7904 51.3627 54.7193 51.4163 54.6478C51.4432 54.6121 51.4698 54.5763 51.4964 54.5403C51.5494 54.4684 51.602 54.3962 51.6539 54.3235C51.7579 54.1782 51.8596 54.0313 51.9591 53.8829C52.0835 53.6974 52.2044 53.5095 52.3215 53.3193C52.3683 53.2432 52.4146 53.1668 52.4603 53.0899C52.506 53.0131 52.5511 52.9359 52.5955 52.8583C52.7513 52.5868 52.8995 52.3107 53.0401 52.0303C53.0802 51.9502 53.1198 51.8697 53.1587 51.7889C53.2364 51.6272 53.3117 51.4641 53.3842 51.2997C53.4205 51.2174 53.4561 51.1348 53.4911 51.0519C56.771 43.2717 53.7532 34.207 49.1738 27.1137Z" fill="#D22132"/>
<path d="M49.1742 27.1137C49.1465 27.0708 49.1187 27.0278 49.0908 26.985C49.0703 26.9534 49.0498 26.9219 49.0292 26.8904L49.0062 26.855C48.2171 25.6467 47.3841 24.467 46.5278 23.3027C49.007 27.3824 51.3443 31.6326 52.2901 36.336C53.8786 44.2359 51.8504 53.5864 44.7482 58.2052C39.4582 61.6455 31.4631 62.6676 27.1734 57.1268C25.5667 55.0515 25.4781 52.6591 24.8835 50.1975C24.6822 49.3642 24.4169 47.839 23.5877 47.3533C22.6849 46.8244 21.4431 48.0004 20.9137 48.6037C19.8422 49.8248 18.8469 51.1996 17.016 50.9673C16.8084 50.9409 16.6047 50.8998 16.4053 50.846C16.433 50.9144 16.457 50.9836 16.4858 51.0518C16.5208 51.1347 16.5564 51.2173 16.5927 51.2996C16.6652 51.464 16.7405 51.6271 16.8182 51.7888C16.8571 51.8697 16.8966 51.9501 16.9368 52.0302C17.0774 52.3107 17.2257 52.5867 17.3813 52.8582C17.4258 52.9358 17.4709 53.013 17.5166 53.0898C17.5623 53.1667 17.6085 53.2431 17.6554 53.3192C17.7726 53.5094 17.8934 53.6973 18.0177 53.8828C18.1172 54.0312 18.219 54.1781 18.3229 54.3234C18.3749 54.3961 18.4274 54.4683 18.4805 54.5402C18.5071 54.5762 18.5337 54.612 18.5605 54.6477C18.6141 54.7192 18.6682 54.7903 18.7229 54.861C18.8869 55.0731 19.0557 55.2816 19.229 55.4865C19.2867 55.5548 19.345 55.6227 19.4038 55.6902C19.5213 55.8252 19.6408 55.9585 19.7622 56.0902C19.8229 56.156 19.8841 56.2215 19.9458 56.2865C20.0074 56.3515 20.0696 56.4161 20.1322 56.4803C20.1947 56.5444 20.2578 56.6082 20.3213 56.6715C20.4165 56.7665 20.5128 56.8606 20.6101 56.9537C20.7722 57.1089 20.9371 57.2613 21.1046 57.4111C21.2386 57.5309 21.3742 57.649 21.5115 57.7653C21.5801 57.8235 21.6492 57.8812 21.7186 57.9385C21.7534 57.9671 21.7882 57.9956 21.8231 58.024C21.9279 58.1093 22.0335 58.1935 22.14 58.2768C22.2819 58.3878 22.4254 58.497 22.5704 58.6043C22.6428 58.658 22.7157 58.7112 22.7888 58.764C23.1181 59.0015 23.4546 59.2297 23.7975 59.4484C23.988 59.5698 24.1804 59.6884 24.3747 59.8039C24.5301 59.8963 24.6867 59.9868 24.8445 60.0754C24.9234 60.1197 25.0025 60.1635 25.0819 60.2068C25.201 60.2718 25.3207 60.3356 25.441 60.3984C25.5212 60.4403 25.6017 60.4816 25.6824 60.5224C26.8124 61.0944 27.9911 61.5693 29.1958 61.939C31.0826 62.518 33.0259 62.8533 34.9886 62.9905C36.9513 62.8533 38.8946 62.518 40.7814 61.939C41.986 61.5693 43.1648 61.0944 44.2947 60.5224C44.3754 60.4816 44.4559 60.4403 44.5361 60.3984C44.6564 60.3356 44.7762 60.2718 44.8953 60.2068C44.9747 60.1635 45.0538 60.1197 45.1327 60.0754C45.2904 59.9868 45.447 59.8963 45.6025 59.8039C45.7968 59.6884 45.9892 59.5698 46.1797 59.4484C46.5226 59.2297 46.8591 59.0015 47.1884 58.764C47.2616 58.7113 47.3344 58.658 47.4069 58.6043C47.5518 58.497 47.6953 58.3878 47.8373 58.2768C47.9438 58.1936 48.0494 58.1093 48.1542 58.024C48.189 57.9956 48.2239 57.9671 48.2586 57.9385C48.3281 57.8812 48.3971 57.8235 48.4657 57.7653C48.6031 57.649 48.7387 57.5309 48.8727 57.4111C49.0402 57.2613 49.205 57.1088 49.3672 56.9537C49.4644 56.8606 49.5607 56.7665 49.6559 56.6715C49.7195 56.6082 49.7825 56.5444 49.8451 56.4803C49.9076 56.4161 49.9698 56.3515 50.0315 56.2865C50.0931 56.2215 50.1543 56.156 50.215 56.0902C50.3364 55.9585 50.4559 55.8252 50.5735 55.6902C50.6322 55.6227 50.6905 55.5548 50.7482 55.4865C50.9215 55.2816 51.0903 55.0731 51.2543 54.861C51.309 54.7903 51.3631 54.7192 51.4167 54.6477C51.4436 54.612 51.4702 54.5762 51.4968 54.5402C51.5498 54.4683 51.6024 54.3961 51.6543 54.3234C51.7583 54.1781 51.86 54.0312 51.9595 53.8828C52.0839 53.6973 52.2048 53.5094 52.3219 53.3192C52.3687 53.2431 52.415 53.1667 52.4607 53.0898C52.5064 53.013 52.5515 52.9358 52.5959 52.8582C52.7517 52.5867 52.8999 52.3106 53.0405 52.0302C53.0806 51.9501 53.1202 51.8696 53.1591 51.7888C53.2368 51.6271 53.312 51.464 53.3846 51.2996C53.4209 51.2173 53.4565 51.1347 53.4915 51.0518C56.7713 43.2717 53.7536 34.2071 49.1742 27.1137Z" fill="#B81824"/>
<path d="M18.9109 40.4697C19.843 41.0244 21.0043 40.2615 21.7195 39.446C22.7518 38.2687 23.5475 36.897 24.6059 35.7431C25.6642 34.5892 27.0943 33.6328 28.6597 33.6656C30.3734 33.7015 31.892 34.9553 32.6469 36.4942C33.4017 38.0331 33.5077 39.8106 33.4051 41.5216C33.3026 43.2326 33.0059 44.9325 33.0097 46.6466C33.0128 48.0616 33.2976 49.6166 34.3959 50.509C35.3976 51.3229 36.8779 51.3615 38.0625 50.8491C39.2471 50.3366 40.1704 49.3544 40.8945 48.2859C42.7628 45.5292 43.482 42.0187 42.8482 38.7494C42.5597 37.2605 41.9905 35.8055 41.0425 34.6217C40.0945 33.4378 38.7461 32.5422 37.2491 32.2988C35.7733 32.0588 33.9831 32.3415 33.0343 31.1858C32.2156 30.1887 32.557 28.7142 32.9399 27.4822C33.3602 26.1298 33.7805 24.7774 34.2008 23.425C34.5345 22.3513 34.8722 21.2391 34.7441 20.122C34.616 19.005 33.892 17.8744 32.7923 17.64C30.1927 17.0855 28.4827 20.069 27.1632 21.7821C25.4021 24.0687 23.7214 26.4174 22.1255 28.8222C22.0206 28.9804 21.9146 29.1391 21.8083 29.2986C19.9717 32.05 17.9857 34.9933 18.0545 38.4208C18.07 39.1949 18.2456 40.0739 18.9109 40.4697Z" fill="#EB5B5D"/>
<path d="M25.04 32.9433C25.9056 32.5211 26.6222 31.7609 27.2716 31.0666C29.0705 29.1433 30.632 26.9379 31.8554 24.6081C32.3477 23.6706 33.8155 21.4984 32.5821 20.5851C31.952 20.1186 30.9451 20.4208 30.3396 20.7755C30.229 20.8402 30.1199 20.909 30.0123 20.9812C29.0324 21.6391 28.1759 22.5872 27.4314 23.472C25.5958 25.6536 23.604 28.4229 23.1773 31.3225C22.986 32.6227 23.7975 33.5492 25.04 32.9433Z" fill="white"/>
</svg>
