<svg width="74" height="24" viewBox="0 0 74 24" fill="none" xmlns="http://www.w3.org/2000/svg">
<path d="M57.8256 22.32C57.6386 22.325 57.4752 22.2049 57.4428 22.0365L55.1055 9.91619L54.2721 13.0377C54.232 13.1884 54.086 13.2954 53.9162 13.2997L50.0484 13.4007C49.8755 13.4053 49.7214 13.3021 49.6743 13.1509L49.0417 11.1039L47.4007 17.0413C47.3572 17.1992 47.1973 17.3059 47.0173 17.3004C46.8382 17.2931 46.6899 17.1719 46.6618 17.011L44.4743 4.33122L43.1543 22.3927C43.1418 22.5658 42.9884 22.7027 42.7978 22.7123C42.6076 22.7231 42.4391 22.5998 42.4061 22.4291L40.0684 10.3088L39.235 13.4306C39.1949 13.5807 39.0489 13.688 38.8791 13.692L34.9748 13.7941C34.8015 13.7988 34.6475 13.6958 34.6004 13.5443L33.9674 11.4973L32.3265 17.4348C32.2829 17.5927 32.1247 17.6997 31.9434 17.6939C31.764 17.6866 31.6157 17.5653 31.5878 17.4042L29.4004 4.72439L28.0801 22.7862C28.0676 22.9592 27.9145 23.0962 27.7239 23.1058C27.7204 23.1061 27.7172 23.1061 27.7146 23.1061C27.5275 23.111 27.3639 22.9909 27.3318 22.8226L24.9945 10.702L24.1611 13.8238C24.1207 13.9741 23.975 14.0814 23.8049 14.0855L19.8974 14.1876C19.7241 14.1922 19.57 14.0893 19.5233 13.9378L18.8903 11.8911L17.2493 17.8282C17.2058 17.9861 17.0463 18.0929 16.8663 18.0873C16.6869 18.0801 16.5383 17.9588 16.5107 17.798L14.3233 5.11844L13.0033 23.1797C12.9905 23.3527 12.8374 23.4897 12.6468 23.4993C12.6433 23.4996 12.6404 23.4999 12.6375 23.4999C12.4504 23.5048 12.2871 23.3844 12.255 23.2163L9.91739 11.096L9.08297 14.2184C9.04261 14.3685 8.89687 14.4758 8.72711 14.4798L0.38808 14.698C0.180197 14.7035 0.00594676 14.5543 0.000181131 14.365C-0.00622513 14.176 0.158096 14.018 0.36694 14.0125L8.41736 13.8023L9.60957 9.33719C9.65153 9.17929 9.81264 9.06849 9.98882 9.07547C10.1676 9.0807 10.3175 9.19906 10.3482 9.35871L12.4571 20.294L13.7945 2.0001C13.8073 1.82562 13.9617 1.68806 14.1545 1.67992C14.3435 1.67207 14.5142 1.79712 14.5443 1.96957L16.9691 16.0272L18.5037 10.4737C18.5453 10.3225 18.6908 10.2198 18.8647 10.214C19.0357 10.2117 19.1872 10.3146 19.233 10.4641L20.1703 13.4955L23.4948 13.4085L24.6873 8.94344C24.7299 8.78582 24.8869 8.67502 25.0666 8.682C25.2456 8.68724 25.3952 8.8056 25.4263 8.96525L27.5349 19.9002L28.8722 1.60664C28.8847 1.43186 29.0397 1.2946 29.2319 1.28646C29.4344 1.27802 29.592 1.40365 29.6218 1.5761L32.0472 15.6335L33.5818 10.0799C33.6234 9.92899 33.7807 9.82575 33.9428 9.82052C34.1138 9.81819 34.265 9.92114 34.3111 10.0703L35.248 13.102L38.5697 13.015L39.7616 8.54998C39.8039 8.39207 39.9611 8.28156 40.1411 8.28854C40.3199 8.29377 40.4695 8.41213 40.5005 8.57179L42.6095 19.5071L43.9468 1.21317C43.9593 1.0384 44.1143 0.901137 44.3068 0.892994C44.5012 0.884852 44.6665 1.01019 44.6963 1.18264L47.1211 15.24L48.6563 9.68645C48.6977 9.53553 48.8492 9.43258 49.017 9.42705C49.1881 9.42473 49.3396 9.52738 49.3854 9.67686L50.3226 12.7085L53.6071 12.6225L54.799 8.15739C54.8409 7.99919 55.0024 7.88868 55.1782 7.89566C55.3573 7.90118 55.5069 8.01954 55.5379 8.1792L57.6469 19.1142L58.9842 0.820292C58.9967 0.645807 59.1517 0.508545 59.3442 0.500402C59.5444 0.491969 59.7036 0.617017 59.7337 0.789757L62.1585 14.8471L63.6937 9.29357C63.7351 9.14264 63.8747 9.03999 64.0544 9.03446C64.2255 9.03214 64.377 9.13479 64.4228 9.28427L65.36 12.3157L73.6116 12.1002C73.8198 12.0946 73.9937 12.2438 73.9998 12.4331C74.0062 12.6225 73.8416 12.7798 73.6331 12.7856L65.0865 13.0089C64.9138 13.0133 64.7594 12.9101 64.7123 12.7588L64.0797 10.7121L62.4388 16.6493C62.3949 16.8075 62.2386 16.9139 62.0554 16.9084C61.8763 16.9011 61.7277 16.7801 61.6998 16.619L59.5124 3.9395L58.1924 22.0007C58.1799 22.1738 58.0265 22.311 57.8359 22.3203C57.8317 22.32 57.8282 22.32 57.8256 22.32Z" fill="#0072BC"/>
</svg>
