<svg width="162" height="38" viewBox="0 0 162 38" fill="none" xmlns="http://www.w3.org/2000/svg">
<path d="M30.7077 5.4729C25.3164 5.4729 20.9443 9.84492 20.9443 15.2362C20.9443 20.6276 25.3164 24.9996 30.7077 24.9996C32.6302 24.9996 34.4242 24.4413 35.9359 23.4816V25.0278H40.471V14.5431H40.4428C40.0853 9.47484 35.8638 5.47604 30.7077 5.47604V5.4729ZM30.7077 20.4645C27.8254 20.4645 25.4794 18.1185 25.4794 15.2362C25.4794 12.354 27.8254 10.008 30.7077 10.008C33.59 10.008 35.9359 12.354 35.9359 15.2362C35.9359 18.1185 33.59 20.4645 30.7077 20.4645Z" fill="#00A0F0"/>
<path d="M54.4777 10.008C55.9518 10.008 57.2816 10.6227 58.235 11.6044L62.8297 10.1774C61.1173 7.35782 58.0186 5.4729 54.4777 5.4729C49.0864 5.4729 44.7144 9.84492 44.7144 15.2362C44.7144 20.6276 49.0864 24.9996 54.4777 24.9996C58.0186 24.9996 61.1173 23.1147 62.8297 20.2951L58.235 18.8681C57.2847 19.8529 55.9518 20.4645 54.4777 20.4645C51.5954 20.4645 49.2495 18.1185 49.2495 15.2362C49.2495 12.354 51.5954 10.008 54.4777 10.008Z" fill="#00A0F0"/>
<path d="M76.5385 5.4729C71.1472 5.4729 66.7751 9.84492 66.7751 15.2362C66.7751 20.6276 71.1472 24.9996 76.5385 24.9996C80.346 24.9996 83.6422 22.8198 85.2512 19.6396L81.1802 18.3757C80.1703 19.8623 78.4673 20.844 76.5385 20.844C73.7754 20.844 71.4765 18.8367 71.0186 16.2022H82.0615C82.0615 16.2022 82.0615 16.2116 82.0615 16.2179H86.2579C86.2893 15.8949 86.3081 15.5687 86.3081 15.2394C86.3081 9.84806 81.9361 5.47604 76.5448 5.47604L76.5385 5.4729ZM71.489 12.7993C72.3986 10.9269 74.318 9.63165 76.5354 9.63165C78.7527 9.63165 80.6753 10.9269 81.5817 12.7993H71.4859H71.489Z" fill="#00A0F0"/>
<path d="M110.248 7.28247H105.713V24.9995H110.248V7.28247Z" fill="#00A0F0"/>
<path d="M107.98 5.56382C109.517 5.56382 110.762 4.31832 110.762 2.78191C110.762 1.2455 109.517 0 107.98 0C106.444 0 105.198 1.2455 105.198 2.78191C105.198 4.31832 106.444 5.56382 107.98 5.56382Z" fill="#00A0F0"/>
<path d="M95.0837 19.969C93.5469 19.969 92.3018 21.2141 92.3018 22.7509C92.3018 24.2877 93.5469 25.5328 95.0837 25.5328C96.6205 25.5328 97.8656 24.2877 97.8656 22.7509C97.8656 21.2141 96.6205 19.969 95.0837 19.969Z" fill="#00A0F0"/>
<path d="M127.347 5.4729C121.956 5.4729 117.583 9.84492 117.583 15.2362V24.9996H122.119V15.2362C122.119 12.354 124.465 10.008 127.347 10.008C130.229 10.008 132.575 12.354 132.575 15.2362V24.9996H137.11V15.2362C137.11 9.84492 132.738 5.4729 127.347 5.4729Z" fill="#00A0F0"/>
<path d="M161.975 14.5149C161.787 11.9493 160.611 9.6567 158.823 8.02269C158.801 8.00387 158.782 7.98505 158.76 7.96623C158.13 7.4017 157.427 6.9187 156.665 6.5298C156.603 6.49844 156.54 6.46394 156.474 6.43257C155.194 5.81472 153.758 5.46973 152.24 5.46973C151.566 5.46973 150.907 5.53873 150.273 5.66731C149.32 5.86177 148.417 6.19735 147.589 6.64584C147.313 6.79639 147.043 6.95948 146.783 7.13511C146.522 7.31074 146.271 7.49892 146.03 7.69651C145.789 7.8941 145.556 8.10423 145.337 8.32691C145.004 8.65936 144.697 9.01376 144.418 9.39012C144.23 9.64102 144.054 9.90134 143.891 10.1679C142.994 11.6451 142.477 13.3764 142.477 15.2299C142.477 16.1583 142.608 17.0521 142.85 17.9052C143.076 18.6987 143.399 19.4483 143.803 20.1445C143.882 20.2825 143.966 20.4143 144.051 20.5491C144.107 20.6338 144.164 20.7185 144.22 20.8032C144.374 21.0227 144.534 21.2391 144.703 21.443C144.854 21.6249 145.014 21.8005 145.177 21.9699C145.337 22.1392 145.503 22.3023 145.672 22.4591C146.021 22.7728 146.388 23.0644 146.78 23.3279C146.855 23.3781 146.933 23.4283 147.012 23.4753C147.2 23.5945 147.391 23.7105 147.586 23.8172C148.417 24.2688 149.317 24.6012 150.27 24.7957C150.568 24.8553 150.869 24.9023 151.177 24.9368C151.525 24.9745 151.879 24.9964 152.237 24.9964C153.755 24.9964 155.188 24.6514 156.471 24.0336C156.534 24.0022 156.596 23.9677 156.662 23.9363C156.938 23.7952 157.208 23.6415 157.468 23.4784V27.6717C157.468 30.554 155.122 32.8999 152.24 32.8999C149.988 32.8999 148.062 31.4698 147.328 29.4688H142.643C143.486 34.0039 147.46 37.435 152.237 37.435C157.628 37.435 162 33.063 162 27.6717V15.2362V14.5149H161.972H161.975ZM152.24 10.008C154.1 10.008 155.737 10.9865 156.662 12.4543C157.17 13.2603 157.468 14.2138 157.468 15.2362C157.468 15.5812 157.434 15.9199 157.368 16.2492C157.252 16.8451 157.032 17.4065 156.728 17.9115C156.706 17.9491 156.684 17.9836 156.659 18.0213C155.734 19.489 154.097 20.4676 152.237 20.4676C150.377 20.4676 148.661 19.442 147.746 17.9146C147.444 17.4097 147.225 16.8483 147.106 16.2524C147.04 15.9231 147.005 15.5875 147.005 15.2393C147.005 12.3571 149.351 10.0111 152.234 10.0111L152.24 10.008Z" fill="#00A0F0"/>
<path d="M8.559 5.32549H16.1332V0.655518H8.559C3.83885 0.655518 0 4.4975 0 9.21452V25.0215H4.66997V16.8828H13.8939V12.194H4.66997V9.21452C4.66997 7.06928 6.41376 5.32549 8.559 5.32549Z" fill="#00A0F0"/>
</svg>
