<svg width="20" height="20" viewBox="0 0 20 20" fill="none" xmlns="http://www.w3.org/2000/svg">
<g clip-path="url(#clip0_48_729)">
<path d="M19.3745 9.37533H11.458C11.113 9.37533 10.833 9.09534 10.833 8.75035C10.833 8.40536 11.113 8.12537 11.458 8.12537H19.3745C19.7194 8.12537 19.9994 8.40536 19.9994 8.75035C19.9994 9.09534 19.7194 9.37533 19.3745 9.37533Z" fill="#484848"/>
<path d="M16.2495 12.5003C16.1674 12.5005 16.0861 12.4844 16.0103 12.453C15.9344 12.4215 15.8656 12.3753 15.8077 12.3171C15.5636 12.0728 15.5636 11.677 15.8077 11.4329L18.4911 8.74968L15.8077 6.06636C15.5636 5.82223 15.5636 5.42642 15.8077 5.18229C16.052 4.938 16.4478 4.938 16.692 5.18229L19.8169 8.30719C20.061 8.55132 20.061 8.94713 19.8169 9.19126L16.692 12.3162C16.6341 12.3747 16.5652 12.4211 16.4892 12.4527C16.4133 12.4843 16.3318 12.5005 16.2495 12.5003ZM6.66651 20.0001C6.48816 20.0001 6.31894 19.9751 6.14985 19.9226L1.13493 18.2518C0.452525 18.0134 0 17.3776 0 16.6669V1.6674C0 0.748248 0.747516 0.000732422 1.66667 0.000732422C1.84486 0.000732422 2.01412 0.0257316 2.18333 0.07823L7.1981 1.74904C7.88061 1.98735 8.33302 2.62319 8.33302 3.33391V18.3334C8.33302 19.2526 7.58566 20.0001 6.66651 20.0001ZM1.66667 1.25069C1.43749 1.25069 1.24996 1.43819 1.24996 1.6674V16.6669C1.24996 16.8444 1.3691 17.0093 1.53909 17.0685L6.53054 18.7318C6.5664 18.7434 6.61311 18.7501 6.66651 18.7501C6.89568 18.7501 7.08306 18.5626 7.08306 18.3334V3.33391C7.08306 3.15645 6.96392 2.9915 6.79393 2.93232L1.80248 1.26901C1.76662 1.25741 1.71991 1.25069 1.66667 1.25069Z" fill="#484848"/>
<path d="M12.7082 6.66712C12.3632 6.66712 12.0832 6.38713 12.0832 6.04214V2.29226C12.0832 1.71806 11.6158 1.25057 11.0417 1.25057H1.66697C1.32198 1.25057 1.04199 0.97058 1.04199 0.625591C1.04199 0.280602 1.32198 0.000610352 1.66697 0.000610352H11.0417C12.3058 0.000610352 13.3332 1.02812 13.3332 2.29226V6.04214C13.3332 6.38713 13.0532 6.66712 12.7082 6.66712ZM11.0417 17.5001H7.70835C7.36336 17.5001 7.08337 17.2201 7.08337 16.8751C7.08337 16.5301 7.36336 16.2501 7.70835 16.2501H11.0417C11.6159 16.2501 12.0832 15.7826 12.0832 15.2084V11.4585C12.0832 11.1135 12.3632 10.8336 12.7082 10.8336C13.0532 10.8336 13.3332 11.1135 13.3332 11.4585V15.2084C13.3332 16.4726 12.3059 17.5001 11.0417 17.5001Z" fill="#484848"/>
</g>
<defs>
<clipPath id="clip0_48_729">
<rect width="20" height="20" fill="white"/>
</clipPath>
</defs>
</svg>
