<svg width="37" height="38" viewBox="0 0 37 38" fill="none" xmlns="http://www.w3.org/2000/svg">
<rect y="0.5" width="37" height="37" rx="18.5" fill="#FA704E"/>
<path d="M7.15008 9.68009C7.17411 9.67663 7.19642 9.67318 7.22045 9.67145C7.2616 9.66453 7.30465 9.65761 7.34753 9.6526C7.28062 9.66124 7.21526 9.66972 7.15008 9.68009ZM9.06579 9.65605C9.10694 9.66124 9.14826 9.66815 9.18941 9.6749C9.21344 9.67663 9.23747 9.68008 9.2615 9.68354C9.19632 9.67489 9.13114 9.66452 9.06579 9.65605ZM9.06579 9.65605C9.10694 9.66124 9.14826 9.66815 9.18941 9.6749C9.21344 9.67663 9.23747 9.68008 9.2615 9.68354C9.19632 9.67489 9.13114 9.66452 9.06579 9.65605ZM7.15008 9.68009C7.17411 9.67663 7.19642 9.67318 7.22045 9.67145C7.2616 9.66453 7.30465 9.65761 7.34753 9.6526C7.28062 9.66124 7.21526 9.66972 7.15008 9.68009ZM7.15008 9.68009C7.17411 9.67663 7.19642 9.67318 7.22045 9.67145C7.2616 9.66453 7.30465 9.65761 7.34753 9.6526C7.28062 9.66124 7.21526 9.66972 7.15008 9.68009ZM9.06579 9.65605C9.10694 9.66124 9.14826 9.66815 9.18941 9.6749C9.21344 9.67663 9.23747 9.68008 9.2615 9.68354C9.19632 9.67489 9.13114 9.66452 9.06579 9.65605ZM9.18941 9.6749C9.21344 9.67663 9.23747 9.68008 9.2615 9.68354C9.19615 9.67489 9.13097 9.66469 9.06561 9.65605C9.10693 9.66124 9.14826 9.66798 9.18941 9.6749ZM7.22045 9.67145C7.2616 9.66453 7.30465 9.65761 7.34753 9.6526C7.28045 9.66124 7.21544 9.66972 7.15008 9.68009C7.17429 9.67663 7.19642 9.67318 7.22045 9.67145ZM7.41635 13.6851C7.41635 11.8174 8.36641 10.2436 9.66539 9.76256C9.50736 9.72815 9.34934 9.69893 9.18941 9.6749C8.53482 9.59242 7.87504 9.58897 7.22045 9.67145C7.01592 9.70412 6.81674 9.74354 6.61566 9.79005C6.21368 9.88635 5.83382 9.66625 5.70674 9.27464C5.58813 8.90343 5.84765 8.45511 6.22387 8.36573C6.88884 8.2077 7.57783 8.12695 8.26164 8.13369C10.6551 8.15599 13.0569 9.18007 14.6618 10.967C14.9384 11.2745 14.9453 11.704 14.6618 12.0116C14.4023 12.2952 13.8767 12.3002 13.6171 12.0116C13.4539 11.8295 13.2838 11.656 13.1052 11.4927C13.4128 12.125 13.5896 12.8776 13.5896 13.6851C13.5896 15.9376 12.2082 17.7639 10.5038 17.7639C8.79779 17.7641 7.41635 15.9376 7.41635 13.6851ZM26.8934 29.7825C26.5514 29.9096 26.2113 29.8719 25.8901 29.7567C25.3608 29.5814 24.8558 29.3805 24.3387 29.2069C20.7357 27.9887 16.7891 27.9372 13.1534 29.0506C12.4215 29.2723 11.7016 29.5747 10.9645 29.805C9.92163 30.1349 8.93024 29.0816 9.31338 28.0661C10.7 24.4305 14.7531 22.4013 18.5055 22.4494C21.3506 22.4306 24.3506 23.5387 26.2492 25.707C26.8592 26.4079 27.378 27.1915 27.6958 28.066C27.9482 28.7619 27.5891 29.5299 26.8934 29.7825ZM31.3021 9.27464C31.211 9.67317 30.7694 9.87944 30.3932 9.79005C30.1973 9.74371 29.9979 9.70411 29.7988 9.67317C29.1424 9.58897 28.4792 9.5907 27.8229 9.6749C27.5257 9.7195 27.2302 9.7814 26.9397 9.85868C28.1184 10.4325 28.9586 11.9309 28.9586 13.6851C28.9586 15.9376 27.5755 17.7639 25.871 17.7639C24.1666 17.7639 22.7834 15.9374 22.7834 13.6851C22.7834 13.1679 22.8573 12.6714 22.9913 12.216C22.7627 12.2469 22.517 12.1679 22.3469 12.0114C22.0428 11.7313 22.0891 11.2538 22.3469 10.9668C22.8039 10.4598 23.3296 10.015 23.895 9.63357C25.8847 8.2848 28.4481 7.80882 30.7865 8.36555C31.1887 8.46185 31.388 8.89478 31.3021 9.27464ZM9.06579 9.65605C9.10694 9.66124 9.14826 9.66815 9.18941 9.6749C9.21344 9.67663 9.23747 9.68008 9.2615 9.68354C9.19632 9.67489 9.13114 9.66452 9.06579 9.65605ZM7.15008 9.68009C7.17411 9.67663 7.19642 9.67318 7.22045 9.67145C7.2616 9.66453 7.30465 9.65761 7.34753 9.6526C7.28062 9.66124 7.21526 9.66972 7.15008 9.68009ZM7.15008 9.68009C7.17411 9.67663 7.19642 9.67318 7.22045 9.67145C7.2616 9.66453 7.30465 9.65761 7.34753 9.6526C7.28062 9.66124 7.21526 9.66972 7.15008 9.68009ZM9.06579 9.65605C9.10694 9.66124 9.14826 9.66815 9.18941 9.6749C9.21344 9.67663 9.23747 9.68008 9.2615 9.68354C9.19632 9.67489 9.13114 9.66452 9.06579 9.65605ZM9.06579 9.65605C9.10694 9.66124 9.14826 9.66815 9.18941 9.6749C9.21344 9.67663 9.23747 9.68008 9.2615 9.68354C9.19632 9.67489 9.13114 9.66452 9.06579 9.65605ZM7.15008 9.68009C7.17411 9.67663 7.19642 9.67318 7.22045 9.67145C7.2616 9.66453 7.30465 9.65761 7.34753 9.6526C7.28062 9.66124 7.21526 9.66972 7.15008 9.68009Z" fill="black"/>
</svg>
