<svg width="38" height="37" viewBox="0 0 38 37" fill="none" xmlns="http://www.w3.org/2000/svg">
<rect x="0.5" width="37" height="37" rx="18.5" fill="#ED9A33"/>
<path d="M25.153 9.79328C25.1736 9.78464 25.1926 9.77616 25.2132 9.76924C25.251 9.75213 25.2905 9.73484 25.3283 9.71946C25.2699 9.74349 25.2114 9.76925 25.153 9.79328ZM27.7165 9.08544C27.7527 9.08026 27.7869 9.0768 27.823 9.07334C27.8523 9.06815 27.8832 9.06297 27.9124 9.05968L27.7165 9.08544ZM27.7165 9.08544C27.7527 9.08026 27.7869 9.0768 27.823 9.07334C27.8523 9.06815 27.8832 9.06297 27.9124 9.05968L27.7165 9.08544ZM25.153 9.79328C25.1736 9.78464 25.1926 9.77616 25.2132 9.76924C25.251 9.75213 25.2905 9.73484 25.3283 9.71946C25.2699 9.74349 25.2114 9.76925 25.153 9.79328ZM10.0918 9.05968C10.121 9.06314 10.1519 9.06833 10.1811 9.07334C10.2173 9.0768 10.2515 9.08026 10.2876 9.08544C10.2223 9.0768 10.1569 9.06816 10.0918 9.05968ZM12.6759 9.71946C12.7137 9.73484 12.7532 9.75213 12.791 9.76924C12.8116 9.77616 12.8306 9.78464 12.8512 9.79328C12.7926 9.76925 12.7341 9.74349 12.6759 9.71946ZM25.153 9.79328C25.1736 9.78464 25.1926 9.77616 25.2132 9.76924C25.251 9.75213 25.2905 9.73484 25.3283 9.71946C25.2699 9.74349 25.2114 9.76925 25.153 9.79328ZM27.7165 9.08544C27.7527 9.08026 27.7869 9.0768 27.823 9.07334C27.8523 9.06815 27.8832 9.06297 27.9124 9.05968L27.7165 9.08544ZM27.7165 9.08544C27.7527 9.08026 27.7869 9.0768 27.823 9.07334C27.8523 9.06815 27.8832 9.06297 27.9124 9.05968L27.7165 9.08544ZM25.2132 9.76924C25.251 9.75213 25.2905 9.73484 25.3283 9.71946C25.2699 9.74349 25.2114 9.76925 25.153 9.79328C25.1736 9.78464 25.1926 9.77616 25.2132 9.76924ZM12.6759 9.71946C12.7137 9.73484 12.7532 9.75213 12.791 9.76924C12.8116 9.77616 12.8306 9.78464 12.8512 9.79328C12.7926 9.76925 12.7341 9.74349 12.6759 9.71946ZM10.1811 9.07334C10.2173 9.0768 10.2513 9.08026 10.2875 9.08544C10.2221 9.0768 10.1569 9.06833 10.0916 9.05968C10.121 9.06314 10.1519 9.06815 10.1811 9.07334ZM7.11239 9.08889C6.90612 9.12157 6.73098 9.11294 6.54373 9.01335C6.3736 8.92396 6.2619 8.75054 6.20519 8.57176C6.14675 8.39472 6.18635 8.16113 6.27902 8.00311C6.36322 7.86047 6.54873 7.69033 6.72059 7.66457C7.39074 7.55807 8.06419 7.4979 8.74281 7.50136C9.89223 7.50655 11.0572 7.6663 12.162 7.98754C13.1671 8.27956 14.1619 8.70921 15.0089 9.33285C15.1722 9.45319 15.2856 9.58027 15.3492 9.77444C15.4111 9.96341 15.3646 10.1714 15.2754 10.3431C15.1894 10.5029 15.0039 10.6351 14.8338 10.6816C14.6671 10.728 14.4095 10.7143 14.2651 10.6078C13.8082 10.271 13.3099 9.99609 12.791 9.76942C11.9559 9.42588 11.0762 9.20059 10.1811 9.07334C9.2155 8.95127 8.23448 8.9447 7.26885 9.06487C7.21716 9.07161 7.16564 9.08025 7.11239 9.08889ZM7.91307 14.5011C7.91307 12.2486 9.29624 10.4238 11.0007 10.4238C12.7051 10.4238 14.0865 12.2486 14.0865 14.5011C14.0865 16.7536 12.7051 18.5782 11.0007 18.5782C9.29624 18.5782 7.91307 16.7534 7.91307 14.5011ZM28.1822 29.0195C27.9382 29.334 27.5722 29.4989 27.2029 29.4989C26.9383 29.4989 26.6719 29.4147 26.4452 29.2394C24.459 27.7016 21.9248 26.9198 18.9163 26.9198C15.9061 26.9198 13.3718 27.7016 11.3838 29.2394C10.8444 29.6587 10.0677 29.5589 9.64844 29.0195C9.23089 28.48 9.32892 27.7016 9.87009 27.2841C12.3014 25.4011 15.3442 24.4456 18.9163 24.4456C22.4866 24.4456 25.5311 25.4009 27.9607 27.2841C28.5017 27.7016 28.5997 28.48 28.1822 29.0195ZM26.3678 18.5782C24.6633 18.5782 23.2819 16.7534 23.2819 14.5011C23.2819 12.2486 24.6633 10.4238 26.3678 10.4238C28.0722 10.4238 29.4554 12.2486 29.4554 14.5011C29.4554 16.7534 28.0722 18.5782 26.3678 18.5782ZM31.7988 8.57159C31.7592 8.74863 31.6133 8.92378 31.4603 9.01317C31.2765 9.1214 31.0943 9.11967 30.8916 9.08873C30.8384 9.08008 30.7868 9.07161 30.7353 9.0647C29.7697 8.94436 28.7887 8.95127 27.823 9.07334C26.928 9.20042 26.0483 9.42553 25.2132 9.76924C24.6943 9.99609 24.196 10.271 23.739 10.6076C23.4074 10.8516 22.9282 10.6505 22.7288 10.3431C22.6292 10.1851 22.6067 9.94958 22.655 9.77444C22.71 9.57509 22.8336 9.44973 22.9952 9.33285C23.4351 9.00815 23.9128 8.74017 24.4126 8.51852C26.5587 7.56326 28.9692 7.30028 31.2836 7.66457C31.4691 7.69379 31.6271 7.85182 31.7252 8.00311C31.8332 8.17133 31.8419 8.38261 31.7988 8.57159ZM27.7165 9.08544C27.7527 9.08026 27.7869 9.0768 27.823 9.07334C27.8523 9.06815 27.8832 9.06297 27.9124 9.05968L27.7165 9.08544ZM25.153 9.79328C25.1736 9.78464 25.1926 9.77616 25.2132 9.76924C25.251 9.75213 25.2905 9.73484 25.3283 9.71946C25.2699 9.74349 25.2114 9.76925 25.153 9.79328ZM12.6759 9.71946C12.7137 9.73484 12.7532 9.75213 12.791 9.76924C12.8116 9.77616 12.8306 9.78464 12.8512 9.79328C12.7926 9.76925 12.7341 9.74349 12.6759 9.71946ZM10.0918 9.05968C10.121 9.06314 10.1519 9.06833 10.1811 9.07334C10.2173 9.0768 10.2515 9.08026 10.2876 9.08544C10.2223 9.0768 10.1569 9.06816 10.0918 9.05968ZM10.0918 9.05968C10.121 9.06314 10.1519 9.06833 10.1811 9.07334C10.2173 9.0768 10.2515 9.08026 10.2876 9.08544C10.2223 9.0768 10.1569 9.06816 10.0918 9.05968ZM12.6759 9.71946C12.7137 9.73484 12.7532 9.75213 12.791 9.76924C12.8116 9.77616 12.8306 9.78464 12.8512 9.79328C12.7926 9.76925 12.7341 9.74349 12.6759 9.71946ZM25.153 9.79328C25.1736 9.78464 25.1926 9.77616 25.2132 9.76924C25.251 9.75213 25.2905 9.73484 25.3283 9.71946C25.2699 9.74349 25.2114 9.76925 25.153 9.79328ZM27.7165 9.08544C27.7527 9.08026 27.7869 9.0768 27.823 9.07334C27.8523 9.06815 27.8832 9.06297 27.9124 9.05968L27.7165 9.08544ZM27.7165 9.08544C27.7527 9.08026 27.7869 9.0768 27.823 9.07334C27.8523 9.06815 27.8832 9.06297 27.9124 9.05968L27.7165 9.08544ZM25.153 9.79328C25.1736 9.78464 25.1926 9.77616 25.2132 9.76924C25.251 9.75213 25.2905 9.73484 25.3283 9.71946C25.2699 9.74349 25.2114 9.76925 25.153 9.79328ZM12.6759 9.71946C12.7137 9.73484 12.7532 9.75213 12.791 9.76924C12.8116 9.77616 12.8306 9.78464 12.8512 9.79328C12.7926 9.76925 12.7341 9.74349 12.6759 9.71946ZM10.0918 9.05968C10.121 9.06314 10.1519 9.06833 10.1811 9.07334C10.2173 9.0768 10.2515 9.08026 10.2876 9.08544C10.2223 9.0768 10.1569 9.06816 10.0918 9.05968ZM25.153 9.79328C25.1736 9.78464 25.1926 9.77616 25.2132 9.76924C25.251 9.75213 25.2905 9.73484 25.3283 9.71946C25.2699 9.74349 25.2114 9.76925 25.153 9.79328ZM27.7165 9.08544C27.7527 9.08026 27.7869 9.0768 27.823 9.07334C27.8523 9.06815 27.8832 9.06297 27.9124 9.05968L27.7165 9.08544ZM27.7165 9.08544C27.7527 9.08026 27.7869 9.0768 27.823 9.07334C27.8523 9.06815 27.8832 9.06297 27.9124 9.05968L27.7165 9.08544ZM25.153 9.79328C25.1736 9.78464 25.1926 9.77616 25.2132 9.76924C25.251 9.75213 25.2905 9.73484 25.3283 9.71946C25.2699 9.74349 25.2114 9.76925 25.153 9.79328Z" fill="white"/>
</svg>
