<svg width="38" height="39" viewBox="0 0 38 39" fill="none" xmlns="http://www.w3.org/2000/svg">
<rect y="0.5" width="38" height="38" rx="18.5" fill="#EEC000"/>
<path d="M7.38534 9.95217C7.36822 9.55347 7.73752 9.21338 8.12412 9.21338H14.5071C14.9212 9.21338 15.2271 9.55191 15.2442 9.95217C15.2631 10.3507 14.892 10.691 14.5071 10.691H8.12412C7.71003 10.691 7.40418 10.3524 7.38534 9.95217ZM11.3148 20.1545C9.61034 20.1545 8.22889 18.3297 8.22889 16.0772C8.22889 13.8247 9.61034 12 11.3148 12C13.0209 12 14.4024 13.8247 14.4024 16.0772C14.4022 18.3299 13.0209 20.1545 11.3148 20.1545ZM23.3436 29.7866H15.1171C14.4333 29.7866 13.88 29.2316 13.88 28.5495C13.88 27.8657 14.4333 27.3124 15.1171 27.3124H23.3436C24.0274 27.3124 24.5807 27.8657 24.5807 28.5495C24.5807 29.2316 24.0274 29.7866 23.3436 29.7866ZM26.6836 20.1545C24.9774 20.1545 23.596 18.3297 23.596 16.0772C23.596 13.8247 24.9774 12 26.6836 12C28.388 12 29.7695 13.8247 29.7695 16.0772C29.7695 18.3299 28.388 20.1545 26.6836 20.1545ZM29.8742 10.691H23.4912C23.0771 10.691 22.7713 10.3524 22.7542 9.95217C22.7353 9.55347 23.1064 9.21338 23.4912 9.21338H29.8742C30.2883 9.21338 30.5942 9.55191 30.613 9.95217C30.6302 10.3507 30.2608 10.691 29.8742 10.691Z" fill="black"/>
</svg>
