<svg width="38" height="37" viewBox="0 0 38 37" fill="none" xmlns="http://www.w3.org/2000/svg">
<rect x="0.5" width="37" height="37" rx="18.5" fill="#EEC000"/>
<path d="M7.38534 8.95217C7.36822 8.55347 7.73752 8.21338 8.12412 8.21338H14.5071C14.9212 8.21338 15.2271 8.55191 15.2442 8.95217C15.2631 9.3507 14.892 9.69096 14.5071 9.69096H8.12412C7.71003 9.69096 7.40418 9.35243 7.38534 8.95217ZM11.3148 19.1545C9.61034 19.1545 8.22889 17.3297 8.22889 15.0772C8.22889 12.8247 9.61034 11 11.3148 11C13.0209 11 14.4024 12.8247 14.4024 15.0772C14.4022 17.3299 13.0209 19.1545 11.3148 19.1545ZM23.3436 28.7866H15.1171C14.4333 28.7866 13.88 28.2316 13.88 27.5495C13.88 26.8657 14.4333 26.3124 15.1171 26.3124H23.3436C24.0274 26.3124 24.5807 26.8657 24.5807 27.5495C24.5807 28.2316 24.0274 28.7866 23.3436 28.7866ZM26.6836 19.1545C24.9774 19.1545 23.596 17.3297 23.596 15.0772C23.596 12.8247 24.9774 11 26.6836 11C28.388 11 29.7695 12.8247 29.7695 15.0772C29.7695 17.3299 28.388 19.1545 26.6836 19.1545ZM29.8742 9.69096H23.4912C23.0771 9.69096 22.7713 9.35243 22.7542 8.95217C22.7353 8.55347 23.1064 8.21338 23.4912 8.21338H29.8742C30.2883 8.21338 30.5942 8.55191 30.613 8.95217C30.6302 9.3507 30.2608 9.69096 29.8742 9.69096Z" fill="white"/>
</svg>
