<svg width="52" height="45" viewBox="0 0 52 45" fill="none" xmlns="http://www.w3.org/2000/svg">
<path d="M45.2228 44.7037H6.77723C5.55078 44.6795 4.35285 44.3295 3.30637 43.6894C2.25989 43.0494 1.40255 42.1425 0.822314 41.0617C0.242081 39.9809 -0.0401438 38.7652 0.00460189 37.5393C0.0493476 36.3135 0.419452 35.1216 1.07694 34.086L20.2997 3.19958C20.8959 2.22239 21.7333 1.41488 22.7316 0.854577C23.7298 0.294276 24.8553 0 26 0C27.1447 0 28.2702 0.294276 29.2684 0.854577C30.2667 1.41488 31.1041 2.22239 31.7003 3.19958L50.9231 34.086C51.5806 35.1216 51.9507 36.3135 51.9954 37.5393C52.0401 38.7652 51.7579 39.9809 51.1777 41.0617C50.5975 42.1425 49.7401 43.0494 48.6936 43.6894C47.6472 44.3295 46.4492 44.6795 45.2228 44.7037Z" fill="#FC573B"/>
<path d="M28.0804 12.475C28.0804 11.3267 27.1495 10.3958 26.0011 10.3958C24.8528 10.3958 23.9219 11.3267 23.9219 12.475V29.1091C23.9219 30.2574 24.8528 31.1884 26.0011 31.1884C27.1495 31.1884 28.0804 30.2574 28.0804 29.1091V12.475Z" fill="white"/>
<path d="M26.0011 39.5054C27.1495 39.5054 28.0804 38.5745 28.0804 37.4262C28.0804 36.2778 27.1495 35.3469 26.0011 35.3469C24.8528 35.3469 23.9219 36.2778 23.9219 37.4262C23.9219 38.5745 24.8528 39.5054 26.0011 39.5054Z" fill="white"/>
</svg>
