<svg width="32" height="28" viewBox="0 0 32 28" fill="none" xmlns="http://www.w3.org/2000/svg">
<path d="M0.899902 16.5664H9.23688C17.1765 16.5664 16.0702 16.5664 16.0702 16.5664C19.8441 16.5664 17.1765 16.5664 22.9035 16.5664H30.8999" fill="#B562F9"/>
<path d="M0.899902 16.5664H9.23688C17.1765 16.5664 16.0702 16.5664 16.0702 16.5664C19.8441 16.5664 17.1765 16.5664 22.9035 16.5664H30.8999" stroke="#B562F9" stroke-width="1.8" stroke-miterlimit="10" stroke-linecap="round" stroke-linejoin="round"/>
<path d="M5.3999 21.5664H11.5137C17.3361 21.5664 16.5248 21.5664 16.5248 21.5664C19.2923 21.5664 17.3361 21.5664 21.5359 21.5664H27.3999" fill="#B562F9"/>
<path d="M5.3999 21.5664H11.5137C17.3361 21.5664 16.5248 21.5664 16.5248 21.5664C19.2923 21.5664 17.3361 21.5664 21.5359 21.5664H27.3999" stroke="#B562F9" stroke-width="1.8" stroke-miterlimit="10" stroke-linecap="round" stroke-linejoin="round"/>
<path d="M8.3999 26.5664L12.5684 26.5664C16.5382 26.5664 15.985 26.5664 15.985 26.5664C17.872 26.5664 16.5382 26.5664 19.4017 26.5664L23.3999 26.5664" fill="#B562F9"/>
<path d="M8.3999 26.5664L12.5684 26.5664C16.5382 26.5664 15.985 26.5664 15.985 26.5664C17.872 26.5664 16.5382 26.5664 19.4017 26.5664L23.3999 26.5664" stroke="#B562F9" stroke-width="1.8" stroke-miterlimit="10" stroke-linecap="round" stroke-linejoin="round"/>
<path d="M29.702 8.62851L24.822 11.744" stroke="#B562F9" stroke-width="2.1322" stroke-miterlimit="10" stroke-linecap="round" stroke-linejoin="round"/>
<path d="M20.7693 1.06641L19.3804 6.5177" stroke="#B562F9" stroke-width="2.1322" stroke-miterlimit="10" stroke-linecap="round" stroke-linejoin="round"/>
<path d="M10.3257 1.06641L11.8339 6.60765" stroke="#B562F9" stroke-width="2.1322" stroke-miterlimit="10" stroke-linecap="round" stroke-linejoin="round"/>
<path d="M1.58252 7.88037L6.43745 11.0398" stroke="#B562F9" stroke-width="2.1322" stroke-miterlimit="10" stroke-linecap="round" stroke-linejoin="round"/>
<path d="M15.769 8.82764C19.8807 8.82787 23.2651 11.9313 23.7124 15.9233H7.82471C8.27197 11.9311 11.6572 8.82764 15.769 8.82764Z" stroke="#B562F9" stroke-width="1.8"/>
</svg>
