<svg width="20" height="20" viewBox="0 0 20 20" fill="none" xmlns="http://www.w3.org/2000/svg">
<path d="M13.0397 16.3333C13.0397 17.8061 11.5853 19 9.79119 19C7.99707 19 6.54264 17.8061 6.54264 16.3333H13.0397Z" fill="white" fill-opacity="0.32"/>
<path d="M17.6819 16.3333H2.3181C1.37685 16.3333 0.919807 15.6862 1.01154 14.9487C1.03338 14.7731 1.11952 14.609 1.22409 14.456L2.65223 12.3661C2.96737 11.905 3.16365 11.3931 3.22831 10.8639L3.57298 8.04263C3.60359 7.79215 3.64715 7.54392 3.7338 7.30291C4.04336 6.44194 5.04785 4.28492 7.56358 3.39423V3C7.56358 1.89543 8.6544 1 9.99999 1C11.3456 1 12.4364 1.89543 12.4364 3V3.39423C14.8679 4.25511 15.8877 6.29896 16.2327 7.21219C16.3462 7.51242 16.3956 7.82418 16.4246 8.13829L16.6666 10.7633C16.7214 11.3572 16.9417 11.9318 17.3095 12.4406L18.7544 14.4389C18.8731 14.6031 18.9704 14.781 18.9912 14.9725C19.0703 15.7 18.613 16.3333 17.6819 16.3333Z" fill="white" fill-opacity="0.32"/>
<path d="M13.0397 16.3333C13.0397 17.8061 11.5853 19 9.79119 19C7.99707 19 6.54264 17.8061 6.54264 16.3333H13.0397Z" stroke="black"/>
<path d="M17.6819 16.3333H2.3181C1.37685 16.3333 0.919807 15.6862 1.01154 14.9487C1.03338 14.7731 1.11952 14.609 1.22409 14.456L2.65223 12.3661C2.96737 11.905 3.16365 11.3931 3.22831 10.8639L3.57298 8.04263C3.60359 7.79215 3.64715 7.54392 3.7338 7.30291C4.04336 6.44194 5.04785 4.28492 7.56358 3.39423V3C7.56358 1.89543 8.6544 1 9.99999 1C11.3456 1 12.4364 1.89543 12.4364 3V3.39423C14.8679 4.25511 15.8877 6.29896 16.2327 7.21219C16.3462 7.51242 16.3956 7.82418 16.4246 8.13829L16.6666 10.7633C16.7214 11.3572 16.9417 11.9318 17.3095 12.4406L18.7544 14.4389C18.8731 14.6031 18.9704 14.781 18.9912 14.9725C19.0703 15.7 18.613 16.3333 17.6819 16.3333Z" stroke="black"/>
</svg>
