<svg width="280" height="260" viewBox="0 0 280 260" fill="none" xmlns="http://www.w3.org/2000/svg">
<path d="M209.95 45.7002C209.388 44.3768 208.775 43.0739 208.1 41.7914C188.878 5.04386 107.576 -24.8008 92.1145 30.4994C86.7507 49.589 76.9039 67.121 63.394 81.6353C52.2144 93.5711 38.5669 103.509 30.2742 117.55C21.9202 131.749 19.8764 149.408 24.2143 165.334C31.5874 192.276 55.602 211.759 81.2364 222.852C120.104 239.672 167.188 240.434 203.476 218.596C227.823 203.941 246.83 177.479 245.374 149.106C244.03 123.104 226.581 100.965 218.805 76.1119C215.657 66.0104 214.038 55.3571 209.95 45.7002Z" fill="#5DCCFC"/>
<path opacity="0.7" d="M209.95 45.7002C209.388 44.3768 208.775 43.0739 208.1 41.7914C188.878 5.04386 107.576 -24.8008 92.1145 30.4994C86.7507 49.589 76.9039 67.121 63.394 81.6353C52.2144 93.5711 38.5669 103.509 30.2742 117.55C21.9202 131.749 19.8764 149.408 24.2143 165.334C31.5874 192.276 55.602 211.759 81.2364 222.852C120.104 239.672 167.188 240.434 203.476 218.596C227.823 203.941 246.83 177.479 245.374 149.106C244.03 123.104 226.581 100.965 218.805 76.1119C215.657 66.0104 214.038 55.3571 209.95 45.7002Z" fill="white"/>
<path d="M279.15 234.787H0V234.927H279.15V234.787Z" fill="#EBEBEB"/>
<path d="M251.179 243.77H232.688V243.91H251.179V243.77Z" fill="#EBEBEB"/>
<path d="M184.92 245.289H180.068V245.429H184.92V245.289Z" fill="#EBEBEB"/>
<path d="M232.129 238.589H205.515V238.729H232.129V238.589Z" fill="#EBEBEB"/>
<path d="M42.5088 239.527H29.2883V239.667H42.5088V239.527Z" fill="#EBEBEB"/>
<path d="M61.91 239.527H47.478V239.667H61.91V239.527Z" fill="#EBEBEB"/>
<path d="M109.488 241.883H73.3999V242.023H109.488V241.883Z" fill="#EBEBEB"/>
<path d="M132.317 209.887H24.5149C23.6704 209.886 22.861 209.549 22.2643 208.951C21.6677 208.354 21.3326 207.544 21.3326 206.699V55.16C21.3399 54.3203 21.6783 53.5174 22.2741 52.9258C22.87 52.3341 23.6752 52.0014 24.5149 52H132.317C133.162 52 133.973 52.3359 134.571 52.9337C135.169 53.5316 135.505 54.3424 135.505 55.1879V206.699C135.505 207.545 135.169 208.355 134.571 208.953C133.973 209.551 133.162 209.887 132.317 209.887ZM24.5149 52.1117C23.7074 52.1131 22.9335 52.435 22.363 53.0065C21.7925 53.578 21.4722 54.3525 21.4722 55.16V206.699C21.4722 207.507 21.7925 208.281 22.363 208.853C22.9335 209.424 23.7074 209.746 24.5149 209.747H132.317C133.125 209.746 133.899 209.424 134.471 208.853C135.042 208.282 135.364 207.507 135.365 206.699V55.16C135.364 54.352 135.042 53.5775 134.471 53.0061C133.899 52.4348 133.125 52.1131 132.317 52.1117H24.5149Z" fill="#EBEBEB"/>
<path d="M253.083 209.887H145.275C144.43 209.886 143.62 209.549 143.022 208.952C142.425 208.354 142.089 207.544 142.087 206.699V55.16C142.096 54.3198 142.435 53.5169 143.032 52.9254C143.629 52.3339 144.435 52.0014 145.275 52H253.083C253.921 52.0029 254.725 52.3362 255.32 52.9277C255.914 53.5192 256.252 54.3213 256.259 55.16V206.699C256.259 207.543 255.925 208.352 255.33 208.949C254.734 209.547 253.926 209.884 253.083 209.887ZM145.275 52.1117C144.467 52.1131 143.692 52.4348 143.121 53.0061C142.55 53.5775 142.228 54.352 142.227 55.16V206.699C142.228 207.507 142.55 208.282 143.121 208.853C143.692 209.424 144.467 209.746 145.275 209.747H253.083C253.891 209.746 254.665 209.424 255.236 208.853C255.808 208.282 256.129 207.507 256.131 206.699V55.16C256.129 54.352 255.808 53.5775 255.236 53.0061C254.665 52.4348 253.891 52.1131 253.083 52.1117H145.275Z" fill="#EBEBEB"/>
<path d="M246.439 66.5159H158.245V234.787H246.439V66.5159Z" fill="#EBEBEB"/>
<path d="M239.879 72.0038H164.804V234.787H239.879V72.0038Z" fill="#F5F5F5"/>
<path d="M212.902 85.5035H191.793V91.3378H212.902V85.5035Z" fill="white"/>
<path d="M222.41 143.461H233.86C234.334 143.461 234.788 143.649 235.124 143.984C235.459 144.319 235.647 144.773 235.647 145.247C235.647 145.721 235.459 146.175 235.124 146.51C234.788 146.845 234.334 147.034 233.86 147.034H222.41C221.936 147.034 221.481 146.845 221.146 146.51C220.811 146.175 220.623 145.721 220.623 145.247C220.623 144.773 220.811 144.319 221.146 143.984C221.481 143.649 221.936 143.461 222.41 143.461Z" fill="white"/>
<path d="M97.948 84.4204H39.293V131.692H97.948V84.4204Z" fill="#EBEBEB"/>
<path d="M94.7939 128.543V87.5693H42.4366V128.543H94.7939Z" fill="#FAFAFA"/>
<path d="M88.6914 108.595V106.635H48.5441V108.595H88.6914Z" fill="#E0E0E0"/>
<path d="M88.6914 113.055V111.096H48.5441V113.055H88.6914Z" fill="#E0E0E0"/>
<path d="M88.6914 117.511V115.551H48.5441V117.511H88.6914Z" fill="#E0E0E0"/>
<path d="M78.6254 121.972V120.012H58.6103V121.972H78.6254Z" fill="#E0E0E0"/>
<path d="M48.5721 87.5692C48.5721 88.3738 48.413 89.1705 48.1039 89.9135C47.7948 90.6564 47.3418 91.3308 46.771 91.898C46.2003 92.4651 45.5229 92.9138 44.7781 93.2182C44.0332 93.5225 43.2355 93.6766 42.4308 93.6714C41.3206 93.6741 40.2311 93.3709 39.282 92.7949V84.4204H47.6565C48.2433 85.3668 48.5599 86.4557 48.5721 87.5692Z" fill="#EBEBEB"/>
<path d="M97.948 84.4204V92.7949C96.7809 93.4969 95.4124 93.7883 94.0604 93.6227C92.7085 93.457 91.4508 92.8438 90.4877 91.8807C89.5246 90.9176 88.9114 89.6599 88.7457 88.308C88.5801 86.956 88.8715 85.5875 89.5735 84.4204H97.948Z" fill="#EBEBEB"/>
<path d="M48.572 128.548C48.574 129.656 48.2728 130.743 47.7011 131.692H39.3266V123.317C40.2529 122.763 41.3096 122.463 42.3891 122.45C43.4687 122.437 44.5324 122.71 45.4721 123.242C46.4117 123.773 47.1936 124.545 47.7382 125.477C48.2827 126.409 48.5705 127.469 48.572 128.548Z" fill="#EBEBEB"/>
<path d="M97.9482 123.312V131.686H89.5737C88.9976 130.739 88.6943 129.651 88.6971 128.543C88.6983 127.462 88.9861 126.4 89.5313 125.467C90.0764 124.533 90.8593 123.761 91.8003 123.228C92.7412 122.696 93.8065 122.423 94.8875 122.436C95.9685 122.45 97.0265 122.75 97.9537 123.306L97.9482 123.312Z" fill="#EBEBEB"/>
<path d="M73.7504 98.3854C74.2104 95.5519 72.2862 92.8819 69.4526 92.422C66.6191 91.962 63.9491 93.8862 63.4892 96.7198C63.0292 99.5533 64.9534 102.223 67.787 102.683C70.6205 103.143 73.2905 101.219 73.7504 98.3854Z" fill="#E0E0E0"/>
<path d="M145.348 167.652H29.2883V171.828H145.348V167.652Z" fill="#EBEBEB"/>
<path d="M144.343 171.828H106.635V234.787H144.343V171.828Z" fill="#F5F5F5"/>
<path d="M68.4308 171.828H30.7233V234.787H68.4308V171.828Z" fill="#F5F5F5"/>
<path d="M32.013 171.828H30.7233V234.787H32.013V171.828Z" fill="#EBEBEB"/>
<path d="M107.925 171.828H106.635V234.787H107.925V171.828Z" fill="#EBEBEB"/>
<path d="M50.5261 157.586H43.592L44.1503 167.652H49.9678L50.5261 157.586Z" fill="#F0F0F0"/>
<path d="M110.727 163.286H74.4992V167.652H110.727V163.286Z" fill="#F0F0F0"/>
<path d="M110.733 163.799H94.0287V167.144H110.733V163.799Z" fill="#FAFAFA"/>
<path d="M139.575 260C199.359 260 247.823 257.17 247.823 253.68C247.823 250.19 199.359 247.36 139.575 247.36C79.7906 247.36 31.3261 250.19 31.3261 253.68C31.3261 257.17 79.7906 260 139.575 260Z" fill="#F5F5F5"/>
<path d="M190.22 214.589C199.988 214.589 207.906 206.671 207.906 196.902C207.906 187.134 199.988 179.215 190.22 179.215C180.451 179.215 172.533 187.134 172.533 196.902C172.533 206.671 180.451 214.589 190.22 214.589Z" fill="white"/>
<path d="M190.218 214.806C186.677 214.807 183.214 213.758 180.269 211.791C177.324 209.824 175.028 207.028 173.672 203.757C172.316 200.485 171.961 196.885 172.651 193.411C173.342 189.938 175.046 186.747 177.55 184.242C180.054 181.738 183.244 180.032 186.718 179.341C190.191 178.649 193.791 179.004 197.063 180.359C200.335 181.714 203.132 184.009 205.099 186.953C207.067 189.898 208.117 193.36 208.117 196.901C208.113 201.647 206.226 206.198 202.87 209.555C199.515 212.911 194.964 214.8 190.218 214.806ZM190.218 179.437C186.763 179.437 183.385 180.462 180.512 182.382C177.639 184.302 175.4 187.03 174.078 190.223C172.756 193.415 172.411 196.928 173.085 200.317C173.76 203.705 175.424 206.818 177.868 209.261C180.311 211.704 183.424 213.367 186.814 214.041C190.203 214.714 193.715 214.367 196.907 213.044C200.099 211.721 202.827 209.481 204.746 206.608C206.665 203.734 207.688 200.356 207.687 196.901C207.683 192.27 205.841 187.829 202.566 184.555C199.29 181.281 194.849 179.44 190.218 179.437Z" fill="#4290FE"/>
<path d="M193.065 186.874H187.371V206.928H193.065V186.874Z" fill="#4290FE"/>
<path d="M200.245 199.754V194.059H180.191V199.754H200.245Z" fill="#4290FE"/>
<path d="M70.4067 63.205L70.0271 62.7974C72.6115 60.3543 75.8909 58.7741 79.4121 58.2752L79.4903 58.8335C76.0826 59.3141 72.9084 60.8417 70.4067 63.205Z" fill="#4290FE"/>
<path d="M66.2752 69.3071L65.756 69.1061C66.3195 67.6838 67.0706 66.3432 67.9892 65.1198L68.4358 65.4548C67.55 66.6388 66.8236 67.9339 66.2752 69.3071Z" fill="#4290FE"/>
<path d="M81.8519 90.6956C90.3127 90.6956 97.1716 83.8367 97.1716 75.3758C97.1716 66.915 90.3127 60.0561 81.8519 60.0561C73.391 60.0561 66.5321 66.915 66.5321 75.3758C66.5321 83.8367 73.391 90.6956 81.8519 90.6956Z" fill="#4290FE"/>
<path d="M91.0026 68.4752C90.4125 67.8627 89.7063 67.374 88.9252 67.0376C88.144 66.7012 87.3037 66.5239 86.4532 66.5161C85.6028 66.5083 84.7593 66.6702 83.9722 66.9922C83.185 67.3142 82.4699 67.7899 81.8688 68.3915C81.2681 67.7901 80.5535 67.3145 79.7668 66.9925C78.9801 66.6706 78.1371 66.5088 77.2871 66.5166C76.4371 66.5244 75.5972 66.7016 74.8165 67.0379C74.0359 67.3743 73.3301 67.8629 72.7406 68.4752C71.5852 69.725 70.9628 71.376 71.0055 73.0774C71.0483 74.7788 71.7528 76.3965 72.9695 77.5867L80.2274 84.8446C80.4451 85.0623 80.7036 85.2351 80.9881 85.3529C81.2726 85.4708 81.5776 85.5314 81.8855 85.5314C82.1935 85.5314 82.4984 85.4708 82.7829 85.3529C83.0674 85.2351 83.3259 85.0623 83.5437 84.8446L90.8016 77.5867C92.0144 76.3928 92.7138 74.7731 92.7514 73.0718C92.7889 71.3704 92.1615 69.7214 91.0026 68.4752Z" fill="white"/>
<path d="M81.852 82.0697C81.7394 82.0659 81.6307 82.0281 81.54 81.9613C81.4494 81.8946 81.381 81.802 81.3439 81.6956L78.1114 72.2436L76.7603 76.1964C76.7219 76.3062 76.6501 76.4013 76.555 76.4684C76.4599 76.5355 76.3463 76.5712 76.2299 76.5705H70.82C70.6719 76.5705 70.5299 76.5116 70.4252 76.4069C70.3205 76.3022 70.2617 76.1602 70.2617 76.0122C70.2617 75.8641 70.3205 75.7221 70.4252 75.6174C70.5299 75.5127 70.6719 75.4539 70.82 75.4539H75.8447L77.5977 70.3343C77.6357 70.2246 77.7069 70.1294 77.8015 70.0621C77.896 69.9947 78.0092 69.9586 78.1253 69.9586C78.2414 69.9586 78.3546 69.9947 78.4492 70.0621C78.5437 70.1294 78.6149 70.2246 78.6529 70.3343L81.9413 79.9538L85.1348 72.4335C85.1751 72.3376 85.2415 72.2549 85.3263 72.1948C85.4111 72.1346 85.5111 72.0993 85.6149 72.0929C85.7194 72.0869 85.8236 72.1104 85.9154 72.1608C86.0072 72.2111 86.083 72.2863 86.1341 72.3776L87.8202 75.4483H92.9063C93.0544 75.4483 93.1964 75.5071 93.3011 75.6118C93.4058 75.7165 93.4646 75.8585 93.4646 76.0066C93.4646 76.1546 93.4058 76.2967 93.3011 76.4014C93.1964 76.5061 93.0544 76.5649 92.9063 76.5649H87.4964C87.3965 76.5657 87.2982 76.5397 87.2118 76.4896C87.1254 76.4396 87.054 76.3672 87.0051 76.2801L85.6819 73.913L82.3656 81.7291C82.3229 81.8301 82.2514 81.9162 82.16 81.9767C82.0687 82.0373 81.9616 82.0696 81.852 82.0697Z" fill="#4290FE"/>
<path d="M166.853 234.117H108.584C107.634 234.128 106.693 233.941 105.82 233.568C104.946 233.195 104.16 232.644 103.511 231.951C102.862 231.258 102.365 230.438 102.05 229.542C101.735 228.646 101.61 227.694 101.683 226.748L111.101 87.1728C111.266 85.1795 112.166 83.3185 113.626 81.9514C115.086 80.5844 117.002 79.8088 119.001 79.7754H177.282C178.234 79.7645 179.178 79.9523 180.053 80.3269C180.929 80.7015 181.716 81.2545 182.366 81.9507C183.015 82.6469 183.512 83.4709 183.825 84.3701C184.138 85.2693 184.26 86.2239 184.183 87.1728L174.748 226.748C174.578 228.735 173.676 230.59 172.218 231.951C170.76 233.312 168.848 234.084 166.853 234.117Z" fill="#263238"/>
<path d="M179.772 136.616H178.304C178.038 136.619 177.775 136.567 177.53 136.462C177.286 136.358 177.066 136.203 176.884 136.009C176.703 135.814 176.564 135.584 176.477 135.333C176.39 135.082 176.356 134.815 176.378 134.55L178.181 107.869C178.223 107.311 178.473 106.789 178.881 106.407C179.29 106.024 179.827 105.809 180.387 105.803H181.855C182.121 105.8 182.384 105.852 182.629 105.957C182.873 106.062 183.093 106.216 183.275 106.41C183.456 106.605 183.595 106.835 183.682 107.086C183.769 107.337 183.803 107.604 183.781 107.869L181.978 134.55C181.936 135.108 181.686 135.63 181.277 136.013C180.869 136.395 180.332 136.61 179.772 136.616Z" fill="#263238"/>
<path d="M110.253 118.817H108.79C108.574 118.82 108.359 118.778 108.16 118.693C107.96 118.609 107.781 118.484 107.632 118.327C107.484 118.169 107.37 117.983 107.297 117.779C107.224 117.575 107.195 117.358 107.21 117.142L107.863 107.506C107.905 107.054 108.112 106.632 108.444 106.323C108.777 106.014 109.213 105.839 109.667 105.831H111.135C111.351 105.83 111.564 105.873 111.763 105.958C111.961 106.043 112.14 106.168 112.287 106.325C112.435 106.483 112.549 106.669 112.621 106.872C112.694 107.075 112.724 107.291 112.709 107.506L112.056 117.142C112.016 117.595 111.81 118.017 111.477 118.326C111.143 118.636 110.707 118.811 110.253 118.817Z" fill="#4290FE"/>
<path d="M109.092 136.024H107.624C107.408 136.026 107.194 135.983 106.995 135.899C106.796 135.814 106.617 135.689 106.469 135.532C106.322 135.374 106.208 135.188 106.136 134.984C106.063 134.781 106.034 134.565 106.049 134.349L106.702 124.713C106.744 124.26 106.951 123.839 107.283 123.53C107.616 123.221 108.052 123.046 108.506 123.038H109.985C110.201 123.037 110.415 123.08 110.613 123.165C110.811 123.25 110.99 123.375 111.138 123.532C111.285 123.689 111.399 123.875 111.472 124.079C111.544 124.282 111.574 124.498 111.56 124.713L110.906 134.349C110.866 134.804 110.658 135.227 110.323 135.537C109.987 135.847 109.548 136.02 109.092 136.024Z" fill="#4290FE"/>
<path d="M165.62 234.117H107.35C106.4 234.128 105.459 233.941 104.586 233.568C103.713 233.195 102.926 232.644 102.277 231.951C101.628 231.258 101.131 230.438 100.816 229.542C100.501 228.646 100.376 227.694 100.449 226.748L109.873 87.1729C110.044 85.1789 110.95 83.3195 112.415 81.9563C113.88 80.5932 115.8 79.8238 117.801 79.7978H176.049C176.999 79.7872 177.94 79.9744 178.814 80.3477C179.688 80.7209 180.474 81.2719 181.123 81.9656C181.772 82.6593 182.27 83.4806 182.584 84.3771C182.898 85.2736 183.023 86.2258 182.949 87.1729L173.519 226.748C173.35 228.737 172.447 230.591 170.988 231.953C169.528 233.315 167.615 234.086 165.62 234.117Z" fill="#4290FE"/>
<path opacity="0.3" d="M101.063 225.184L110.264 88.9817H182.318L173.117 225.184H101.063Z" fill="white"/>
<path opacity="0.1" d="M129.509 225.184L155.224 88.9817H171.365L145.65 225.184H129.509Z" fill="white"/>
<path opacity="0.1" d="M117.316 225.184L143.031 88.9817H151.21L125.495 225.184H117.316Z" fill="white"/>
<path d="M139.653 83.2202H153.705C153.823 83.2181 153.939 83.2408 154.047 83.2867C154.155 83.3325 154.252 83.4005 154.332 83.4863C154.412 83.5721 154.473 83.6738 154.511 83.7847C154.55 83.8956 154.564 84.0133 154.554 84.1302C154.535 84.3762 154.424 84.6061 154.245 84.7754C154.065 84.9446 153.829 85.041 153.582 85.0458H139.53C139.413 85.047 139.296 85.0236 139.188 84.9771C139.08 84.9307 138.983 84.8621 138.903 84.7759C138.823 84.6896 138.762 84.5877 138.724 84.4765C138.686 84.3653 138.671 84.2473 138.681 84.1302C138.701 83.8847 138.811 83.6554 138.991 83.4871C139.171 83.3187 139.407 83.2236 139.653 83.2202Z" fill="white"/>
<path d="M136.728 247.544L131.803 248.013L130.028 236.652L134.952 236.177L136.728 247.544Z" fill="#FFB573"/>
<path d="M131.239 245.607L136.398 244.005C136.487 243.974 136.585 243.979 136.67 244.018C136.755 244.058 136.822 244.129 136.856 244.217L138.531 248.309C138.572 248.419 138.591 248.536 138.585 248.653C138.579 248.77 138.549 248.885 138.496 248.99C138.444 249.095 138.37 249.188 138.28 249.263C138.19 249.338 138.085 249.393 137.973 249.426C136.108 249.984 134.332 250.113 132.082 251.101C129.453 252.217 128.353 253.714 125.522 253.714C123.496 253.714 123.038 251.855 123.898 251.598C127.806 250.414 127.292 249.443 130.128 246.389C130.423 246.035 130.807 245.765 131.239 245.607Z" fill="#263238"/>
<path opacity="0.2" d="M130.028 236.652L130.944 242.514L135.873 242.039L134.958 236.177L130.028 236.652Z" fill="black"/>
<path d="M133.59 93.0908C127.13 92.3315 120.704 92.8396 114.256 94.0901C113.182 94.2987 112.201 94.8441 111.458 95.6471C110.714 96.4502 110.245 97.4692 110.119 98.5565C109.421 104.731 108.623 118.572 111.738 139.217L138.135 136.984C138.185 133.238 135.522 116.171 137.721 98.4616C137.811 97.8365 137.775 97.1996 137.615 96.5887C137.455 95.9777 137.174 95.405 136.789 94.9044C136.404 94.4038 135.922 93.9854 135.373 93.6739C134.824 93.3624 134.217 93.1641 133.59 93.0908Z" fill="white"/>
<path d="M118.22 98.3834L119.163 100.27C119.208 100.366 119.277 100.447 119.365 100.504C119.453 100.561 119.555 100.592 119.66 100.594L120.682 100.65C120.864 100.658 121.044 100.603 121.19 100.494L122.949 99.1818L120.777 97.6018L118.22 98.3834Z" fill="#263238"/>
<path d="M120.715 100.109C120.343 99.9362 119.921 99.9025 119.526 100.014C118.694 102.945 117.784 111.358 117.689 115.088C120.213 122.441 121.039 123.183 121.039 123.183L122.318 114.334C122.318 114.334 120.883 105.284 120.715 100.109Z" fill="#263238"/>
<path d="M128.001 80.3616C127.398 84.0017 126.885 90.6511 129.498 93.0015C127.583 95.0114 125.076 97.3395 120.777 97.6019C116.478 97.8643 117.142 94.8886 118.231 93.2974C122.245 92.2255 122.05 89.233 121.263 86.4359L128.001 80.3616Z" fill="#FFB573"/>
<path d="M130.592 92.6832C130.287 92.5519 129.972 92.4491 129.648 92.3761C129.569 92.3552 129.485 92.3608 129.41 92.3921C129.334 92.4233 129.271 92.4785 129.23 92.5492C128.816 93.2527 127.555 96.3959 120.777 97.6018C121.893 98.2606 123.373 100.304 124.009 101.287C126.042 100.231 131.329 97.077 130.826 92.9959C130.816 92.9284 130.789 92.8646 130.748 92.8101C130.707 92.7555 130.654 92.7119 130.592 92.6832Z" fill="#F5F5F5"/>
<path d="M118.27 93.4648C118.285 93.4012 118.283 93.3351 118.265 93.2725C118.247 93.2098 118.214 93.1526 118.169 93.106C118.123 93.0594 118.067 93.025 118.004 93.0057C117.942 92.9864 117.876 92.983 117.812 92.9958C117.578 93.0413 117.346 93.1029 117.12 93.18C117.068 93.2005 117.019 93.2287 116.975 93.2638C116.456 93.7439 113.625 97.8307 116.277 101.136C116.835 100.237 118.762 98.1991 120.777 97.6018C118.868 96.742 117.93 95.1397 118.27 93.4648Z" fill="#F5F5F5"/>
<path opacity="0.2" d="M125.255 82.8404L121.268 86.4359C121.461 87.0853 121.595 87.7504 121.67 88.4234C123.211 88.161 125.283 86.4135 125.394 84.7945C125.47 84.1401 125.422 83.4774 125.255 82.8404Z" fill="black"/>
<path d="M119.928 69.3575C116.489 70.703 116.266 73.528 116.578 76.6154C116.891 79.7028 120.252 77.6594 121 75.7277C121.748 73.796 124.691 67.4928 119.928 69.3575Z" fill="#263238"/>
<path d="M130.899 75.5154C129.944 80.3782 129.626 83.2646 126.846 85.5034C122.653 88.8532 116.975 85.9612 116.472 80.9477C116.02 76.431 117.656 69.2234 122.664 67.8165C123.756 67.4949 124.913 67.4639 126.021 67.7265C127.129 67.989 128.149 68.5361 128.981 69.3136C129.812 70.0912 130.427 71.0722 130.763 72.1599C131.1 73.2475 131.146 74.4041 130.899 75.5154Z" fill="#FFB573"/>
<path d="M130.698 79.5409C126.606 79.7586 127.471 77.4361 128.214 76.1017C128.956 74.7674 127.443 72.5621 128.431 71.4176C126.667 72.1211 124.808 71.5404 122.446 69.899C120.615 68.6205 118.321 73.729 116.087 71.1664C113.977 68.7489 115.937 65.1032 121.006 64.517C126.075 63.9308 126.997 67.5151 130.324 67.1969C133.652 66.8786 132.496 69.6199 131.843 70.1782C134.634 70.3624 136.158 73.0311 130.698 79.5409Z" fill="#263238"/>
<path d="M131.2 70.5187C131.841 70.1676 132.375 69.6517 132.749 69.0244C133.123 68.3972 133.323 67.6814 133.328 66.9512C134.433 68.8885 134.316 71.0882 131.2 70.5187Z" fill="#263238"/>
<path d="M120.593 80.7078C121.038 80.7848 121.494 80.7711 121.933 80.6675C122.372 80.5639 122.786 80.3725 123.15 80.1049C123.161 80.0944 123.17 80.0819 123.176 80.068C123.182 80.054 123.185 80.0391 123.185 80.0239C123.185 80.0088 123.182 79.9938 123.176 79.9799C123.17 79.9659 123.161 79.9534 123.15 79.943C123.128 79.9221 123.099 79.9105 123.069 79.9105C123.039 79.9105 123.01 79.9221 122.988 79.943C122.581 80.2316 122.112 80.4216 121.619 80.4982C121.126 80.5747 120.622 80.5356 120.146 80.384C120.116 80.3765 120.084 80.3802 120.056 80.3946C120.028 80.409 120.007 80.433 119.996 80.4622C119.987 80.4918 119.99 80.5236 120.005 80.5508C120.019 80.578 120.044 80.5983 120.074 80.6073C120.243 80.6563 120.417 80.6899 120.593 80.7078Z" fill="#263238"/>
<path d="M131.887 81.0315C131.123 82.0166 130.002 82.6622 128.766 82.8292C127.141 83.0413 126.6 81.5284 127.281 80.1159C127.901 78.8429 129.514 77.2015 131.01 77.6426C132.507 78.0836 132.825 79.8032 131.887 81.0315Z" fill="#FFB573"/>
<path d="M130.274 186.757C130.469 172.179 132.334 137.459 132.334 137.459L111.755 139.195C111.755 139.195 115.847 174.977 118.315 189.85C120.883 205.309 128.761 241.526 128.761 241.526L137.135 240.811C137.135 240.811 134.076 198.029 130.274 186.757Z" fill="#263238"/>
<path d="M128.258 241.755L138.19 240.912L137.799 237.707L127.449 238.399L128.258 241.755Z" fill="#4290FE"/>
<path d="M123.563 75.8059C123.513 76.2023 123.256 76.5037 123.005 76.4758C122.753 76.4479 122.58 76.1018 122.636 75.6998C122.692 75.2978 122.943 75.0019 123.195 75.0298C123.446 75.0578 123.619 75.4095 123.563 75.8059Z" fill="#263238"/>
<path d="M119.007 75.4487C118.957 75.8506 118.7 76.1465 118.449 76.1186C118.197 76.0907 118.024 75.7446 118.08 75.3482C118.136 74.9518 118.387 74.6503 118.638 74.6782C118.89 74.7061 119.063 75.0299 119.007 75.4487Z" fill="#263238"/>
<path d="M120.291 75.9175C119.619 76.9506 118.811 77.8894 117.891 78.709C118.482 79.3287 119.705 79.1612 119.705 79.1612L120.291 75.9175Z" fill="#ED893E"/>
<path opacity="0.4" d="M116.126 75.549C116.043 76.1855 116.685 76.7159 117.572 76.8275C118.46 76.9392 119.281 76.4535 119.359 75.817" fill="#4290FE"/>
<path opacity="0.4" d="M121.402 76.1408C121.279 76.7717 121.899 77.3411 122.77 77.5086C123.641 77.6761 124.495 77.2295 124.612 76.6042" fill="#4290FE"/>
<path d="M123.117 77.6816C123.016 77.6872 122.915 77.6872 122.815 77.6816C122.386 77.6303 121.983 77.4491 121.659 77.1624C121.518 77.0418 121.408 76.8891 121.338 76.7172C121.268 76.5452 121.241 76.359 121.257 76.1742C120.974 76.0508 120.672 75.9754 120.364 75.9509C120.054 75.8736 119.73 75.8736 119.421 75.9509C119.342 76.632 118.494 77.101 117.545 76.9837C117.115 76.9368 116.712 76.7573 116.389 76.4701C116.249 76.3489 116.139 76.1962 116.069 76.0244C115.999 75.8526 115.971 75.6667 115.987 75.4819L116.255 75.5154C116.244 75.6582 116.267 75.8015 116.322 75.9336C116.377 76.0657 116.464 76.1826 116.573 76.2747C116.855 76.5222 117.206 76.6763 117.578 76.7157C118.382 76.8218 119.097 76.4478 119.169 75.8895C119.208 75.5768 119.856 75.5991 120.392 75.6661C120.928 75.7331 121.564 75.8839 121.509 76.1909C121.497 76.3338 121.52 76.4773 121.575 76.6094C121.63 76.7416 121.717 76.8585 121.827 76.9502C122.112 77.1945 122.462 77.35 122.834 77.3976C123.206 77.4452 123.584 77.3829 123.921 77.2182C124.051 77.1577 124.164 77.0667 124.252 76.953C124.339 76.8393 124.398 76.7062 124.423 76.565V76.431L131.312 77.3187L131.279 77.5867L124.646 76.7325C124.598 76.8879 124.519 77.0319 124.413 77.1557C124.308 77.2795 124.178 77.3805 124.032 77.4527C123.75 77.602 123.436 77.6806 123.117 77.6816Z" fill="#263238"/>
<path d="M125.316 74.0529C125.356 74.053 125.395 74.0413 125.428 74.0194C125.482 73.9878 125.522 73.9362 125.538 73.8757C125.555 73.8151 125.547 73.7505 125.517 73.6955C125.344 73.3708 125.093 73.0939 124.788 72.8893C124.482 72.6848 124.13 72.559 123.764 72.5231C123.701 72.52 123.64 72.5417 123.593 72.5835C123.546 72.6252 123.517 72.6837 123.513 72.7464C123.51 72.8077 123.531 72.8678 123.571 72.9137C123.612 72.9596 123.669 72.9878 123.73 72.9921C124.02 73.0261 124.297 73.1303 124.538 73.2957C124.778 73.4611 124.974 73.6827 125.109 73.9412C125.131 73.9767 125.161 74.0059 125.197 74.0255C125.234 74.0452 125.275 74.0546 125.316 74.0529Z" fill="#263238"/>
<path d="M117.533 73.4219C117.572 73.4257 117.611 73.4201 117.647 73.4055C117.683 73.3909 117.715 73.3678 117.74 73.3382C117.92 73.1018 118.154 72.911 118.421 72.781C118.689 72.6511 118.983 72.5857 119.281 72.5901C119.312 72.5931 119.343 72.5901 119.372 72.5811C119.402 72.572 119.429 72.5572 119.453 72.5375C119.477 72.5178 119.497 72.4935 119.511 72.4661C119.526 72.4387 119.535 72.4088 119.538 72.3779C119.541 72.3478 119.539 72.3172 119.531 72.288C119.523 72.2587 119.509 72.2313 119.491 72.2074C119.472 72.1835 119.449 72.1636 119.422 72.1488C119.396 72.134 119.367 72.1245 119.337 72.1211C118.962 72.1113 118.589 72.1895 118.25 72.3495C117.911 72.5094 117.614 72.7467 117.382 73.0423C117.343 73.0897 117.323 73.151 117.329 73.2127C117.334 73.2745 117.363 73.3316 117.41 73.3717C117.447 73.3979 117.489 73.4151 117.533 73.4219Z" fill="#263238"/>
<path d="M147.419 184.406C143.148 162.454 142.188 145.286 138.135 136.951L118.198 139.184C118.198 139.184 130.073 171.895 135.873 185.858C141.897 200.373 153.789 225.173 153.789 225.173H163.749C163.749 225.173 154.454 194.405 147.419 184.406Z" fill="#263238"/>
<path d="M84.2251 101.303L82.0701 99.9411C81.7203 99.7158 81.3031 99.6188 80.8898 99.6666C80.4764 99.7145 80.0925 99.9042 79.8034 100.204L78.3406 101.744C78.1831 101.911 78.0613 102.108 77.9829 102.323C77.9045 102.538 77.871 102.767 77.8846 102.996C77.8982 103.224 77.9586 103.448 78.062 103.652C78.1654 103.857 78.3096 104.038 78.4858 104.184L79.5298 105.078C80.4379 105.847 81.4973 106.418 82.6395 106.752L85.7939 107.685L87.8652 105.452C88.4961 103.123 84.2251 101.303 84.2251 101.303Z" fill="#FFB573"/>
<path d="M116.127 100.259C115.345 102.169 114.58 103.944 113.748 105.759C112.916 107.573 112.073 109.365 111.141 111.146C110.209 112.927 109.215 114.697 108.087 116.472C107.529 117.355 106.909 118.237 106.206 119.124C105.449 120.103 104.588 120.996 103.637 121.787C103.01 122.301 102.317 122.729 101.577 123.06C101.343 123.15 101.125 123.239 100.868 123.317L100.477 123.423C100.281 123.472 100.081 123.507 99.88 123.529C99.1994 123.606 98.5106 123.557 97.8478 123.384C97.0192 123.152 96.2318 122.792 95.5141 122.318C94.9766 121.982 94.4635 121.609 93.9788 121.201C92.3675 119.795 90.8824 118.25 89.5403 116.584C88.2395 115.021 87.0112 113.452 85.8332 111.85C84.6552 110.247 83.5218 108.673 82.3606 106.993L88.5354 103.006C90.484 106.152 92.6401 109.164 94.9893 112.023C96.0692 113.347 97.2589 114.578 98.5457 115.702C98.7949 115.906 99.058 116.093 99.3329 116.26C99.5394 116.4 99.746 116.456 99.6009 116.405C99.4046 116.351 99.199 116.34 98.9979 116.372C98.9167 116.379 98.8363 116.394 98.7578 116.417H98.7132C98.6853 116.417 98.6853 116.417 98.6797 116.417C98.8066 116.334 98.9279 116.242 99.0426 116.143C99.5522 115.681 100.014 115.168 100.422 114.613C100.896 113.977 101.371 113.262 101.823 112.52C102.747 110.976 103.59 109.384 104.346 107.752C105.128 106.077 105.882 104.402 106.58 102.66C107.277 100.918 107.942 99.1484 108.506 97.4568L116.127 100.259Z" fill="#4290FE"/>
<g opacity="0.6">
<path opacity="0.6" d="M116.127 100.259C115.345 102.169 114.58 103.944 113.748 105.759C112.916 107.573 112.073 109.365 111.141 111.146C110.209 112.927 109.215 114.697 108.087 116.472C107.529 117.355 106.909 118.237 106.206 119.124C105.449 120.103 104.588 120.996 103.637 121.787C103.01 122.301 102.317 122.729 101.577 123.06C101.343 123.15 101.125 123.239 100.868 123.317L100.477 123.423C100.281 123.472 100.081 123.507 99.88 123.529C99.1994 123.606 98.5106 123.557 97.8478 123.384C97.0192 123.152 96.2318 122.792 95.5141 122.318C94.9766 121.982 94.4635 121.609 93.9788 121.201C92.3675 119.795 90.8824 118.25 89.5403 116.584C88.2395 115.021 87.0112 113.452 85.8332 111.85C84.6552 110.247 83.5218 108.673 82.3606 106.993L88.5354 103.006C90.484 106.152 92.6401 109.164 94.9893 112.023C96.0692 113.347 97.2589 114.578 98.5457 115.702C98.7949 115.906 99.058 116.093 99.3329 116.26C99.5394 116.4 99.746 116.456 99.6009 116.405C99.4046 116.351 99.199 116.34 98.9979 116.372C98.9167 116.379 98.8363 116.394 98.7578 116.417H98.7132C98.6853 116.417 98.6853 116.417 98.6797 116.417C98.8066 116.334 98.9279 116.242 99.0426 116.143C99.5522 115.681 100.014 115.168 100.422 114.613C100.896 113.977 101.371 113.262 101.823 112.52C102.747 110.976 103.59 109.384 104.346 107.752C105.128 106.077 105.882 104.402 106.58 102.66C107.277 100.918 107.942 99.1484 108.506 97.4568L116.127 100.259Z" fill="white"/>
</g>
<path d="M130.743 91.6894C128.649 95.5975 121.196 110.487 120.291 119.677C116.992 111.302 117.712 92.7781 117.712 92.7781C115.36 93.0073 113.054 93.5713 110.862 94.453C110.155 94.7432 109.543 95.2234 109.093 95.8403C108.642 96.4571 108.371 97.1866 108.31 97.9479C107.668 107.533 107.971 117.158 109.215 126.684C111.532 144.717 113.681 172.76 113.681 172.76C113.681 172.76 132.133 171.99 146.369 168.986C144.633 155.202 138.693 132.099 138.637 125.913C138.57 117.952 138.754 102.386 139.005 95.8878C139.048 94.9703 138.76 94.068 138.195 93.3441C137.63 92.6201 136.824 92.1223 135.924 91.9406C134.216 91.6241 132.473 91.5396 130.743 91.6894Z" fill="#4290FE"/>
<path opacity="0.7" d="M130.743 91.6894C128.649 95.5975 121.196 110.487 120.291 119.677C116.992 111.302 117.712 92.7781 117.712 92.7781C115.36 93.0073 113.054 93.5713 110.862 94.453C110.155 94.7432 109.543 95.2234 109.093 95.8403C108.642 96.4571 108.371 97.1866 108.31 97.9479C107.668 107.533 107.971 117.158 109.215 126.684C111.532 144.717 113.681 172.76 113.681 172.76C113.681 172.76 132.133 171.99 146.369 168.986C144.633 155.202 138.693 132.099 138.637 125.913C138.57 117.952 138.754 102.381 139.005 95.8822C139.058 94.9926 138.795 94.1129 138.263 93.3981C137.731 92.6832 136.964 92.1789 136.097 91.9741C134.334 91.6287 132.532 91.5328 130.743 91.6894Z" fill="white"/>
<path d="M126.393 169.768C123.189 152.086 120.648 126.142 120.442 123.021H120.727C120.933 126.142 123.479 152.053 126.678 169.734L126.393 169.768Z" fill="white"/>
<path d="M124.797 138.313H107.78C107.436 138.298 107.107 138.171 106.841 137.953C106.575 137.734 106.387 137.436 106.306 137.102L100.617 110.655C100.575 110.511 100.568 110.358 100.597 110.211C100.626 110.063 100.689 109.925 100.781 109.807C100.874 109.688 100.994 109.594 101.13 109.531C101.266 109.467 101.416 109.438 101.566 109.444H118.577C118.922 109.458 119.252 109.584 119.519 109.802C119.786 110.021 119.975 110.32 120.057 110.655L125.746 137.102C125.787 137.246 125.794 137.398 125.766 137.546C125.737 137.693 125.674 137.832 125.581 137.95C125.488 138.068 125.369 138.163 125.233 138.226C125.096 138.289 124.947 138.319 124.797 138.313Z" fill="white"/>
<path d="M124.266 138.536H106.959C106.609 138.52 106.274 138.391 106.003 138.169C105.733 137.946 105.541 137.643 105.457 137.302L99.6678 110.409C99.6264 110.262 99.6203 110.107 99.6502 109.957C99.6801 109.806 99.745 109.665 99.8397 109.545C99.9344 109.425 100.056 109.329 100.195 109.264C100.334 109.2 100.486 109.17 100.639 109.175H117.947C118.296 109.192 118.632 109.321 118.902 109.543C119.173 109.765 119.364 110.069 119.448 110.409L125.232 137.302C125.275 137.449 125.282 137.604 125.253 137.755C125.224 137.905 125.159 138.046 125.065 138.167C124.971 138.287 124.849 138.383 124.71 138.448C124.572 138.512 124.419 138.542 124.266 138.536Z" fill="#4290FE"/>
<path d="M126.249 123.362L121.944 123.2C121.427 123.182 120.911 123.273 120.431 123.468L118.198 124.361C117.988 124.444 117.798 124.568 117.637 124.727C117.477 124.885 117.351 125.074 117.265 125.283C117.18 125.491 117.137 125.715 117.14 125.94C117.143 126.166 117.191 126.388 117.282 126.594L118.176 128.526C118.356 128.901 118.66 129.202 119.036 129.379C119.412 129.556 119.838 129.597 120.241 129.497L122.703 128.883C122.703 128.883 127.326 128.515 127.494 126.092L126.249 123.362Z" fill="#FFB573"/>
<path d="M138.134 94.0845C139.201 95.7594 140.178 97.2892 141.138 98.9306C142.098 100.572 143.042 102.197 143.93 103.894C144.817 105.591 145.66 107.344 146.425 109.22C146.822 110.202 147.162 111.207 147.441 112.229C147.801 113.475 147.967 114.769 147.933 116.065V116.283C147.934 116.32 147.934 116.357 147.933 116.394C147.933 116.595 147.877 116.796 147.838 116.997C147.799 117.198 147.748 117.354 147.692 117.555C147.637 117.756 147.575 117.862 147.514 118.019C147.3 118.502 147.027 118.956 146.699 119.37C146.243 119.94 145.724 120.457 145.152 120.911C144.274 121.603 143.34 122.221 142.361 122.759C140.637 123.701 138.863 124.547 137.046 125.293C135.287 126.042 133.534 126.723 131.77 127.365C130.006 128.007 128.269 128.627 126.432 129.241L124.305 122.206C125.98 121.748 127.689 121.184 129.358 120.615C131.027 120.045 132.708 119.409 134.293 118.745C135.849 118.102 137.367 117.369 138.838 116.55C139.459 116.206 140.051 115.812 140.608 115.372C140.754 115.261 140.885 115.132 140.998 114.987C140.95 115.041 140.913 115.104 140.887 115.171C140.887 115.222 140.859 115.255 140.831 115.317C140.809 115.382 140.792 115.449 140.781 115.518C140.757 115.603 140.742 115.691 140.736 115.78C140.736 115.814 140.736 115.819 140.736 115.808V115.769C140.697 115.239 140.594 114.716 140.429 114.211C140.206 113.48 139.941 112.763 139.636 112.062C138.954 110.516 138.182 109.012 137.325 107.556C136.454 106.06 135.527 104.564 134.533 103.09C133.54 101.616 132.523 100.148 131.502 98.8077L138.134 94.0845Z" fill="#4290FE"/>
<g opacity="0.7">
<path opacity="0.7" d="M138.134 94.0845C139.201 95.7594 140.178 97.2892 141.138 98.9306C142.098 100.572 143.042 102.197 143.93 103.894C144.817 105.591 145.66 107.344 146.425 109.22C146.822 110.202 147.162 111.207 147.441 112.229C147.801 113.475 147.967 114.769 147.933 116.065V116.283C147.934 116.32 147.934 116.357 147.933 116.394C147.933 116.595 147.877 116.796 147.838 116.997C147.799 117.198 147.748 117.354 147.692 117.555C147.637 117.756 147.575 117.862 147.514 118.019C147.3 118.502 147.027 118.956 146.699 119.37C146.243 119.94 145.724 120.457 145.152 120.911C144.274 121.603 143.34 122.221 142.361 122.759C140.637 123.701 138.863 124.547 137.046 125.293C135.287 126.042 133.534 126.723 131.77 127.365C130.006 128.007 128.269 128.627 126.432 129.241L124.305 122.206C125.98 121.748 127.689 121.184 129.358 120.615C131.027 120.045 132.708 119.409 134.293 118.745C135.849 118.102 137.367 117.369 138.838 116.55C139.459 116.206 140.051 115.812 140.608 115.372C140.754 115.261 140.885 115.132 140.998 114.987C140.95 115.041 140.913 115.104 140.887 115.171C140.887 115.222 140.859 115.255 140.831 115.317C140.809 115.382 140.792 115.449 140.781 115.518C140.757 115.603 140.742 115.691 140.736 115.78C140.736 115.814 140.736 115.819 140.736 115.808V115.769C140.697 115.239 140.594 114.716 140.429 114.211C140.206 113.48 139.941 112.763 139.636 112.062C138.954 110.516 138.182 109.012 137.325 107.556C136.454 106.06 135.527 104.564 134.533 103.09C133.54 101.616 132.523 100.148 131.502 98.8077L138.134 94.0845Z" fill="white"/>
</g>
<path d="M132.484 113.458C132.447 113.457 132.411 113.447 132.379 113.429C132.346 113.41 132.319 113.383 132.3 113.351C132.284 113.327 132.273 113.3 132.267 113.271C132.262 113.242 132.262 113.212 132.268 113.184C132.274 113.155 132.286 113.128 132.304 113.104C132.321 113.08 132.342 113.06 132.367 113.044L133.238 112.486C134.051 111.973 134.689 111.226 135.068 110.343C135.447 109.459 135.549 108.482 135.36 107.54L133.607 98.6626C133.478 97.9989 133.13 97.3978 132.618 96.9567C132.105 96.5156 131.459 96.2601 130.784 96.2317C130.108 96.2033 129.443 96.4036 128.896 96.8001C128.348 97.1967 127.95 97.7664 127.767 98.417L125.282 107.121C125.011 108.041 125.026 109.022 125.325 109.933C125.624 110.845 126.194 111.643 126.957 112.224L127.784 112.849C127.83 112.885 127.86 112.939 127.868 112.997C127.875 113.056 127.859 113.115 127.823 113.162C127.805 113.185 127.783 113.204 127.758 113.218C127.733 113.232 127.706 113.242 127.677 113.245C127.649 113.249 127.62 113.247 127.592 113.239C127.564 113.232 127.538 113.218 127.516 113.201L126.734 112.581C125.894 111.949 125.267 111.076 124.935 110.079C124.603 109.082 124.582 108.007 124.875 106.998L127.365 98.2941C127.579 97.5509 128.036 96.9011 128.663 96.4489C129.291 95.9966 130.052 95.7683 130.824 95.8005C131.597 95.8327 132.337 96.1236 132.924 96.6264C133.512 97.1292 133.913 97.8149 134.064 98.5733L135.818 107.456C136.024 108.485 135.914 109.553 135.5 110.519C135.086 111.484 134.389 112.3 133.501 112.86L132.624 113.418C132.605 113.434 132.582 113.446 132.558 113.452C132.534 113.459 132.509 113.461 132.484 113.458Z" fill="#263238"/>
<path d="M133.825 98.8469L127.555 98.5845C127.526 98.583 127.497 98.5758 127.47 98.5633C127.444 98.5507 127.42 98.533 127.4 98.5112C127.38 98.4895 127.365 98.464 127.355 98.4363C127.345 98.4087 127.341 98.3793 127.343 98.35C127.348 98.2917 127.375 98.2377 127.419 98.1984C127.462 98.1592 127.519 98.1376 127.577 98.1378L133.841 98.4002C133.871 98.4017 133.899 98.4089 133.926 98.4214C133.953 98.434 133.976 98.4517 133.996 98.4735C134.016 98.4952 134.031 98.5207 134.041 98.5484C134.051 98.576 134.055 98.6054 134.053 98.6347C134.053 98.6638 134.046 98.6924 134.034 98.719C134.022 98.7455 134.005 98.7693 133.984 98.7891C133.962 98.8089 133.937 98.8242 133.91 98.8341C133.883 98.844 133.854 98.8484 133.825 98.8469Z" fill="#263238"/>
<path d="M130.776 96.2453C130.719 96.2439 130.663 96.2207 130.622 96.1803C130.581 96.1399 130.556 96.0853 130.553 96.0275C130.553 94.9109 130.207 92.9736 129.163 92.5493C129.134 92.5396 129.107 92.5241 129.085 92.5037C129.062 92.4834 129.044 92.4586 129.031 92.4309C129.018 92.4032 129.011 92.3732 129.011 92.3427C129.01 92.3122 129.016 92.282 129.027 92.2537C129.038 92.2255 129.056 92.1999 129.077 92.1785C129.099 92.1571 129.125 92.1404 129.153 92.1294C129.182 92.1184 129.212 92.1133 129.243 92.1145C129.273 92.1156 129.303 92.123 129.33 92.1362C130.877 92.7726 131.005 95.687 131.005 96.0443C131.005 96.1031 130.983 96.1597 130.942 96.2023C130.902 96.2449 130.846 96.2703 130.788 96.2732L130.776 96.2453Z" fill="#263238"/>
<path d="M111.599 103.833H111.554C111.496 103.821 111.446 103.786 111.414 103.737C111.381 103.688 111.369 103.628 111.381 103.57C112.118 99.9022 115.166 94.1126 117.852 92.4042C117.876 92.389 117.903 92.3788 117.932 92.3742C117.96 92.3696 117.99 92.3707 118.018 92.3774C118.046 92.3842 118.072 92.3965 118.095 92.4135C118.119 92.4306 118.138 92.4521 118.153 92.4768C118.169 92.5007 118.181 92.5277 118.186 92.5561C118.191 92.5845 118.191 92.6138 118.185 92.642C118.178 92.6702 118.166 92.6969 118.15 92.7203C118.133 92.7438 118.111 92.7635 118.086 92.7783C115.49 94.4197 112.531 100.036 111.816 103.648C111.807 103.7 111.781 103.746 111.741 103.78C111.701 103.813 111.651 103.832 111.599 103.833Z" fill="#263238"/>
<path d="M113.43 104.407C113.084 105.295 112.313 105.831 111.755 105.602C111.197 105.373 110.979 104.486 111.325 103.576C111.671 102.666 112.442 102.152 113 102.386C113.558 102.621 113.782 103.52 113.43 104.407Z" fill="white"/>
<path d="M128.169 113.056C128.169 113.469 127.912 113.798 127.638 113.787C127.365 113.776 127.153 113.43 127.17 113.011C127.186 112.592 127.426 112.263 127.7 112.28C127.973 112.296 128.186 112.637 128.169 113.056Z" fill="white"/>
<path d="M132.981 113.257C132.981 113.67 132.73 113.999 132.451 113.988C132.172 113.977 131.971 113.631 131.988 113.212C132.004 112.793 132.239 112.469 132.546 112.481C132.853 112.492 132.998 112.855 132.981 113.257Z" fill="white"/>
<path d="M227.657 105.513L227.099 105.48C227.192 104.291 227.037 103.096 226.643 101.97C226.25 100.845 225.627 99.8135 224.814 98.9416C224.001 98.0696 223.015 97.3762 221.92 96.9053C220.825 96.4344 219.643 96.1963 218.451 96.2062V95.6479C219.72 95.6371 220.977 95.8901 222.143 96.3908C223.308 96.8916 224.357 97.6291 225.223 98.5567C226.088 99.4842 226.752 100.582 227.171 101.779C227.59 102.977 227.756 104.248 227.657 105.513Z" fill="#4290FE"/>
<path d="M227.952 107.854L227.628 112.477L228.187 112.516L228.51 107.893L227.952 107.854Z" fill="#4290FE"/>
<path d="M218.451 97.602H179.928C177.824 97.6365 175.809 98.4524 174.273 99.8909C172.738 101.329 171.792 103.288 171.621 105.385L171.269 110.571C171.189 111.569 171.318 112.573 171.647 113.518C171.977 114.464 172.5 115.33 173.182 116.062C173.865 116.795 174.693 117.377 175.613 117.771C176.534 118.166 177.526 118.364 178.527 118.354H217.05L224.52 122.96L225.703 105.385C225.784 104.387 225.656 103.383 225.327 102.438C224.998 101.493 224.476 100.626 223.794 99.8937C223.111 99.1614 222.284 98.5794 221.364 98.1848C220.444 97.7902 219.452 97.5917 218.451 97.602Z" fill="#4290FE"/>
<path d="M216.497 105.033H180.816V106.328H216.497V105.033Z" fill="white"/>
<path d="M216.185 109.628H189.693V110.923H216.185V109.628Z" fill="white"/>
<path d="M160.5 125.35H199.871C200.894 125.338 201.909 125.541 202.85 125.944C203.791 126.347 204.638 126.942 205.336 127.691C206.034 128.439 206.568 129.325 206.905 130.292C207.242 131.259 207.373 132.285 207.291 133.305L206.933 138.609C206.756 140.752 205.789 142.753 204.22 144.223C202.651 145.693 200.592 146.528 198.442 146.565H159.065L150.791 151.283L152.008 133.305C152.183 131.162 153.15 129.16 154.719 127.69C156.289 126.219 158.349 125.385 160.5 125.35Z" fill="white"/>
<path opacity="0.15" d="M160.5 125.35H199.871C200.894 125.338 201.909 125.541 202.85 125.944C203.791 126.347 204.638 126.942 205.336 127.691C206.034 128.439 206.568 129.325 206.905 130.292C207.242 131.259 207.373 132.285 207.291 133.305L206.933 138.609C206.756 140.752 205.789 142.753 204.22 144.223C202.651 145.693 200.592 146.528 198.442 146.565H159.065L150.791 151.283L152.008 133.305C152.183 131.162 153.15 129.16 154.719 127.69C156.289 126.219 158.349 125.385 160.5 125.35Z" fill="#4290FE"/>
<path opacity="0.5" d="M197.872 132.948H161.382V134.277H197.872V132.948Z" fill="#4290FE"/>
<path opacity="0.5" d="M175.484 137.643H161.064V138.972H175.484V137.643Z" fill="#4290FE"/>
<path opacity="0.5" d="M188.231 137.643H179.019V138.972H188.231V137.643Z" fill="#4290FE"/>
</svg>
