<svg width="38" height="37" viewBox="0 0 38 37" fill="none" xmlns="http://www.w3.org/2000/svg">
<rect x="0.5" width="37" height="37" rx="18.5" fill="#FA704E"/>
<path d="M7.65008 9.18009C7.67411 9.17663 7.69642 9.17318 7.72045 9.17145C7.7616 9.16453 7.80465 9.15761 7.84753 9.1526C7.78062 9.16124 7.71526 9.16972 7.65008 9.18009ZM9.56579 9.15605C9.60694 9.16124 9.64826 9.16815 9.68941 9.1749C9.71344 9.17663 9.73747 9.18008 9.7615 9.18354C9.69632 9.17489 9.63114 9.16452 9.56579 9.15605ZM9.56579 9.15605C9.60694 9.16124 9.64826 9.16815 9.68941 9.1749C9.71344 9.17663 9.73747 9.18008 9.7615 9.18354C9.69632 9.17489 9.63114 9.16452 9.56579 9.15605ZM7.65008 9.18009C7.67411 9.17663 7.69642 9.17318 7.72045 9.17145C7.7616 9.16453 7.80465 9.15761 7.84753 9.1526C7.78062 9.16124 7.71526 9.16972 7.65008 9.18009ZM7.65008 9.18009C7.67411 9.17663 7.69642 9.17318 7.72045 9.17145C7.7616 9.16453 7.80465 9.15761 7.84753 9.1526C7.78062 9.16124 7.71526 9.16972 7.65008 9.18009ZM9.56579 9.15605C9.60694 9.16124 9.64826 9.16815 9.68941 9.1749C9.71344 9.17663 9.73747 9.18008 9.7615 9.18354C9.69632 9.17489 9.63114 9.16452 9.56579 9.15605ZM9.68941 9.1749C9.71344 9.17663 9.73747 9.18008 9.7615 9.18354C9.69615 9.17489 9.63097 9.16469 9.56561 9.15605C9.60693 9.16124 9.64826 9.16798 9.68941 9.1749ZM7.72045 9.17145C7.7616 9.16453 7.80465 9.15761 7.84753 9.1526C7.78045 9.16124 7.71544 9.16972 7.65008 9.18009C7.67429 9.17663 7.69642 9.17318 7.72045 9.17145ZM7.91635 13.1851C7.91635 11.3174 8.86641 9.74356 10.1654 9.26256C10.0074 9.22815 9.84934 9.19893 9.68941 9.1749C9.03482 9.09242 8.37504 9.08897 7.72045 9.17145C7.51592 9.20412 7.31674 9.24354 7.11566 9.29005C6.71368 9.38635 6.33382 9.16625 6.20674 8.77464C6.08813 8.40343 6.34765 7.95511 6.72387 7.86573C7.38884 7.7077 8.07783 7.62695 8.76164 7.63369C11.1551 7.65599 13.5569 8.68007 15.1618 10.467C15.4384 10.7745 15.4453 11.204 15.1618 11.5116C14.9023 11.7952 14.3767 11.8002 14.1171 11.5116C13.9539 11.3295 13.7838 11.156 13.6052 10.9927C13.9128 11.625 14.0896 12.3776 14.0896 13.1851C14.0896 15.4376 12.7082 17.2639 11.0038 17.2639C9.29779 17.2641 7.91635 15.4376 7.91635 13.1851ZM27.3934 29.2825C27.0514 29.4096 26.7113 29.3719 26.3901 29.2567C25.8608 29.0814 25.3558 28.8805 24.8387 28.7069C21.2357 27.4887 17.2891 27.4372 13.6534 28.5506C12.9215 28.7723 12.2016 29.0747 11.4645 29.305C10.4216 29.6349 9.43024 28.5816 9.81338 27.5661C11.2 23.9305 15.2531 21.9013 19.0055 21.9494C21.8506 21.9306 24.8506 23.0387 26.7492 25.207C27.3592 25.9079 27.878 26.6915 28.1958 27.566C28.4482 28.2619 28.0891 29.0299 27.3934 29.2825ZM31.8021 8.77464C31.711 9.17317 31.2694 9.37944 30.8932 9.29005C30.6973 9.24371 30.4979 9.20411 30.2988 9.17317C29.6424 9.08897 28.9792 9.0907 28.3229 9.1749C28.0257 9.2195 27.7302 9.2814 27.4397 9.35868C28.6184 9.93253 29.4586 11.4309 29.4586 13.1851C29.4586 15.4376 28.0755 17.2639 26.371 17.2639C24.6666 17.2639 23.2834 15.4374 23.2834 13.1851C23.2834 12.6679 23.3573 12.1714 23.4913 11.716C23.2627 11.7469 23.017 11.6679 22.8469 11.5114C22.5428 11.2313 22.5891 10.7538 22.8469 10.4668C23.3039 9.95985 23.8296 9.51498 24.395 9.13357C26.3847 7.7848 28.9481 7.30882 31.2865 7.86555C31.6887 7.96185 31.888 8.39478 31.8021 8.77464ZM9.56579 9.15605C9.60694 9.16124 9.64826 9.16815 9.68941 9.1749C9.71344 9.17663 9.73747 9.18008 9.7615 9.18354C9.69632 9.17489 9.63114 9.16452 9.56579 9.15605ZM7.65008 9.18009C7.67411 9.17663 7.69642 9.17318 7.72045 9.17145C7.7616 9.16453 7.80465 9.15761 7.84753 9.1526C7.78062 9.16124 7.71526 9.16972 7.65008 9.18009ZM7.65008 9.18009C7.67411 9.17663 7.69642 9.17318 7.72045 9.17145C7.7616 9.16453 7.80465 9.15761 7.84753 9.1526C7.78062 9.16124 7.71526 9.16972 7.65008 9.18009ZM9.56579 9.15605C9.60694 9.16124 9.64826 9.16815 9.68941 9.1749C9.71344 9.17663 9.73747 9.18008 9.7615 9.18354C9.69632 9.17489 9.63114 9.16452 9.56579 9.15605ZM9.56579 9.15605C9.60694 9.16124 9.64826 9.16815 9.68941 9.1749C9.71344 9.17663 9.73747 9.18008 9.7615 9.18354C9.69632 9.17489 9.63114 9.16452 9.56579 9.15605ZM7.65008 9.18009C7.67411 9.17663 7.69642 9.17318 7.72045 9.17145C7.7616 9.16453 7.80465 9.15761 7.84753 9.1526C7.78062 9.16124 7.71526 9.16972 7.65008 9.18009Z" fill="white"/>
</svg>
