<svg width="137" height="65" viewBox="0 0 137 65" fill="none" xmlns="http://www.w3.org/2000/svg">
<path d="M126.74 45.3771C124.437 42.1581 127.931 38.6313 131.358 35.7393C134.785 32.847 138.436 29.41 136.427 26.1303C134.713 23.3318 129.275 21.5728 127.912 18.7152C125.85 14.3935 134.055 10.0014 131.693 5.72772C129.748 2.20658 121.669 0.987816 115.135 1.55838C108.6 2.12895 102.44 3.88104 95.8293 4.00382C87.678 4.15528 80.1216 1.83081 72.2156 0.714892C60.0877 -0.99698 46.8277 0.442297 36.3465 4.21115C30.2822 4.32289 24.3745 5.08777 19.8457 7.24512C16.2005 8.98155 13.9821 12.3036 17.2518 14.2582C19.3299 15.5006 22.8337 15.6926 25.0441 16.8619C28.5823 18.7338 27.0489 22.2093 23.5605 24.1099C20.0718 26.0104 15.2595 26.9164 11.1071 28.3441C6.95466 29.7719 3.13307 32.1982 3.84916 34.8867C4.40812 36.9844 7.62311 38.6978 7.74709 40.8174C7.88913 43.2506 4.03528 45.0877 1.90181 47.2126C-1.11877 50.2209 -0.489382 54.2412 3.42069 56.913C7.33046 59.5847 14.2732 60.7388 20.1727 59.6979C25.9721 58.6744 30.9279 55.755 36.9773 56.1128C45.613 56.6237 49.0073 63.2421 57.2831 64.7078C63.635 65.8326 70.1786 63.5104 75.3214 61.149C80.4642 58.7877 86.1698 56.1023 92.8143 56.3927C99.5615 56.6875 104.603 59.9647 110.98 61.2275C116.966 62.4128 124.17 61.5865 128.583 59.0413C132.997 56.4962 134.179 52.3224 131.089 49.2307C129.761 47.9024 127.751 46.7894 126.74 45.3771Z" fill="#F1F9FE" fill-opacity="0.74"/>
</svg>
