<svg width="95" height="81" viewBox="0 0 95 81" fill="none" xmlns="http://www.w3.org/2000/svg">
<path d="M25.4271 69.4343L13.8917 80.9697C5.309 72.3861 0 60.5289 0 47.4307H16.3125C16.3125 56.0237 19.7953 63.8034 25.4271 69.4343Z" fill="#559952"/>
<path d="M25.4271 25.427C19.7953 31.0578 16.3125 38.8376 16.3125 47.4306H0C0 34.3324 5.309 22.4751 13.8917 13.8916L25.4271 25.427Z" fill="#7BC165"/>
<path d="M47.4296 0V16.3125C38.8366 16.3125 31.0569 19.7953 25.426 25.4271L13.8906 13.8917C22.4742 5.309 34.3314 0 47.4296 0Z" fill="#B3DB6E"/>
<path d="M80.9706 13.8917L69.4353 25.4271C63.8044 19.7953 56.0247 16.3125 47.4316 16.3125V0C60.5298 0 72.3871 5.309 80.9706 13.8917Z" fill="#FFD561"/>
<path d="M94.8606 47.4306H78.5481C78.5481 38.8376 75.0653 31.0578 69.4336 25.427L80.969 13.8916C89.5516 22.4751 94.8606 34.3324 94.8606 47.4306Z" fill="#FF994D"/>
<path d="M94.8606 47.4307C94.8606 60.5289 89.5516 72.3861 80.969 80.9697L69.4336 69.4343C75.0653 63.8034 78.5481 56.0237 78.5481 47.4307H94.8606Z" fill="#E54C4C"/>
</svg>
