<svg width="375" height="803" viewBox="0 0 375 803" fill="none" xmlns="http://www.w3.org/2000/svg">
<g clip-path="url(#clip0_12_421)">
<rect width="375" height="803" fill="white"/>
<path d="M224.913 305.697C139.266 325.957 64.453 261.523 -7.26382 282.115C-50.0876 288.758 -136.561 302.774 -139.863 305.697C-143.165 308.619 -85.8307 375.657 -87.0346 407.653C-87.0346 407.653 -226.5 725 190.814 725C587 725 458.095 407.653 458.095 407.653C501.435 373.221 606.302 359.635 557.184 320.31C495.786 271.155 310.56 285.436 224.913 305.697Z" fill="#00A0F0" fill-opacity="0.2"/>
<path d="M167.087 376.899C252.734 364.389 327.547 404.174 399.264 391.459C442.088 387.358 528.561 378.703 531.863 376.899C535.165 375.094 477.831 333.702 479.035 313.946C479.035 313.946 618.5 118 201.185 118C-195 118 -66.0953 313.946 -66.0953 313.946C-109.435 335.206 -214.302 343.594 -165.184 367.875C-103.786 398.227 81.4395 389.408 167.087 376.899Z" fill="#00A0F0" fill-opacity="0.2"/>
<path d="M281.004 375.905C192.025 391.197 114.303 342.563 39.7966 358.106C-4.69282 363.12 -94.5292 373.699 -97.9597 375.905C-101.39 378.111 -104.749 426.961 -106 451.111L554.909 502C599.934 476.012 677.228 416.616 626.199 386.935C562.413 349.833 369.983 360.613 281.004 375.905Z" fill="#00A0F0" fill-opacity="0.2"/>
</g>
<defs>
<clipPath id="clip0_12_421">
<rect width="375" height="803" fill="white"/>
</clipPath>
</defs>
</svg>
