<svg width="20" height="19" viewBox="0 0 20 19" fill="none" xmlns="http://www.w3.org/2000/svg">
<path fill-rule="evenodd" clip-rule="evenodd" d="M9.92496 2.05398C14.6559 -0.367809 17.549 1.02307 18.7617 3.40766C19.4097 4.68215 19.9316 6.94306 19.6219 9.30226H15.2378L14.6654 8.10971C14.4287 7.54637 13.6361 7.4873 13.3276 8.03103L12.8606 8.85379L11.9038 5.04841C11.75 4.28221 10.6537 4.23671 10.4468 4.99939L9.42221 8.76908L9.08285 7.51344C8.93202 6.94683 8.20102 6.76156 7.80283 7.21153L5.94766 9.30226H0.227811C-0.0818864 6.94306 0.439974 4.68215 1.08828 3.40766C2.30067 1.02307 5.19378 -0.367809 9.92496 2.05398ZM19.3079 10.8002C18.2941 14.2595 13.0684 18.2969 9.92496 18.8537C6.78148 18.2966 1.55584 14.2597 0.542034 10.8005H6.28074C6.52709 10.8005 6.74554 10.6813 6.88204 10.4981L7.99941 9.23891L8.69598 11.8301C8.89356 12.5692 9.94231 12.5616 10.1409 11.8326L11.1419 8.15245L11.8641 11.0255C12.0333 11.7027 12.9521 11.7917 13.259 11.1786L13.9224 10.0094L14.0971 10.3731C14.225 10.6409 14.4917 10.7972 14.77 10.7975L19.3079 10.8002Z" fill="#CA6B6E"/>
</svg>
