<svg width="40" height="40" viewBox="0 0 40 40" fill="none" xmlns="http://www.w3.org/2000/svg">
<path d="M20 5V4V5ZM35 17.667L36 17.6671V17.667H35ZM10 21.667L9.97339 22.6666L9.98669 22.667H10V21.667ZM9.74316 21.6602L9.69263 22.6589L9.70459 22.6595L9.71656 22.6598L9.74316 21.6602ZM5 16.667H4V16.6671L5 16.667ZM27.1424 9.03888L26.2858 9.55491L27.1424 9.03888ZM27.983 10.4156L27.1705 10.9985L27.983 10.4156ZM30.1808 11.6574L30.1008 12.6542L30.1808 11.6574ZM20 5V6C22.6664 6 25.0012 7.42254 26.2858 9.55491L27.1424 9.03888L27.999 8.52285C26.3676 5.81487 23.3964 4 20 4V5ZM31 11.667V12.667C32.6569 12.667 34 14.0101 34 15.667H35H36C36 12.9056 33.7614 10.667 31 10.667V11.667ZM35 15.667H34V17.667H35H36V15.667H35ZM35 17.667L34 17.6669C33.9999 19.3238 32.6567 20.667 31 20.667V21.667V22.667C33.7614 22.667 35.9998 20.4282 36 17.6671L35 17.667ZM31 21.667V20.667H10V21.667V22.667H31V21.667ZM10 21.667L10.0266 20.6673L9.76977 20.6605L9.74316 21.6602L9.71656 22.6598L9.97339 22.6666L10 21.667ZM9.74316 21.6602L9.7937 20.6614C7.68096 20.5545 6.00014 18.8067 6 16.6669L5 16.667L4 16.6671C4.0002 19.8775 6.52145 22.4984 9.69263 22.6589L9.74316 21.6602ZM5 16.667H6C6 14.4579 7.79086 12.667 10 12.667V11.667V10.667C6.68629 10.667 4 13.3533 4 16.667H5ZM12.3942 9.92441L13.3065 10.3339C14.454 7.77728 17.0203 6 20 6V5V4C16.204 4 12.94 6.26612 11.4819 9.51494L12.3942 9.92441ZM10 11.667V12.667C11.5778 12.667 12.7623 11.5464 13.3065 10.3339L12.3942 9.92441L11.4819 9.51494C11.1522 10.2495 10.5564 10.667 10 10.667V11.667ZM27.1424 9.03888L26.2858 9.55491C26.7781 10.372 27.0695 10.8578 27.1705 10.9985L27.983 10.4156L28.7956 9.83274C28.799 9.83752 28.7855 9.81813 28.742 9.74864C28.7034 9.68697 28.6512 9.60209 28.5833 9.49049C28.4476 9.26754 28.2564 8.95016 27.999 8.52285L27.1424 9.03888ZM31 11.667V10.667C30.5033 10.667 30.3287 10.666 30.2608 10.6606L30.1808 11.6574L30.1008 12.6542C30.2724 12.6679 30.5641 12.667 31 12.667V11.667ZM27.983 10.4156L27.1705 10.9985C27.5246 11.4922 27.8849 11.9403 28.4052 12.2342C28.9255 12.5282 29.4952 12.6056 30.1008 12.6542L30.1808 11.6574L30.2608 10.6606C29.6796 10.614 29.4974 10.5542 29.389 10.493C29.2806 10.4317 29.1354 10.3065 28.7956 9.83274L27.983 10.4156Z" fill="#FBBF24"/>
<path d="M20 31.6668V28.3335" stroke="#FBBF24" stroke-width="2" stroke-linecap="round"/>
<path d="M28.3335 33.3335V28.3335" stroke="#FBBF24" stroke-width="2" stroke-linecap="round"/>
<path d="M11.6665 35.0002V28.3335" stroke="#FBBF24" stroke-width="2" stroke-linecap="round"/>
</svg>
