<svg width="279" height="331" viewBox="0 0 279 331" fill="none" xmlns="http://www.w3.org/2000/svg">
<path d="M209.865 144.12C214.182 137.982 224.156 145.832 224.944 156.905C226.698 168.693 217.421 200.663 201.381 207.222" stroke="#0072BC" stroke-width="2.3274"/>
<path d="M70.0987 143.534C65.8805 137.327 55.7818 145.018 54.8175 156.076C52.8745 167.835 61.6399 199.949 77.5724 206.763" stroke="#0072BC" stroke-width="2.3274"/>
<path d="M138.162 55.5292C89.5429 55.5292 73.0471 96.8243 71.0436 117.639C69.7579 130.996 69.0401 163.386 72.0454 170.732C75.7185 181.418 80.5431 224.828 81.0613 227.833C83.0187 239.186 106.105 259.89 107.107 260.557C108.109 261.225 119.886 272.954 124.805 274.248C131.15 275.918 146.176 276.586 153.188 274.248C160.869 272.912 168.549 262.895 172.222 259.89C174.559 257.552 196.381 239.186 198.602 227.833C201.672 212.139 204.395 181.418 206.95 170.732C210.623 155.372 209.621 129.994 208.286 115.635C204.946 95.5999 189.586 55.5292 138.162 55.5292Z" fill="#0072BC" fill-opacity="0.3" stroke="#0072BC" stroke-width="2.3274"/>
<path d="M109.642 76.4765L122.443 124.77M109.642 76.4765H169.573M109.642 76.4765L78.2224 93.932M122.443 124.77H156.772M122.443 124.77L109.642 140.48M122.443 124.77L78.2224 93.932M156.772 124.77L169.573 76.4765M156.772 124.77L169.573 140.48M156.772 124.77L202.157 93.932M169.573 76.4765L202.157 93.932M109.642 140.48L139.317 167.827M109.642 140.48H86.9502M139.317 167.827L169.573 140.48M139.317 167.827L168.409 184.701M139.317 167.827L111.97 184.701M139.317 167.827L150.372 199.829M139.317 167.827L128.262 199.829M169.573 140.48H192.265M202.157 93.932L192.265 140.48M192.265 140.48L207.975 167.245L168.409 184.701M78.2224 93.932L86.9502 140.48M86.9502 140.48L71.2402 167.245L111.97 184.701M168.409 184.701L150.372 199.829M168.409 184.701L168.991 235.904M168.409 184.701L196.92 230.085L168.991 235.904M150.372 199.829H128.262M150.372 199.829L139.317 209.72L128.262 199.829M150.372 199.829L168.991 235.904M128.262 199.829L111.97 184.701M128.262 199.829L109.642 235.904M111.97 184.701L109.642 235.904M111.97 184.701L81.7135 230.085L109.642 235.904M168.991 235.904L139.317 254.523M168.991 235.904L170.737 261.505L139.317 254.523M139.317 254.523L109.642 235.904M139.317 254.523L108.479 261.505L109.642 235.904" stroke="black" stroke-width="0.581851" stroke-linecap="round" stroke-dasharray="2.33 2.33"/>
<circle cx="169.215" cy="235.848" r="2.00353" fill="black"/>
<circle cx="139.162" cy="254.547" r="2.00353" fill="black"/>
<circle cx="109.778" cy="235.848" r="2.00353" fill="black"/>
<circle cx="81.9713" cy="229.762" r="2.00353" fill="black"/>
<circle cx="71.4982" cy="166.922" r="2.00353" fill="black"/>
<circle cx="207.651" cy="166.922" r="2.00353" fill="black"/>
<circle cx="197.178" cy="229.762" r="2.00353" fill="black"/>
<circle cx="170.413" cy="261.182" r="2.00353" fill="black"/>
<circle cx="108.737" cy="261.182" r="2.00353" fill="black"/>
<circle cx="139.162" cy="209.801" r="2.00353" fill="black"/>
<circle cx="150.516" cy="199.784" r="2.00353" fill="black"/>
<circle cx="168.085" cy="184.378" r="2.00353" fill="black"/>
<circle cx="111.781" cy="184.424" r="2.00353" fill="black"/>
<circle cx="128.478" cy="199.784" r="2.00353" fill="black"/>
<circle cx="139.162" cy="167.729" r="2.00353" fill="black"/>
<circle cx="122.467" cy="124.986" r="2.00353" fill="black"/>
<circle cx="109.778" cy="140.345" r="2.00353" fill="black"/>
<circle cx="169.215" cy="140.345" r="2.00353" fill="black"/>
<circle cx="191.922" cy="140.345" r="2.00353" fill="black"/>
<circle cx="201.833" cy="93.6093" r="2.00353" fill="black"/>
<circle cx="78.4801" cy="93.6093" r="2.00353" fill="black"/>
<circle cx="156.526" cy="124.986" r="2.00353" fill="black"/>
<circle cx="87.0704" cy="140.345" r="2.00353" fill="black"/>
<circle cx="109.778" cy="76.2331" r="2.00353" fill="black"/>
<circle cx="169.215" cy="76.2331" r="2.00353" fill="black"/>
<path d="M233.577 2H253.36C260.951 2 264.746 2 267.74 3.24014C271.732 4.89366 274.904 8.06526 276.557 12.0572C277.797 15.0512 277.797 18.8467 277.797 26.4377V41.5658" stroke="#0072BC" stroke-width="2.3274" stroke-linecap="round"/>
<path d="M45.0571 2H26.4379C18.8469 2 15.0514 2 12.0574 3.24014C8.06544 4.89366 4.89385 8.06526 3.24033 12.0572C2.00019 15.0512 2.00019 18.8467 2.00019 26.4377V42.7295" stroke="#0072BC" stroke-width="2.3274" stroke-linecap="round"/>
<path d="M233.577 329H253.36C260.951 329 264.746 329 267.74 327.76C271.732 326.106 274.904 322.935 276.557 318.943C277.797 315.949 277.797 312.153 277.797 304.562V288.27" stroke="#0072BC" stroke-width="2.3274" stroke-linecap="round"/>
<path d="M45.0571 329H26.4379C18.8469 329 15.0514 329 12.0574 327.76C8.06544 326.106 4.89385 322.935 3.24033 318.943C2.00019 315.949 2.00019 312.153 2.00019 304.562V288.27" stroke="#0072BC" stroke-width="2.3274" stroke-linecap="round"/>
<line x1="2.87278" y1="188.482" x2="276.924" y2="188.482" stroke="#0072BC" stroke-width="1.74555" stroke-linecap="round"/>
<path d="M2.58185 189.937H277.215V308.999C277.215 319.723 268.521 328.417 257.797 328.417H22C11.2757 328.417 2.58185 319.723 2.58185 308.999V189.937Z" fill="url(#paint0_linear_44_436)" stroke="#0072BC" stroke-width="1.1637"/>
<defs>
<linearGradient id="paint0_linear_44_436" x1="140.48" y1="98.9143" x2="140.48" y2="328.999" gradientUnits="userSpaceOnUse">
<stop offset="0.145833" stop-color="#0072BC"/>
<stop offset="1" stop-color="#DDF4EE" stop-opacity="0"/>
</linearGradient>
</defs>
</svg>
