<svg width="132" height="132" viewBox="0 0 132 132" fill="none" xmlns="http://www.w3.org/2000/svg">
<g clip-path="url(#clip0_2768_2145)">
<path d="M24.75 0H107.25C120.92 0 132 11.0798 132 24.75V107.25C132 120.92 120.92 132 107.25 132H24.75C11.0798 132 0 120.92 0 107.25V24.75C0 11.0798 11.0798 0 24.75 0Z" fill="#FFE6E2"/>
<path d="M96.2477 54.9986C94.7297 54.9986 93.4963 53.7694 93.4963 52.2473V41.25C93.4963 39.732 92.2629 38.4986 90.7449 38.4986H79.7436C78.2256 38.4986 76.9922 37.2694 76.9922 35.7473C76.9922 34.2251 78.2297 33 79.7477 33H90.7491C95.2989 33 98.9991 36.7001 98.9991 41.25V52.2514C98.9991 53.7694 97.7698 54.9986 96.2477 54.9986Z" fill="#FC573B"/>
<path d="M90.7508 99H79.7494C78.2314 99 76.998 97.7708 76.998 96.2487C76.998 94.7265 78.2314 93.4973 79.7494 93.4973H90.7508C92.2688 93.4973 93.5022 92.2639 93.5022 90.7459V79.7445C93.5022 78.2265 94.7355 76.9932 96.2535 76.9932C97.7715 76.9932 99.0008 78.2307 99.0008 79.7487V90.75C99.0008 95.2999 95.3007 99 90.7508 99Z" fill="#FC573B"/>
<path d="M52.2514 99.0001H41.25C36.7001 99.0001 33 95.2999 33 90.7501V79.7487C33 78.2307 34.2334 76.9973 35.7514 76.9973C37.2694 76.9973 38.5027 78.2266 38.5027 79.7487V90.7501C38.5027 92.2681 39.7361 93.5014 41.2541 93.5014H52.2555C53.7735 93.5014 55.0069 94.7307 55.0069 96.2528C55.0069 97.7749 53.7694 99.0001 52.2514 99.0001Z" fill="#FC573B"/>
<path d="M35.7514 54.9986C34.2292 54.9986 33 53.7694 33 52.2514V41.25C33 36.7001 36.7001 33 41.25 33H52.2514C53.7694 33 55.0027 34.2292 55.0027 35.7514C55.0027 37.2735 53.7694 38.5027 52.2514 38.5027H41.25C39.732 38.5027 38.4986 39.7361 38.4986 41.2541V52.2555C38.4986 53.7694 37.2694 54.9986 35.7514 54.9986Z" fill="#FC573B"/>
<path d="M82.4996 63.2485C80.9816 63.2485 79.7483 62.0193 79.7483 60.4972V52.2472H52.2469V60.4972C52.2469 62.0152 51.0135 63.2485 49.4955 63.2485C47.9775 63.2485 46.7441 62.0193 46.7441 60.4972V52.2472C46.7441 49.2153 49.2109 46.7485 52.2428 46.7485H79.7441C82.776 46.7485 85.2428 49.2153 85.2428 52.2472V60.4972C85.251 62.0193 84.0176 63.2485 82.4996 63.2485Z" fill="#FD907E"/>
<path d="M90.75 71.4987C90.75 73.0208 89.5208 74.2501 87.9986 74.2501H85.2473V79.7487C85.2473 82.7806 82.7805 85.2473 79.7486 85.2473H52.2473C49.2154 85.2473 46.7486 82.7806 46.7486 79.7487V74.2501H43.9973C42.4793 74.2501 41.25 73.0208 41.25 71.4987C41.25 69.9807 42.4834 68.7473 44.0014 68.7473H88.0027C89.5207 68.7514 90.75 69.9807 90.75 71.4987Z" fill="#FD907E"/>
</g>
<defs>
<clipPath id="clip0_2768_2145">
<rect width="132" height="132" fill="white"/>
</clipPath>
</defs>
</svg>
