<svg width="33" height="32" viewBox="0 0 33 32" fill="none" xmlns="http://www.w3.org/2000/svg">
<path fill-rule="evenodd" clip-rule="evenodd" d="M8.02443 2.66669C5.34508 2.66669 3.1665 4.84524 3.1665 7.52462V10.3416C3.1665 11.1306 3.80612 11.7702 4.59507 11.7702C5.38405 11.7702 6.02364 11.1306 6.02364 10.3416V7.52462C6.02364 6.42208 6.92191 5.52382 8.02443 5.52382H10.8414C11.6304 5.52382 12.27 4.88423 12.27 4.09526C12.27 3.3063 11.6304 2.66669 10.8414 2.66669H8.02443ZM22.1583 2.66669C21.3692 2.66669 20.7297 3.30632 20.7297 4.09526C20.7297 4.88421 21.3692 5.52382 22.1583 5.52382H24.9752C26.0778 5.52382 26.9761 6.42209 26.9761 7.52462V10.3416C26.9761 11.1305 27.6156 11.7702 28.4046 11.7702C29.1936 11.7702 29.8332 11.1305 29.8332 10.3416V7.52462C29.8332 4.84524 27.6546 2.66669 24.9752 2.66669H22.1583ZM4.59507 20.2299C3.80614 20.2299 3.1665 20.8694 3.1665 21.6584V24.4754C3.1665 27.1548 5.34508 29.3334 8.02443 29.3334H10.8414C11.6304 29.3334 12.27 28.6938 12.27 27.9048C12.27 27.1158 11.6304 26.4762 10.8414 26.4762H8.02443C6.92192 26.4762 6.02364 25.578 6.02364 24.4754V21.6584C6.02364 20.8694 5.38403 20.2299 4.59507 20.2299ZM28.4046 20.2299C27.6156 20.2299 26.9761 20.8694 26.9761 21.6584V24.4754C26.9761 25.578 26.0778 26.4762 24.9752 26.4762H22.1583C21.3693 26.4762 20.7297 27.1158 20.7297 27.9048C20.7297 28.6938 21.3693 29.3334 22.1583 29.3334H24.9752C27.6546 29.3334 29.8332 27.1548 29.8332 24.4754V21.6584C29.8332 20.8694 29.1936 20.2299 28.4046 20.2299Z" fill="white"/>
<path d="M11.1374 10.7336C10.6842 10.7336 10.3169 11.1009 10.3169 11.5541V13.5345C10.3169 13.9877 10.6842 14.355 11.1374 14.355C11.5905 14.355 11.9578 13.9877 11.9578 13.5345V11.5541C11.9578 11.1009 11.5905 10.7336 11.1374 10.7336Z" fill="white"/>
<path d="M16.3354 11.5926C16.3354 11.1182 16.7201 10.7336 17.1944 10.7336C17.6689 10.7336 18.0535 11.1182 18.0535 11.5926V16.531C18.0535 17.6004 17.1837 18.4702 16.1142 18.4702H15.5483C15.0739 18.4702 14.6893 18.0857 14.6893 17.6112C14.6893 17.1367 15.0739 16.7521 15.5483 16.7521H16.1142C16.236 16.7521 16.3354 16.6528 16.3354 16.531V11.5926Z" fill="white"/>
<path d="M22.0171 10.7336C21.5639 10.7336 21.1965 11.1009 21.1965 11.5541V13.5345C21.1965 13.9877 21.5639 14.355 22.0171 14.355C22.4701 14.355 22.8375 13.9877 22.8375 13.5345V11.5541C22.8375 11.1009 22.4701 10.7336 22.0171 10.7336Z" fill="white"/>
<path d="M20.0609 19.9895C20.4095 19.6675 20.953 19.6891 21.2748 20.0375C21.5968 20.3861 21.5752 20.9296 21.2267 21.2515C19.9363 22.4433 18.2576 23.0998 16.5001 23.0998C14.7426 23.0998 13.0638 22.4433 11.7734 21.2515C11.4249 20.9296 11.4034 20.3861 11.7253 20.0375C12.0473 19.6891 12.5907 19.6675 12.9392 19.9895C13.9113 20.8873 15.1757 21.3818 16.5001 21.3818C17.8245 21.3818 19.0889 20.8873 20.0609 19.9895Z" fill="white"/>
<path d="M11.1374 10.7336C10.6842 10.7336 10.3169 11.1009 10.3169 11.5541V13.5345C10.3169 13.9877 10.6842 14.355 11.1374 14.355C11.5905 14.355 11.9578 13.9877 11.9578 13.5345V11.5541C11.9578 11.1009 11.5905 10.7336 11.1374 10.7336Z" stroke="white" stroke-width="0.4"/>
<path d="M16.3354 11.5926C16.3354 11.1182 16.7201 10.7336 17.1944 10.7336C17.6689 10.7336 18.0535 11.1182 18.0535 11.5926V16.531C18.0535 17.6004 17.1837 18.4702 16.1142 18.4702H15.5483C15.0739 18.4702 14.6893 18.0857 14.6893 17.6112C14.6893 17.1367 15.0739 16.7521 15.5483 16.7521H16.1142C16.236 16.7521 16.3354 16.6528 16.3354 16.531V11.5926Z" stroke="white" stroke-width="0.4"/>
<path d="M22.0171 10.7336C21.5639 10.7336 21.1965 11.1009 21.1965 11.5541V13.5345C21.1965 13.9877 21.5639 14.355 22.0171 14.355C22.4701 14.355 22.8375 13.9877 22.8375 13.5345V11.5541C22.8375 11.1009 22.4701 10.7336 22.0171 10.7336Z" stroke="white" stroke-width="0.4"/>
<path d="M20.0609 19.9895C20.4095 19.6675 20.953 19.6891 21.2748 20.0375C21.5968 20.3861 21.5752 20.9296 21.2267 21.2515C19.9363 22.4433 18.2576 23.0998 16.5001 23.0998C14.7426 23.0998 13.0638 22.4433 11.7734 21.2515C11.4249 20.9296 11.4034 20.3861 11.7253 20.0375C12.0473 19.6891 12.5907 19.6675 12.9392 19.9895C13.9113 20.8873 15.1757 21.3818 16.5001 21.3818C17.8245 21.3818 19.0889 20.8873 20.0609 19.9895Z" stroke="white" stroke-width="0.4"/>
</svg>
