<svg width="100" height="68" viewBox="0 0 100 68" fill="none" xmlns="http://www.w3.org/2000/svg">
<path d="M22.5931 46.9508C36.2555 43.5902 49.8117 50.9514 49.8117 50.9514C49.8117 50.9514 41.217 63.7612 27.5546 67.1219C13.8922 70.4825 0.335938 63.1213 0.335938 63.1213C0.335938 63.1213 8.93071 50.3114 22.5931 46.9508Z" fill="#FFFDDF"/>
<path d="M27.0894 35.4426C40.8445 38.4005 49.8119 50.9523 49.8119 50.9523C49.8119 50.9523 36.4776 58.7085 22.7225 55.7506C8.96735 52.7928 0 40.241 0 40.241C0 40.241 13.3342 32.4848 27.0894 35.4426Z" fill="#FFFDDF"/>
<path d="M36.1759 27.0595C47.2492 35.7391 49.8187 50.9497 49.8187 50.9497C49.8187 50.9497 34.4348 52.0877 23.3615 43.408C12.2882 34.7284 9.71875 19.5179 9.71875 19.5179C9.71875 19.5179 25.1026 18.3798 36.1759 27.0595Z" fill="#FFFDDF"/>
<path d="M47.999 23.4986C54.1566 36.1492 49.81 50.9501 49.81 50.9501C49.81 50.9501 35.4797 45.2404 29.3219 32.5897C23.1642 19.9392 27.5109 5.13818 27.5109 5.13818C27.5109 5.13818 41.8413 10.8479 47.999 23.4986Z" fill="#FFFDDF"/>
<path d="M60.1921 25.4755C60.1921 39.5451 49.806 50.9508 49.806 50.9508C49.806 50.9508 39.4199 39.5451 39.4199 25.4755C39.4199 11.4058 49.806 0 49.806 0C49.806 0 60.1921 11.4057 60.1921 25.4755Z" fill="#FFFDDF"/>
<path d="M70.2958 32.5897C64.1382 45.2404 49.8078 50.9501 49.8078 50.9501C49.8078 50.9501 45.4611 36.1492 51.6188 23.4986C57.7765 10.8479 72.1069 5.13818 72.1069 5.13818C72.1069 5.13818 76.4536 19.9392 70.2958 32.5897Z" fill="#FFFDDF"/>
<path d="M76.2697 43.4081C65.1964 52.0877 49.8125 50.9497 49.8125 50.9497C49.8125 50.9497 52.3819 35.7392 63.4553 27.0595C74.5286 18.3798 89.9125 19.5179 89.9125 19.5179C89.9125 19.5179 87.343 34.7284 76.2697 43.4081Z" fill="#FFFDDF"/>
<path d="M76.9018 55.7506C63.1467 58.7085 49.8125 50.9523 49.8125 50.9523C49.8125 50.9523 58.7798 38.4005 72.5349 35.4426C86.2901 32.4848 99.6243 40.241 99.6243 40.241C99.6243 40.241 90.657 52.7928 76.9018 55.7506Z" fill="#FFFDDF"/>
<path d="M72.0696 67.1219C58.4072 63.7612 49.8125 50.9514 49.8125 50.9514C49.8125 50.9514 63.3688 43.5902 77.0311 46.9508C90.6935 50.3114 99.2882 63.1213 99.2882 63.1213C99.2882 63.1213 85.7319 70.4825 72.0696 67.1219Z" fill="#FFFDDF"/>
</svg>
