<svg width="41" height="40" viewBox="0 0 41 40" fill="none" xmlns="http://www.w3.org/2000/svg">
<path d="M20.4321 16.3481L20.5786 16.3784L20.7202 16.4272C21.0326 16.5572 21.2219 16.7991 21.3218 17.0044C21.4207 17.2078 21.4543 17.4129 21.4702 17.5444C21.5023 17.8103 21.5005 18.1625 21.5005 18.5024V22.6665H23.6704C24.4126 22.6665 25.0842 22.6643 25.5991 22.7407C26.0896 22.8135 26.6971 22.993 27.0806 23.5562L27.1548 23.6733L27.2183 23.7964C27.5095 24.4125 27.3564 25.028 27.1704 25.4878C26.9751 25.9704 26.6317 26.5483 26.2554 27.188L22.2935 33.9243C22.1211 34.2174 21.9442 34.5219 21.7817 34.7349C21.7014 34.8402 21.568 35.0002 21.3794 35.1255C21.162 35.2699 20.8196 35.396 20.4214 35.2876C20.0235 35.1791 19.7924 34.8972 19.6782 34.6626C19.5792 34.459 19.5466 34.2531 19.5308 34.1216C19.4987 33.8557 19.5005 33.5036 19.5005 33.1636V28.9995H17.3306C16.5882 28.9995 15.9159 29.0027 15.4009 28.9263C14.8778 28.8486 14.2216 28.649 13.8462 27.9927C13.4708 27.3364 13.6313 26.6694 13.8296 26.1792C14.0248 25.6965 14.3683 25.1188 14.7446 24.479L18.7075 17.7417L18.7212 17.7183L18.7241 17.7124C18.891 17.4286 19.0622 17.1379 19.2192 16.9321C19.2995 16.8269 19.4321 16.6668 19.6206 16.5415C19.8109 16.4151 20.0969 16.3017 20.4321 16.3481Z" stroke="#F87171" stroke-width="2"/>
<path d="M20.5 4C23.8963 4 26.8676 5.81463 28.499 8.52246C28.7563 8.94957 28.9473 9.2673 29.083 9.49023C29.1509 9.60183 29.2036 9.68735 29.2422 9.74902C29.2784 9.80691 29.2939 9.82983 29.2959 9.83301C29.6354 10.3062 29.7803 10.4319 29.8887 10.4932C29.9971 10.5544 30.1797 10.6135 30.7607 10.6602C30.8287 10.6656 31.0033 10.667 31.5 10.667C34.2614 10.667 36.5 12.9056 36.5 15.667V17.667L36.4932 17.9248C36.37 20.3465 34.5239 22.3125 32.1562 22.623C32.1422 21.8023 32.1042 21.1518 31.9951 20.6221C33.3665 20.394 34.4241 19.2396 34.4961 17.8213L34.5 17.667V15.667C34.5 14.0619 33.2394 12.7512 31.6543 12.6709L31.5 12.667C31.0641 12.667 30.7722 12.6681 30.6006 12.6543C29.9951 12.6057 29.4255 12.5282 28.9053 12.2344C28.385 11.9404 28.0251 11.4918 27.6709 10.998C27.5699 10.8572 27.2783 10.3716 26.7861 9.55469C25.5015 7.42233 23.1664 6 20.5 6C17.5203 6 14.9541 7.7774 13.8066 10.334C13.2624 11.5465 12.0778 12.667 10.5 12.667C8.29086 12.667 6.5 14.4579 6.5 16.667L6.50488 16.8662C6.58418 18.48 7.62059 19.8407 9.05762 20.3965C8.91797 20.9259 8.86418 21.5851 8.84473 22.4346C6.42791 21.7421 4.63583 19.5732 4.50781 16.9658L4.5 16.667C4.5 13.3533 7.18629 10.667 10.5 10.667C11.0564 10.667 11.6518 10.2492 11.9814 9.51465C13.4396 6.26587 16.7041 4 20.5 4Z" fill="#F87171"/>
</svg>
