<svg width="312" height="66" viewBox="0 0 312 66" fill="none" xmlns="http://www.w3.org/2000/svg">
<mask id="mask0_402_1181" style="mask-type:alpha" maskUnits="userSpaceOnUse" x="0" y="0" width="312" height="66">
<rect x="0.5" y="0.5" width="311" height="65" rx="11.5" fill="#369FFF" stroke="black"/>
</mask>
<g mask="url(#mask0_402_1181)">
<path d="M64.7562 14.758C-33.1323 30.674 -118.637 -19.9442 -200.604 -3.76726C-249.549 1.45111 -348.381 12.4619 -352.155 14.758C-355.929 17.054 -359.624 67.8984 -361 93.0335L366.088 146C415.622 118.951 500.655 57.1311 444.517 26.2384C374.343 -12.3776 162.645 -1.15808 64.7562 14.758Z" fill="#5DCCFC" fill-opacity="0.45"/>
<path d="M216.813 15.3031C127.855 28.7419 50.1497 -13.9979 -24.3398 -0.338777C-68.8192 4.06739 -158.635 13.3644 -162.065 15.3031C-165.495 17.2418 -168.853 60.1725 -170.104 81.3955L490.656 126.118C535.672 103.279 612.948 51.0811 561.93 24.9967C498.159 -7.60895 305.772 1.8643 216.813 15.3031Z" fill="#5DCCFC" fill-opacity="0.45"/>
</g>
</svg>
