<svg width="104" height="104" viewBox="0 0 104 104" fill="none" xmlns="http://www.w3.org/2000/svg">
<path d="M51.9998 8.6665C28.1232 8.6665 8.6665 28.1232 8.6665 51.9998C8.6665 75.8765 28.1232 95.3332 51.9998 95.3332C75.8765 95.3332 95.3332 75.8765 95.3332 51.9998C95.3332 28.1232 75.8765 8.6665 51.9998 8.6665ZM72.7132 42.0332L48.1432 66.6032C47.5365 67.2098 46.7132 67.5565 45.8465 67.5565C44.9798 67.5565 44.1565 67.2098 43.5498 66.6032L31.2865 54.3398C30.0298 53.0832 30.0298 51.0032 31.2865 49.7465C32.5432 48.4898 34.6232 48.4898 35.8798 49.7465L45.8465 59.7132L68.1198 37.4398C69.3765 36.1832 71.4565 36.1832 72.7132 37.4398C73.9698 38.6965 73.9698 40.7332 72.7132 42.0332Z" fill="#0072BC"/>
</svg>
