<svg width="104" height="104" viewBox="0 0 104 104" fill="none" xmlns="http://www.w3.org/2000/svg">
<path d="M51.9998 8.66666C28.1232 8.66666 8.6665 28.1233 8.6665 52C8.6665 75.8767 28.1232 95.3333 51.9998 95.3333C75.8765 95.3333 95.3332 75.8767 95.3332 52C95.3332 28.1233 75.8765 8.66666 51.9998 8.66666ZM72.7132 42.0333L48.1432 66.6033C47.5365 67.21 46.7132 67.5567 45.8465 67.5567C44.9798 67.5567 44.1565 67.21 43.5498 66.6033L31.2865 54.34C30.0298 53.0833 30.0298 51.0033 31.2865 49.7467C32.5432 48.49 34.6232 48.49 35.8798 49.7467L45.8465 59.7133L68.1198 37.44C69.3765 36.1833 71.4565 36.1833 72.7132 37.44C73.9698 38.6967 73.9698 40.7333 72.7132 42.0333Z" fill="#0072BC"/>
</svg>
