<svg width="37" height="37" viewBox="0 0 37 37" fill="none" xmlns="http://www.w3.org/2000/svg">
<rect width="37" height="37" rx="18.5" fill="#1BC76D"/>
<path d="M26.6769 7.23437C26.6992 7.23783 26.7215 7.24129 26.744 7.24474C26.7869 7.24993 26.8299 7.25513 26.8728 7.26014C26.8076 7.25167 26.7423 7.24302 26.6769 7.23437ZM28.4742 7.70344C28.4948 7.71209 28.5155 7.72056 28.5361 7.73093C28.5757 7.74632 28.6134 7.76188 28.6512 7.77727C28.5928 7.75324 28.5326 7.72748 28.4742 7.70344ZM28.5361 7.73093C28.5757 7.74632 28.6134 7.76188 28.6512 7.77727C28.5928 7.75324 28.5326 7.72748 28.4742 7.70344C28.4946 7.71209 28.5155 7.72073 28.5361 7.73093ZM26.744 7.24474C26.7869 7.24993 26.8299 7.25513 26.8728 7.26014C26.8075 7.2515 26.7423 7.24302 26.6769 7.23437C26.6994 7.23783 26.7217 7.24129 26.744 7.24474ZM6.78595 8.71195C6.79459 8.70504 6.80307 8.69812 6.81172 8.69138C6.82209 8.68446 6.82728 8.67772 6.8323 8.67426C6.81691 8.6829 6.77732 8.71542 6.76193 8.72925C6.76539 8.72752 6.76711 8.72406 6.77229 8.72233C6.74999 8.73944 6.72769 8.75846 6.70522 8.77558C6.63986 8.82883 6.5764 8.88382 6.51278 8.9388C6.3857 9.04876 6.26191 9.16217 6.14157 9.28078C5.90107 9.51609 5.67595 9.76525 5.4664 10.0282C5.3478 10.1778 5.12787 10.236 4.94581 10.2447C4.74819 10.2533 4.5644 10.157 4.42349 10.0282C4.28777 9.90461 4.20703 9.68796 4.20703 9.50589C4.20703 9.29461 4.29641 9.14333 4.42349 8.98357C4.7207 8.61081 5.05059 8.26191 5.40969 7.94585C6.07638 7.35645 6.82538 6.85313 7.63817 6.49057C8.51096 6.10051 9.40777 5.85483 10.3597 5.75697C10.7704 5.71409 11.0814 6.12974 11.0968 6.49576C11.1055 6.67955 11.0091 6.88927 10.8803 7.01635C10.7327 7.16591 10.5608 7.21225 10.3597 7.23282C10.3253 7.23628 10.2894 7.24147 10.255 7.24492C9.64326 7.33431 9.04364 7.49926 8.4698 7.72938C7.87002 7.98873 7.30827 8.32034 6.78595 8.71195ZM9.09345 17.6585C8.98694 17.4918 8.9629 17.2427 9.01443 17.0555C9.07287 16.8424 9.20514 16.7169 9.37354 16.5898C9.44408 16.5366 9.51446 16.4816 9.58483 16.4284C9.63635 16.3872 9.68959 16.3459 9.74284 16.3063C10.2669 15.8991 10.7858 15.4885 11.2944 15.0675C10.7515 14.6173 10.1983 14.1809 9.64154 13.7497C9.62269 13.7343 9.60367 13.7204 9.58483 13.7051C9.51446 13.6518 9.44391 13.5968 9.37354 13.5436C9.20168 13.4148 9.08151 13.284 9.01443 13.078C8.94907 12.8769 8.99731 12.6569 9.09345 12.4749C9.18283 12.3065 9.37873 12.1673 9.56079 12.1158C9.73265 12.0694 10.011 12.0814 10.1621 12.1948C11.1466 12.9422 12.1191 13.7068 13.0538 14.5144C13.3562 14.7755 13.3562 15.3562 13.0538 15.6192C12.1191 16.4268 11.1466 17.1914 10.1621 17.9388C9.99891 18.0626 9.75149 18.0608 9.56079 18.0161C9.36144 17.9711 9.19995 17.8252 9.09345 17.6585ZM27.6925 25.6306C27.373 26.5034 26.8541 27.287 26.2459 27.9879C24.3456 30.158 21.3456 31.2662 18.5004 31.2455C14.748 31.2935 10.6948 29.2661 9.30836 25.6305C8.92522 24.6133 9.91833 23.56 10.9595 23.8899C11.6966 24.1219 12.4165 24.4243 13.1501 24.6443C16.7841 25.7575 20.7306 25.706 24.3336 24.4897C24.8525 24.3144 25.3577 24.1152 25.8852 23.9381C26.2065 23.823 26.5467 23.7853 26.8885 23.9124C27.5843 24.1652 27.9432 24.9332 27.6925 25.6306ZM27.9072 17.6585C27.8179 17.8269 27.622 17.9661 27.4399 18.0159C27.268 18.064 26.9897 18.052 26.8386 17.9386C25.8541 17.1912 24.8815 16.4266 23.9469 15.619C23.6445 15.358 23.6445 14.7755 23.9469 14.5142C24.8815 13.7066 25.8541 12.9421 26.8386 12.1946C27.0018 12.0708 27.2509 12.0726 27.4399 12.1156C27.6393 12.162 27.8007 12.308 27.9072 12.4747C28.0137 12.6414 28.0378 12.8905 27.9863 13.0778C27.9278 13.2908 27.7956 13.4163 27.6271 13.5434C27.5378 13.612 27.4484 13.6809 27.3592 13.7497C26.8024 14.1809 26.2492 14.6173 25.7063 15.0675C26.2148 15.4885 26.7338 15.8991 27.2578 16.3063C27.2923 16.3321 27.3267 16.3578 27.3592 16.3836C27.4486 16.4524 27.5378 16.521 27.6271 16.5898C27.799 16.7187 27.9192 16.8494 27.9863 17.0555C28.0514 17.2564 28.0034 17.4763 27.9072 17.6585ZM32.5772 10.028C32.4536 10.1638 32.2369 10.2445 32.0566 10.2445C31.8882 10.2445 31.6442 10.1672 31.5343 10.028C31.3246 9.76524 31.0996 9.5161 30.8589 9.28061C30.7386 9.16201 30.615 9.04859 30.4879 8.93863C30.4191 8.87846 30.3505 8.82001 30.2801 8.7633C30.2663 8.75293 30.2526 8.741 30.2388 8.7289C30.2336 8.72371 30.2284 8.71852 30.2199 8.71507C30.2147 8.70988 30.2096 8.7047 30.2028 8.70141C30.2063 8.70487 30.2115 8.70833 30.2147 8.71179C29.6907 8.32346 29.134 7.99028 28.5361 7.73093C27.9605 7.49908 27.3592 7.33396 26.744 7.24474C26.7096 7.23956 26.6754 7.23593 26.6427 7.23247C26.4364 7.2119 26.2716 7.15691 26.1204 7.016C25.9743 6.88374 25.9124 6.68612 25.9039 6.49541C25.8953 6.31162 25.9915 6.10017 26.1204 5.97309C26.2407 5.85102 26.4656 5.73777 26.6427 5.75662C27.1702 5.8116 27.6942 5.90273 28.2045 6.05211C29.9089 6.55559 31.4707 7.59504 32.5772 8.98324C32.706 9.14472 32.785 9.29773 32.7937 9.50556C32.8022 9.70335 32.7077 9.88731 32.5772 10.028ZM28.4742 7.70344C28.4948 7.71209 28.5155 7.72056 28.5361 7.73093C28.5757 7.74632 28.6134 7.76188 28.6512 7.77727C28.5928 7.75324 28.5326 7.72748 28.4742 7.70344ZM26.6769 7.23437C26.6992 7.23783 26.7215 7.24129 26.744 7.24474C26.7869 7.24993 26.8299 7.25513 26.8728 7.26014C26.8076 7.25167 26.7423 7.24302 26.6769 7.23437ZM10.1277 7.26014C10.1708 7.25495 10.2119 7.24976 10.2548 7.24474C10.2771 7.24129 10.3011 7.23783 10.3234 7.23437C10.2583 7.24302 10.1931 7.25167 10.1277 7.26014ZM8.34947 7.77727C8.38907 7.76015 8.42847 7.74459 8.4698 7.7292L8.52651 7.70344C8.46789 7.72748 8.40964 7.75324 8.34947 7.77727Z" fill="white"/>
</svg>
