<svg width="18" height="18" viewBox="0 0 18 18" fill="none" xmlns="http://www.w3.org/2000/svg">
<rect width="18" height="18" fill="white"/>
<path fill-rule="evenodd" clip-rule="evenodd" d="M8.625 2.25C10.5147 2.25 12.3269 3.00067 13.6631 4.33686C14.9993 5.67306 15.75 7.48533 15.75 9.375C15.75 11.2647 14.9993 13.0769 13.6631 14.4131C12.3269 15.7493 10.5147 16.5 8.625 16.5C6.73533 16.5 4.92306 15.7493 3.58686 14.4131C2.25067 13.0769 1.5 11.2647 1.5 9.375C1.5 7.48533 2.25067 5.67306 3.58686 4.33686C4.92306 3.00067 6.73533 2.25 8.625 2.25ZM8.625 3C6.93425 3 5.31274 3.67165 4.11719 4.86719C2.92165 6.06274 2.25 7.68425 2.25 9.375C2.25 11.0658 2.92165 12.6873 4.11719 13.8828C5.31274 15.0784 6.93425 15.75 8.625 15.75C9.46218 15.75 10.2912 15.5851 11.0646 15.2647C11.8381 14.9444 12.5408 14.4748 13.1328 13.8828C13.7248 13.2908 14.1944 12.5881 14.5147 11.8146C14.8351 11.0412 15 10.2122 15 9.375C15 7.68425 14.3284 6.06274 13.1328 4.86719C11.9373 3.67165 10.3158 3 8.625 3Z" fill="#A1A1A1"/>
<path fill-rule="evenodd" clip-rule="evenodd" d="M8.625 3C6.93425 3 5.31274 3.67165 4.11719 4.86719C2.92165 6.06274 2.25 7.68425 2.25 9.375C2.25 11.0658 2.92165 12.6873 4.11719 13.8828C5.31274 15.0784 6.93425 15.75 8.625 15.75C9.46218 15.75 10.2912 15.5851 11.0646 15.2647C11.8381 14.9444 12.5408 14.4748 13.1328 13.8828C13.7248 13.2908 14.1944 12.5881 14.5147 11.8146C14.8351 11.0412 15 10.2122 15 9.375C15 7.68425 14.3284 6.06274 13.1328 4.86719C11.9373 3.67165 10.3158 3 8.625 3ZM8.25 7.5V6H9V7.5H8.25ZM8.25 12.75V9H9V12.75H8.25Z" fill="#A1A1A1"/>
</svg>
