<svg width="247" height="114" viewBox="0 0 247 114" fill="none" xmlns="http://www.w3.org/2000/svg">
<path d="M59.3232 114H9.43555C9.52773 102.918 11.4606 91.187 15.1843 80.7585C18.7825 70.6818 23.9959 61.1883 30.6858 52.5283L71.0497 79.7091C63.5427 89.5477 59.5006 101.913 59.3232 114Z" fill="#E23E44"/>
<path d="M85.6916 65.9264C80.5132 69.4311 75.9463 73.6131 72.106 78.365L41.4168 57.699L31.7422 51.1842C38.6543 42.5241 46.915 34.9153 56.3073 28.5595C65.8172 22.1242 76.2705 17.1228 87.3897 13.6868L96.8938 40.7978L102.809 57.6728C96.6908 59.6028 90.9361 62.377 85.6916 65.9264Z" fill="#ED9A33"/>
<path d="M104.515 57.1598L91.4407 19.8632L89.0957 13.1737C100.184 9.92612 111.754 8.27979 123.499 8.27979C135.243 8.27979 146.813 9.92568 157.903 13.1726L142.482 57.1593C136.355 55.404 129.974 54.5147 123.499 54.5147C117.025 54.5148 110.642 55.4045 104.515 57.1598Z" fill="#EEC000"/>
<path d="M104.111 57.1598L91.0364 19.8632L88.6914 13.1737C99.78 9.92612 111.35 8.27979 123.095 8.27979C134.839 8.27979 146.409 9.92568 157.499 13.1726L142.078 57.1595C135.951 55.4041 129.57 54.5148 123.095 54.5148C116.62 54.5148 110.238 55.4045 104.111 57.1598Z" fill="#EEC000"/>
<path d="M161.306 65.9255C156.061 62.3762 150.306 59.6021 144.188 57.6726L157.7 19.1286L159.608 13.6858C170.728 17.1223 181.181 22.1237 190.69 28.5587C200.082 34.9145 208.343 42.5233 215.256 51.184L187.636 69.7832L174.892 78.3648C171.052 73.6126 166.485 69.4303 161.306 65.9255Z" fill="#9ED042"/>
<path d="M187.676 114C187.498 101.913 183.456 89.5478 175.949 79.7091L216.313 52.5283C223.003 61.1883 228.216 70.6818 231.814 80.7586C235.538 91.187 237.471 102.918 237.563 114H187.676V114Z" fill="#1BC76D"/>
<path d="M239.539 114C239.539 102.437 237.57 91.0588 233.687 80.1843C230.055 70.0129 224.806 60.4267 218.077 51.6736L218.083 51.6702L217.387 50.7831C217.385 50.782 217.384 50.7797 217.383 50.7776L216.684 49.8883L216.678 49.8916C209.681 41.166 201.334 33.4961 191.854 27.0814C182.254 20.5852 171.71 15.5259 160.495 12.0315L160.497 12.026L159.365 11.6855L158.234 11.345L158.233 11.3516C147.03 8.09852 135.351 6.44995 123.498 6.44995C111.308 6.44995 99.303 8.19444 87.8126 11.6327H87.8079L87.6296 11.6866C87.6082 11.6932 87.588 11.6999 87.5666 11.7065L86.4988 12.0272L86.5012 12.0326C75.2866 15.5259 64.7414 20.5852 55.1415 27.0814C45.6617 33.4961 37.315 41.1672 30.3178 49.8916L30.3119 49.8883L29.6152 50.7765C29.6139 50.7765 29.6139 50.7776 29.6127 50.7776L28.9124 51.6702L28.9183 51.6736C22.1898 60.4267 16.9404 70.0129 13.3092 80.1843C9.42601 91.0588 7.45703 102.437 7.45703 114H9.84093V112.898C9.96223 101.95 11.8872 91.1823 15.5671 80.8765C19.1211 70.921 24.2575 61.5377 30.8421 52.9685L70.6936 79.8053C63.3218 89.558 59.328 100.955 59.0961 112.898H59.0854V114H61.4634C61.4634 101.756 65.5595 90.0704 73.3082 80.2041L73.3106 80.2008C77.1272 75.341 81.7179 71.0785 86.9567 67.5334C92.2501 63.9509 98.0821 61.1849 104.291 59.3137L104.323 59.3038C110.496 57.447 116.947 56.5047 123.498 56.5047C130.049 56.5047 136.5 57.447 142.673 59.3038H142.674C148.894 61.1761 154.736 63.9442 160.039 67.5334C165.276 71.0774 169.865 75.3377 173.681 80.1953L173.688 80.2041C181.437 90.0702 185.533 101.756 185.533 114H187.9V112.898C187.668 100.955 183.674 89.558 176.302 79.8053L216.154 52.9685C222.738 61.5387 227.875 70.921 231.429 80.8765C235.109 91.1823 237.034 101.95 237.155 112.898V114H239.539ZM85.5535 65.7538C80.435 69.2185 75.9108 73.3422 72.093 78.0235L54.654 66.2795L32.2415 51.1865C39.0925 42.6482 47.2644 35.1415 56.5434 28.8613C65.94 22.5028 76.2604 17.5494 87.236 14.1288L102.46 57.5572C96.4209 59.49 90.7388 62.245 85.5535 65.7538ZM142.272 56.8773C136.208 55.167 129.898 54.3008 123.498 54.3008C117.098 54.3008 110.786 55.167 104.722 56.8773L89.4975 13.4488C100.461 10.2662 111.893 8.65395 123.498 8.65395C135.101 8.65395 146.533 10.2662 157.498 13.4476L142.272 56.8773ZM174.903 78.0233C171.085 73.3421 166.561 69.2174 161.441 65.7527C156.256 62.244 150.574 59.4901 144.535 57.5572L154.378 29.4773L159.76 14.1277C170.735 17.5494 181.056 22.5028 190.451 28.8613C199.731 35.1405 207.902 42.6483 214.754 51.1865L174.903 78.0233Z" fill="#EAEAEA"/>
<path d="M59.0859 114C59.0859 81.0812 87.9807 54.3008 123.498 54.3008C159.016 54.3008 187.91 81.0813 187.91 114H59.0859Z" fill="#F9F9F9"/>
<path d="M61.4648 114C61.4648 82.2968 89.2928 56.5049 123.499 56.5049C157.705 56.5049 185.533 82.2967 185.533 114H61.4648Z" fill="#FFF9E6"/>
<path d="M122.832 103.017C121.68 103.017 120.592 102.793 119.568 102.345C118.544 101.897 117.653 101.263 116.896 100.441C116.149 99.6201 115.611 98.6494 115.28 97.5294L119.008 96.5214C119.275 97.4388 119.76 98.1481 120.464 98.6494C121.179 99.1401 121.963 99.3801 122.816 99.3694C123.573 99.3694 124.251 99.1934 124.848 98.8414C125.445 98.4894 125.915 98.0148 126.256 97.4174C126.597 96.8094 126.768 96.1321 126.768 95.3854C126.768 94.2441 126.4 93.2894 125.664 92.5214C124.928 91.7534 123.979 91.3694 122.816 91.3694C122.464 91.3694 122.117 91.4174 121.776 91.5134C121.445 91.6094 121.125 91.7428 120.816 91.9134L119.056 88.8734L126.8 82.2494L127.136 83.1774H116.176V79.5454H130.304V83.1934L124.08 89.1774L124.048 88.0414C125.445 88.1374 126.635 88.5268 127.616 89.2094C128.608 89.8921 129.365 90.7721 129.888 91.8494C130.421 92.9268 130.688 94.1054 130.688 95.3854C130.688 96.8361 130.331 98.1374 129.616 99.2894C128.912 100.441 127.963 101.353 126.768 102.025C125.584 102.687 124.272 103.017 122.832 103.017Z" fill="black"/>
<path opacity="0.13" d="M242.495 114H232.302C232.302 58.3943 183.494 13.1578 123.499 13.1578C63.5043 13.1578 14.6966 58.3943 14.6966 114H4.50391C4.50391 53.1852 57.8841 3.71094 123.499 3.71094C189.114 3.71094 242.495 53.1853 242.495 114Z" fill="#262626"/>
<path d="M246.499 114H235.963C235.963 56.5234 185.513 9.76471 123.499 9.76471C61.4857 9.76471 11.0356 56.5234 11.0356 114H0.5C0.5 51.139 55.6764 0 123.499 0C191.322 0 246.499 51.1391 246.499 114Z" fill="#FFF9E6"/>
<path d="M120.818 57.4969C121.128 46.7355 122.834 36.9839 123.618 33C124.401 36.9764 126.108 46.7312 126.418 57.4969L120.818 57.4969Z" fill="#262626"/>
<path d="M123.618 63.7961C125.841 63.7961 127.643 61.9942 127.643 59.7716C127.643 57.5489 125.841 55.7471 123.618 55.7471C121.396 55.7471 119.594 57.5489 119.594 59.7716C119.594 61.9942 121.396 63.7961 123.618 63.7961Z" fill="black"/>
</svg>
