<svg width="170" height="81" viewBox="0 0 170 81" fill="none" xmlns="http://www.w3.org/2000/svg">
<path d="M169.246 80.5822H155.829C155.52 69.6751 152.596 58.9939 147.307 49.4609L158.937 42.9204C165.394 54.4297 168.937 67.3694 169.246 80.5822Z" fill="#00AA4E"/>
<path d="M157.008 39.6544L145.377 46.2043C139.528 36.9442 131.508 29.1239 122.01 23.4209L128.718 12.0811C140.252 18.932 149.981 28.4086 157.008 39.6544Z" fill="#95DF3D"/>
<path d="M125.375 10.1993L118.658 21.5392C108.88 16.3727 97.9252 13.5213 86.748 13.2201V0.13916C100.29 0.440341 113.561 3.89412 125.375 10.1993Z" fill="#FFD919"/>
<path d="M82.8909 0.13916V13.2201C71.7044 13.5212 60.7493 16.3726 50.9718 21.5297L44.2539 10.1898C56.0584 3.89412 69.3397 0.440341 82.8909 0.13916Z" fill="#FFAF19"/>
<path d="M47.6288 23.412C38.1216 29.1148 30.1008 36.9351 24.2516 46.2048L12.6211 39.6549C19.6572 28.4091 29.3769 18.9325 40.911 12.072L47.6288 23.412Z" fill="#FF6619"/>
<path d="M22.3238 49.4606C17.0346 58.9936 14.1004 69.6747 13.8011 80.5818H0.384766C0.68411 67.3691 4.23589 54.4199 10.6933 42.9106L22.3238 49.4606Z" fill="#FF3333"/>
</svg>
