<svg width="83" height="45" viewBox="0 0 83 45" fill="none" xmlns="http://www.w3.org/2000/svg">
<g opacity="0.3">
<path d="M74.4366 44.7842H68.5226C68.3864 39.853 67.0972 35.0239 64.7656 30.7139L69.8926 27.7568C72.739 32.9604 74.3005 38.8106 74.4366 44.7842Z" fill="white"/>
<path d="M69.0409 26.2805L63.9139 29.2418C61.3356 25.0552 57.7999 21.5195 53.6133 18.9411L56.5703 13.8142C61.6547 16.9116 65.9434 21.1961 69.0409 26.2805Z" fill="white"/>
<path d="M55.0987 12.9633L52.1374 18.0902C47.8274 15.7544 42.9983 14.4652 38.0713 14.3291V8.41504C44.0407 8.55116 49.8909 10.1127 55.0987 12.9633Z" fill="white"/>
<path d="M36.3694 8.41504V14.3291C31.4383 14.4653 26.6091 15.7544 22.2991 18.086L19.3379 12.9591C24.5413 10.1127 30.3958 8.55116 36.3694 8.41504Z" fill="white"/>
<path d="M20.8273 18.937C16.6364 21.5153 13.1007 25.051 10.5224 29.2418L5.39551 26.2806C8.49709 21.1963 12.7816 16.9117 17.866 13.8101L20.8273 18.937Z" fill="white"/>
<path d="M9.67092 30.714C7.33936 35.024 6.04593 39.8531 5.91403 44.7843H0C0.131905 38.8107 1.69762 32.9562 4.54406 27.7527L9.67092 30.714Z" fill="white"/>
<path d="M74.7071 44.5127H68.7931C68.6569 39.5815 67.3677 34.7524 65.0361 30.4424L70.1631 27.4854C73.0095 32.6888 74.571 38.5391 74.7071 44.5127Z" fill="#F7FCF9"/>
<path d="M69.3124 26.009L64.1854 28.9703C61.6071 24.7837 58.0714 21.248 53.8848 18.6696L56.8418 13.5427C61.9262 16.6401 66.215 20.9246 69.3124 26.009Z" fill="#FCFEF9"/>
<path d="M55.3702 12.6918L52.4089 17.8187C48.0989 15.4829 43.2698 14.1937 38.3428 14.0576V8.14355C44.3121 8.27972 50.1623 9.84117 55.3702 12.6918Z" fill="#FFFEF8"/>
<path d="M36.6409 8.14355V14.0576C31.7098 14.1937 26.8806 15.4829 22.5706 17.8145L19.6094 12.6875C24.8128 9.84117 30.6673 8.27972 36.6409 8.14355Z" fill="#FFFCF8"/>
<path d="M21.0988 18.6655C16.9079 21.2438 13.3722 24.7795 10.7938 28.9704L5.66699 26.0091C8.76858 20.9248 13.0531 16.6403 18.1375 13.5386L21.0988 18.6655Z" fill="#FFFAF8"/>
<path d="M9.94241 30.4425C7.61084 34.7525 6.31741 39.5816 6.18551 44.5128H0.271484C0.40339 38.5392 1.9691 32.6847 4.81555 27.4812L9.94241 30.4425Z" fill="#FFF8F8"/>
<path d="M74.9796 44.2412H69.0655C68.9294 39.31 67.6402 34.4809 65.3086 30.1709L70.4355 27.2139C73.282 32.4174 74.8435 38.2676 74.9796 44.2412Z" fill="#EFFAF4"/>
<path d="M69.5839 25.7375L64.4569 28.6988C61.8786 24.5122 58.3429 20.9765 54.1562 18.3981L57.1133 13.2712C62.1977 16.3687 66.4864 20.6532 69.5839 25.7375Z" fill="#F8FDF2"/>
<path d="M55.6416 12.4204L52.6803 17.5473C48.3703 15.2114 43.5412 13.9223 38.6143 13.7861V7.87207C44.5836 8.00824 50.4338 9.56969 55.6416 12.4204Z" fill="#FFFDF0"/>
<path d="M36.9124 7.87207V13.7861C31.9813 13.9223 27.1521 15.2115 22.8421 17.543L19.8809 12.4161C25.0843 9.56969 30.9388 8.00824 36.9124 7.87207Z" fill="#FFFAF0"/>
<path d="M21.3703 18.394C17.1794 20.9724 13.6437 24.508 11.0653 28.6989L5.93848 25.7376C9.04006 20.6533 13.3246 16.3688 18.409 13.2671L21.3703 18.394Z" fill="#FFF5F0"/>
<path d="M10.2139 30.171C7.88237 34.4811 6.58895 39.3101 6.45704 44.2414H0.542969C0.674874 38.2677 2.24059 32.4133 5.08708 27.2097L10.2139 30.171Z" fill="#FFF2F2"/>
<path d="M75.2511 43.9698H69.337C69.2008 39.0386 67.9117 34.2095 65.5801 29.8994L70.707 26.9424C73.5535 32.1459 75.115 37.9961 75.2511 43.9698Z" fill="#E6F7EE"/>
<path d="M69.8554 25.466L64.7284 28.4273C62.1501 24.2407 58.6144 20.705 54.4277 18.1267L57.3848 12.9998C62.4691 16.0972 66.7579 20.3817 69.8554 25.466Z" fill="#F5FCEC"/>
<path d="M55.9131 12.1489L52.9519 17.2758C48.6418 14.9399 43.8128 13.6508 38.8857 13.5146V7.60059C44.8551 7.73675 50.7054 9.2982 55.9131 12.1489Z" fill="#FFFBE9"/>
<path d="M37.1839 7.60059V13.5147C32.2527 13.6508 27.4236 14.94 23.1136 17.2716L20.1523 12.1446C25.3558 9.2982 31.2103 7.73675 37.1839 7.60059Z" fill="#FFF7E9"/>
<path d="M21.6418 18.1226C17.4509 20.7009 13.9152 24.2366 11.3369 28.4274L6.20996 25.4661C9.31155 20.3818 13.5961 16.0973 18.6804 12.9956L21.6418 18.1226Z" fill="#FFF0E9"/>
<path d="M10.4854 29.8995C8.15386 34.2096 6.86043 39.0386 6.72853 43.9699H0.814453C0.946358 37.9962 2.51207 32.1418 5.35852 26.9382L10.4854 29.8995Z" fill="#FFEBEB"/>
<path d="M75.5226 43.6983H69.6085C69.4723 38.7671 68.1832 33.938 65.8516 29.6279L70.9785 26.6709C73.825 31.8744 75.3865 37.7246 75.5226 43.6983Z" fill="#DEF4E8"/>
<path d="M70.1268 25.1945L64.9999 28.1558C62.4216 23.9692 58.8859 20.4336 54.6992 17.8552L57.6563 12.7283C62.7406 15.8257 67.0294 20.1102 70.1268 25.1945Z" fill="#F1FBE6"/>
<path d="M56.1846 11.8774L53.2233 17.0043C48.9133 14.6685 44.0842 13.3793 39.1572 13.2431V7.3291C45.1266 7.46527 50.9768 9.02672 56.1846 11.8774Z" fill="#FFFAE1"/>
<path d="M37.4554 7.3291V13.2432C32.5242 13.3793 27.6951 14.6685 23.3851 17.0001L20.4238 11.8731C25.6273 9.02672 31.4818 7.46527 37.4554 7.3291Z" fill="#FFF5E1"/>
<path d="M21.9132 17.8511C17.7223 20.4294 14.1867 23.9651 11.6083 28.1559L6.48145 25.1946C9.58303 20.1103 13.8676 15.8258 18.9519 12.7241L21.9132 17.8511Z" fill="#FFEBE1"/>
<path d="M10.7569 29.628C8.42529 33.938 7.13187 38.7671 6.99996 43.6983H1.08594C1.21784 37.7247 2.78356 31.8702 5.63 26.6667L10.7569 29.628Z" fill="#FFE5E5"/>
<path d="M75.7941 43.4268H69.88C69.7438 38.4956 68.4547 33.6665 66.123 29.3565L71.25 26.3994C74.0964 31.603 75.6579 37.4531 75.7941 43.4268Z" fill="#D6F1E2"/>
<path d="M70.3983 24.9231L65.2714 27.8844C62.693 23.6977 59.1574 20.1621 54.9707 17.5837L57.9277 12.4568C63.0121 15.5542 67.3008 19.8387 70.3983 24.9231Z" fill="#EEFAE0"/>
<path d="M56.456 11.6059L53.4948 16.7328C49.1847 14.397 44.3557 13.1078 39.4287 12.9716V7.05762C45.3981 7.19379 51.2483 8.75524 56.456 11.6059Z" fill="#FFF9DA"/>
<path d="M37.7269 7.05762V12.9717C32.7957 13.1079 27.9666 14.397 23.6566 16.7286L20.6953 11.6016C25.8988 8.75523 31.7533 7.19379 37.7269 7.05762Z" fill="#FFF2DA"/>
<path d="M22.1847 17.5796C17.9938 20.1579 14.4582 23.6936 11.8798 27.8845L6.75293 24.9232C9.85451 19.8388 14.1391 15.5543 19.2234 12.4526L22.1847 17.5796Z" fill="#FFE6DA"/>
<path d="M11.0283 29.3566C8.69678 33.6666 7.40335 38.4957 7.27145 43.4269H1.35742C1.48933 37.4532 3.05504 31.5988 5.90149 26.3953L11.0283 29.3566Z" fill="#FFDEDE"/>
<path d="M76.0656 43.1553H70.1515C70.0153 38.2241 68.7261 33.395 66.3945 29.085L71.5215 26.1279C74.3679 31.3315 75.9294 37.1817 76.0656 43.1553Z" fill="#CEEFDD"/>
<path d="M70.6698 24.6516L65.5428 27.6129C62.9645 23.4262 59.4289 19.8906 55.2422 17.3122L58.1992 12.1853C63.2836 15.2827 67.5723 19.5672 70.6698 24.6516Z" fill="#EAF9D9"/>
<path d="M56.7275 11.3344L53.7663 16.4613C49.4562 14.1255 44.6272 12.8363 39.7002 12.7002V6.78613C45.6695 6.9223 51.5197 8.48375 56.7275 11.3344Z" fill="#FFF8D2"/>
<path d="M37.9983 6.78613V12.7002C33.0672 12.8364 28.238 14.1255 23.928 16.4571L20.9668 11.3301C26.1703 8.48375 32.0248 6.9223 37.9983 6.78613Z" fill="#FFF0D2"/>
<path d="M22.4562 17.3081C18.2653 19.8864 14.7296 23.4221 12.1513 27.613L7.02441 24.6517C10.126 19.5674 14.4105 15.2828 19.4949 12.1812L22.4562 17.3081Z" fill="#FFE1D2"/>
<path d="M11.2998 29.0851C8.96826 33.3951 7.67484 38.2242 7.54293 43.1554H1.62891C1.76081 37.1818 3.32652 31.3273 6.17302 26.1238L11.2998 29.0851Z" fill="#FFD8D8"/>
<path d="M76.337 42.8838H70.423C70.2868 37.9526 68.9976 33.1235 66.666 28.8135L71.793 25.8564C74.6394 31.06 76.2009 36.9102 76.337 42.8838Z" fill="#C5ECD7"/>
<path d="M70.9413 24.3801L65.8143 27.3414C63.236 23.1548 59.7003 19.6191 55.5137 17.0407L58.4707 11.9138C63.5551 15.0112 67.8439 19.2957 70.9413 24.3801Z" fill="#E7F8D3"/>
<path d="M56.999 11.063L54.0378 16.1899C49.7277 13.8541 44.8987 12.5649 39.9717 12.4287V6.51465C45.941 6.65082 51.7912 8.21231 56.999 11.063Z" fill="#FFF6CB"/>
<path d="M38.2698 6.51465V12.4287C33.3387 12.5649 28.5095 13.8541 24.1995 16.1856L21.2383 11.0587C26.4418 8.21231 32.2963 6.65082 38.2698 6.51465Z" fill="#FFEDCB"/>
<path d="M22.7277 17.0366C18.5368 19.6149 15.0011 23.1506 12.4228 27.3415L7.2959 24.3802C10.3975 19.2959 14.682 15.0114 19.7664 11.9097L22.7277 17.0366Z" fill="#FFDCCB"/>
<path d="M11.5713 28.8136C9.23975 33.1236 7.94632 37.9527 7.81442 42.8839H1.90039C2.0323 36.9103 3.59801 31.0558 6.44446 25.8523L11.5713 28.8136Z" fill="#FFD1D1"/>
<path d="M76.6085 42.6126H70.6944C70.5583 37.6813 69.2691 32.8523 66.9375 28.5422L72.0645 25.5852C74.9108 30.7887 76.4723 36.6389 76.6085 42.6126Z" fill="#BDE9D1"/>
<path d="M71.2128 24.1088L66.0858 27.0701C63.5075 22.8835 59.9719 19.3479 55.7852 16.7695L58.7422 11.6426C63.8266 14.74 68.1153 19.0245 71.2128 24.1088Z" fill="#E4F7CD"/>
<path d="M57.2705 10.7917L54.3092 15.9186C49.9992 13.5828 45.1702 12.2936 40.2432 12.1574V6.24341C46.2126 6.37953 52.0627 7.94103 57.2705 10.7917Z" fill="#FFF5C4"/>
<path d="M38.5413 6.24341V12.1575C33.6102 12.2936 28.781 13.5828 24.471 15.9144L21.5098 10.7874C26.7132 7.94102 32.5677 6.37953 38.5413 6.24341Z" fill="#FFEAC4"/>
<path d="M22.9992 16.7654C18.8083 19.3437 15.2726 22.8794 12.6942 27.0703L7.56738 24.109C10.669 19.0246 14.9535 14.7401 20.0379 11.6384L22.9992 16.7654Z" fill="#FFD8C4"/>
<path d="M11.8428 28.5424C9.51123 32.8524 8.21781 37.6814 8.0859 42.6127H2.17188C2.30378 36.639 3.86949 30.7846 6.71599 25.5811L11.8428 28.5424Z" fill="#FFCACA"/>
<path d="M76.88 42.3411H70.9659C70.8298 37.4099 69.5406 32.5808 67.209 28.2708L72.3359 25.3137C75.1824 30.5172 76.7439 36.3674 76.88 42.3411Z" fill="#B5E6CC"/>
<path d="M71.4843 23.8374L66.3573 26.7987C63.779 22.612 60.2433 19.0764 56.0566 16.498L59.0137 11.3711C64.0981 14.4685 68.3868 18.753 71.4843 23.8374Z" fill="#E0F6C7"/>
<path d="M57.542 10.5202L54.5807 15.6471C50.2707 13.3113 45.4416 12.0221 40.5146 11.886V5.97192C46.484 6.10804 52.3342 7.66954 57.542 10.5202Z" fill="#FFF4BC"/>
<path d="M38.8128 5.97192V11.886C33.8816 12.0222 29.0525 13.3113 24.7425 15.6429L21.7812 10.5159C26.9847 7.66954 32.8392 6.10804 38.8128 5.97192Z" fill="#FFE8BC"/>
<path d="M23.2706 16.4939C19.0798 19.0722 15.5441 22.6079 12.9657 26.7988L7.83887 23.8375C10.9405 18.7531 15.225 14.4686 20.3093 11.3669L23.2706 16.4939Z" fill="#FFD3BC"/>
<path d="M12.1143 28.2709C9.78276 32.5809 8.48934 37.41 8.35743 42.3412H2.44336C2.57526 36.3676 4.14098 30.5131 6.98747 25.3096L12.1143 28.2709Z" fill="#FFC4C4"/>
<path d="M77.1515 42.0696H71.2374C71.1012 37.1384 69.8121 32.3093 67.4805 27.9993L72.6074 25.0422C75.4539 30.2458 77.0154 36.096 77.1515 42.0696Z" fill="#ADE4C6"/>
<path d="M71.7557 23.5659L66.6288 26.5272C64.0505 22.3406 60.5148 18.8049 56.3281 16.2265L59.2852 11.0996C64.3696 14.197 68.6583 18.4815 71.7557 23.5659Z" fill="#DDF5C0"/>
<path d="M57.8135 10.2487L54.8522 15.3756C50.5422 13.0398 45.7131 11.7506 40.7861 11.6145V5.70044C46.7555 5.83661 52.6057 7.39806 57.8135 10.2487Z" fill="#FFF3B5"/>
<path d="M39.0843 5.70044V11.6145C34.1531 11.7507 29.324 13.0398 25.014 15.3714L22.0527 10.2445C27.2562 7.39806 33.1107 5.83661 39.0843 5.70044Z" fill="#FFE5B5"/>
<path d="M23.5421 16.2224C19.3512 18.8007 15.8156 22.3364 13.2372 26.5273L8.11035 23.566C11.2119 18.4817 15.4965 14.1971 20.5808 11.0955L23.5421 16.2224Z" fill="#FFCEB5"/>
<path d="M12.3858 27.9994C10.0542 32.3094 8.76082 37.1385 8.62892 42.0697H2.71484C2.84675 36.0961 4.41246 30.2416 7.25896 25.0381L12.3858 27.9994Z" fill="#FFBDBD"/>
<path d="M77.423 41.7981H71.5089C71.3727 36.8669 70.0836 32.0378 67.752 27.7278L72.8789 24.7708C75.7254 29.9743 77.2869 35.8245 77.423 41.7981Z" fill="#A5E1C0"/>
<path d="M72.0272 23.2944L66.9003 26.2557C64.3219 22.069 60.7863 18.5334 56.5996 15.955L59.5566 10.8281C64.641 13.9255 68.9298 18.2101 72.0272 23.2944Z" fill="#D9F4BA"/>
<path d="M58.0849 9.97723L55.1237 15.1041C50.8137 12.7683 45.9846 11.4791 41.0576 11.343V5.42896C47.027 5.56512 52.8772 7.12657 58.0849 9.97723Z" fill="#FFF2AD"/>
<path d="M39.3558 5.42896V11.343C34.4246 11.4792 29.5955 12.7684 25.2855 15.0999L22.3242 9.97297C27.5277 7.12657 33.3822 5.56512 39.3558 5.42896Z" fill="#FFE3AD"/>
<path d="M23.8136 15.9509C19.6227 18.5293 16.0871 22.0649 13.5087 26.2558L8.38184 23.2945C11.4834 18.2102 15.7679 13.9257 20.8523 10.824L23.8136 15.9509Z" fill="#FFC9AD"/>
<path d="M12.6573 27.7279C10.3257 32.0379 9.03231 36.867 8.9004 41.7982H2.98633C3.11823 35.8246 4.68395 29.9701 7.53044 24.7666L12.6573 27.7279Z" fill="#FFB7B7"/>
<path d="M77.6945 41.5266H71.7804C71.6442 36.5954 70.3551 31.7664 68.0234 27.4563L73.1504 24.4993C75.9968 29.7028 77.5583 35.553 77.6945 41.5266Z" fill="#9CDEBA"/>
<path d="M72.2987 23.0229L67.1718 25.9842C64.5934 21.7976 61.0578 18.2619 56.8711 15.6835L59.8281 10.5566C64.9125 13.6541 69.2012 17.9386 72.2987 23.0229Z" fill="#D6F3B4"/>
<path d="M58.3564 9.70575L55.3952 14.8327C51.0851 12.4968 46.2561 11.2077 41.3291 11.0715V5.15747C47.2984 5.29364 53.1487 6.85509 58.3564 9.70575Z" fill="#FFF0A6"/>
<path d="M39.6272 5.15747V11.0715C34.6961 11.2077 29.867 12.4969 25.557 14.8284L22.5957 9.70149C27.7992 6.85509 33.6537 5.29364 39.6272 5.15747Z" fill="#FFE0A6"/>
<path d="M24.0851 15.6794C19.8942 18.2578 16.3586 21.7934 13.7802 25.9843L8.65332 23.023C11.7549 17.9387 16.0395 13.6542 21.1238 10.5525L24.0851 15.6794Z" fill="#FFC4A6"/>
<path d="M12.9287 27.4564C10.5972 31.7665 9.30374 36.5955 9.17184 41.5268H3.25781C3.38972 35.5531 4.95543 29.6987 7.80193 24.4951L12.9287 27.4564Z" fill="#FFB0B0"/>
<path d="M77.965 41.2552H72.0509C71.9147 36.324 70.6256 31.4949 68.2939 27.1848L73.4209 24.2278C76.2673 29.4313 77.8288 35.2816 77.965 41.2552Z" fill="#94DBB5"/>
<path d="M72.5692 22.7514L67.4423 25.7127C64.8639 21.5261 61.3283 17.9904 57.1416 15.4121L60.0986 10.2852C65.183 13.3826 69.4717 17.6671 72.5692 22.7514Z" fill="#D3F2AE"/>
<path d="M58.6269 9.43427L55.6657 14.5612C51.3556 12.2253 46.5266 10.9362 41.5996 10.8V4.88599C47.569 5.02215 53.4191 6.58365 58.6269 9.43427Z" fill="#FFEF9F"/>
<path d="M39.8978 4.88599V10.8001C34.9666 10.9362 30.1375 12.2254 25.8275 14.557L22.8662 9.43C28.0697 6.58365 33.9242 5.02215 39.8978 4.88599Z" fill="#FFDD9F"/>
<path d="M24.3556 15.408C20.1647 17.9863 16.6291 21.522 14.0507 25.7128L8.92383 22.7515C12.0254 17.6672 16.3099 13.3827 21.3943 10.281L24.3556 15.408Z" fill="#FFBF9F"/>
<path d="M13.1992 27.1849C10.8677 31.495 9.57425 36.324 9.44235 41.2553H3.52832C3.66023 35.2816 5.22594 29.4272 8.07243 24.2236L13.1992 27.1849Z" fill="#FFA9A9"/>
<path d="M78.2365 40.9839H72.3224C72.1862 36.0527 70.897 31.2236 68.5654 26.9136L73.6924 23.9565C76.5388 29.16 78.1003 35.0103 78.2365 40.9839Z" fill="#8CD9AF"/>
<path d="M72.8407 22.4799L67.7137 25.4412C65.1354 21.2546 61.5998 17.719 57.4131 15.1406L60.3701 10.0137C65.4545 13.111 69.7432 17.3956 72.8407 22.4799Z" fill="#CFF1A7"/>
<path d="M58.8984 9.16283L55.9372 14.2897C51.6271 11.9539 46.7981 10.6647 41.8711 10.5286V4.6145C47.8405 4.75067 53.6907 6.31217 58.8984 9.16283Z" fill="#FFEE97"/>
<path d="M40.1692 4.6145V10.5286C35.2381 10.6647 30.4089 11.9539 26.0989 14.2855L23.1377 9.15851C28.3412 6.31217 34.1957 4.75067 40.1692 4.6145Z" fill="#FFDB97"/>
<path d="M24.6271 15.1365C20.4362 17.7148 16.9005 21.2505 14.3222 25.4413L9.19531 22.48C12.2969 17.3957 16.5815 13.1112 21.6658 10.0095L24.6271 15.1365Z" fill="#FFBA97"/>
<path d="M13.4707 26.9134C11.1392 31.2235 9.84574 36.0525 9.71383 40.9838H3.7998C3.93171 35.0101 5.49742 29.1557 8.34392 23.9521L13.4707 26.9134Z" fill="#FFA3A3"/>
<path d="M78.5079 40.7127H72.5939C72.4577 35.7814 71.1685 30.9524 68.8369 26.6423L73.9639 23.6853C76.8103 28.8888 78.3718 34.739 78.5079 40.7127Z" fill="#84D6A9"/>
<path d="M73.1122 22.2089L67.9852 25.1702C65.4069 20.9836 61.8713 17.448 57.6846 14.8696L60.6416 9.74268C65.726 12.8401 70.0148 17.1246 73.1122 22.2089Z" fill="#CCF0A1"/>
<path d="M59.1699 8.89159L56.2087 14.0185C51.8986 11.6827 47.0696 10.3935 42.1426 10.2573V4.34326C48.1119 4.47943 53.9622 6.04093 59.1699 8.89159Z" fill="#FFED90"/>
<path d="M40.4407 4.34326V10.2573C35.5096 10.3935 30.6804 11.6827 26.3704 14.0142L23.4092 8.88728C28.6127 6.04093 34.4672 4.47943 40.4407 4.34326Z" fill="#FFD890"/>
<path d="M24.8986 14.8652C20.7077 17.4436 17.172 20.9792 14.5937 25.1701L9.4668 22.2088C12.5684 17.1244 16.8529 12.84 21.9373 9.73828L24.8986 14.8652Z" fill="#FFB590"/>
<path d="M13.7423 26.6422C11.4107 30.9523 10.1173 35.7813 9.98536 40.7125H4.07129C4.20319 34.7389 5.76891 28.8844 8.6154 23.6809L13.7423 26.6422Z" fill="#FF9C9C"/>
<path d="M78.7794 40.441H72.8653C72.7292 35.5097 71.44 30.6807 69.1084 26.3706L74.2353 23.4136C77.0818 28.6171 78.6433 34.4673 78.7794 40.441Z" fill="#7BD3A4"/>
<path d="M73.3837 21.9372L68.2567 24.8985C65.6784 20.7119 62.1427 17.1762 57.9561 14.5979L60.9131 9.47095C65.9975 12.5684 70.2862 16.8528 73.3837 21.9372Z" fill="#C8EE9B"/>
<path d="M59.4414 8.62005L56.4801 13.747C52.1701 11.4111 47.3411 10.122 42.4141 9.9858V4.07178C48.3834 4.2079 54.2336 5.76939 59.4414 8.62005Z" fill="#FFEB88"/>
<path d="M40.7122 4.07178V9.98585C35.7811 10.122 30.9519 11.4112 26.6419 13.7427L23.6807 8.61579C28.8841 5.76939 34.7386 4.2079 40.7122 4.07178Z" fill="#FFD688"/>
<path d="M25.1701 14.5938C20.9792 17.1721 17.4435 20.7077 14.8651 24.8986L9.73828 21.9373C12.8399 16.8529 17.1244 12.5685 22.2088 9.4668L25.1701 14.5938Z" fill="#FFB088"/>
<path d="M14.0137 26.3707C11.6822 30.6808 10.3888 35.5098 10.2568 40.4411H4.34277C4.47468 34.4674 6.04039 28.613 8.88689 23.4094L14.0137 26.3707Z" fill="#FF9696"/>
<path d="M79.0509 40.1695H73.1368C73.0007 35.2383 71.7115 30.4092 69.3799 26.0991L74.5068 23.1421C77.3533 28.3456 78.9148 34.1958 79.0509 40.1695Z" fill="#73D09E"/>
<path d="M73.6552 21.6657L68.5282 24.627C65.9499 20.4404 62.4142 16.9047 58.2275 14.3264L61.1846 9.19946C66.269 12.2969 70.5577 16.5814 73.6552 21.6657Z" fill="#C5ED95"/>
<path d="M59.7129 8.34857L56.7516 13.4755C52.4416 11.1396 47.6125 9.85049 42.6855 9.71432V3.80029C48.6549 3.93646 54.5051 5.49791 59.7129 8.34857Z" fill="#FFEA81"/>
<path d="M40.9837 3.80029V9.71437C36.0525 9.85054 31.2234 11.1397 26.9134 13.4713L23.9521 8.34431C29.1556 5.49791 35.0101 3.93646 40.9837 3.80029Z" fill="#FFD381"/>
<path d="M25.4415 14.3223C21.2507 16.9006 17.715 20.4363 15.1366 24.6271L10.0098 21.6658C13.1113 16.5815 17.3959 12.297 22.4802 9.19531L25.4415 14.3223Z" fill="#FFAB81"/>
<path d="M14.2852 26.0992C11.9537 30.4093 10.6602 35.2383 10.5283 40.1696H4.61426C4.74616 34.1959 6.31188 28.3415 9.15837 23.1379L14.2852 26.0992Z" fill="#FF8F8F"/>
<path d="M79.3224 39.898H73.4083C73.2721 34.9668 71.983 30.1377 69.6514 25.8276L74.7783 22.8706C77.6248 28.0741 79.1863 33.9243 79.3224 39.898Z" fill="#6BCE98"/>
<path d="M73.9266 21.3942L68.7997 24.3555C66.2214 20.1689 62.6857 16.6333 58.499 14.0549L61.4561 8.92798C66.5404 12.0254 70.8292 16.3099 73.9266 21.3942Z" fill="#C1EC8E"/>
<path d="M59.9844 8.07709L57.0231 13.204C52.7131 10.8682 47.884 9.579 42.957 9.44284V3.52881C48.9264 3.66498 54.7766 5.22643 59.9844 8.07709Z" fill="#FFE979"/>
<path d="M41.2552 3.52881V9.44288C36.3241 9.579 31.495 10.8682 27.1849 13.1998L24.2236 8.07282C29.4272 5.22643 35.2817 3.66498 41.2552 3.52881Z" fill="#FFD179"/>
<path d="M25.713 14.0508C21.5221 16.6291 17.9865 20.1648 15.4081 24.3557L10.2812 21.3944C13.3828 16.31 17.6674 12.0255 22.7517 8.92383L25.713 14.0508Z" fill="#FFA679"/>
<path d="M14.5567 25.8278C12.2251 30.1378 10.9317 34.9668 10.7998 39.8981H4.88574C5.01765 33.9244 6.58336 28.07 9.42986 22.8665L14.5567 25.8278Z" fill="#FF8989"/>
<path d="M79.5939 39.6265H73.6798C73.5436 34.6953 72.2545 29.8662 69.9229 25.5562L75.0498 22.5991C77.8962 27.8027 79.4577 33.6528 79.5939 39.6265Z" fill="#63CB93"/>
<path d="M74.1981 21.1228L69.0712 24.0841C66.4928 19.8974 62.9572 16.3618 58.7705 13.7834L61.7275 8.65649C66.8119 11.7539 71.1006 16.0384 74.1981 21.1228Z" fill="#BEEB88"/>
<path d="M60.2558 7.8056L57.2946 12.9325C52.9845 10.5967 48.1555 9.30752 43.2285 9.17135V3.25732C49.1979 3.39349 55.0481 4.95494 60.2558 7.8056Z" fill="#FFE872"/>
<path d="M41.5267 3.25732V9.1714C36.5956 9.30757 31.7664 10.5967 27.4564 12.9283L24.4951 7.80134C29.6986 4.95494 35.5531 3.39349 41.5267 3.25732Z" fill="#FFCE72"/>
<path d="M25.9845 13.7793C21.7936 16.3576 18.258 19.8933 15.6796 24.0842L10.5527 21.1229C13.6543 16.0385 17.9388 11.754 23.0232 8.65234L25.9845 13.7793Z" fill="#FFA172"/>
<path d="M14.8282 25.5563C12.4966 29.8663 11.2032 34.6954 11.0713 39.6266H5.15723C5.28913 33.653 6.85484 27.7985 9.70134 22.595L14.8282 25.5563Z" fill="#FF8282"/>
<path d="M79.8654 39.355H73.9513C73.8151 34.4238 72.526 29.5947 70.1943 25.2847L75.3213 22.3276C78.1677 27.5312 79.7292 33.3814 79.8654 39.355Z" fill="#5AC88D"/>
<path d="M74.4696 20.8513L69.3427 23.8126C66.7643 19.626 63.2287 16.0903 59.042 13.5119L61.999 8.38501C67.0834 11.4824 71.3721 15.7669 74.4696 20.8513Z" fill="#BBEA82"/>
<path d="M60.5273 7.53417L57.5661 12.6611C53.256 10.3252 48.427 9.03608 43.5 8.89992V2.98584C49.4693 3.12201 55.3196 4.68351 60.5273 7.53417Z" fill="#FFE66B"/>
<path d="M41.7981 2.98584V8.89992C36.867 9.03603 32.0379 10.3252 27.7279 12.6568L24.7666 7.5299C29.9701 4.68351 35.8246 3.12201 41.7981 2.98584Z" fill="#FFCB6B"/>
<path d="M26.256 13.5079C22.0651 16.0862 18.5295 19.6219 15.9511 23.8127L10.8242 20.8514C13.9258 15.7671 18.2103 11.4826 23.2947 8.38086L26.256 13.5079Z" fill="#FF9C6B"/>
<path d="M15.0996 25.2848C12.7681 29.5948 11.4746 34.4239 11.3427 39.3551H5.42871C5.56062 33.3815 7.12633 27.527 9.97283 22.3235L15.0996 25.2848Z" fill="#FF7B7B"/>
<path d="M80.1368 39.084H74.2228C74.0866 34.1528 72.7974 29.3237 70.4658 25.0137L75.5928 22.0566C78.4392 27.2601 80.0007 33.1104 80.1368 39.084Z" fill="#52C587"/>
<path d="M74.7411 20.5803L69.6141 23.5416C67.0358 19.355 63.5001 15.8193 59.3135 13.2409L62.2705 8.11401C67.3549 11.2114 71.6437 15.4959 74.7411 20.5803Z" fill="#B7E97C"/>
<path d="M60.7989 7.26293L57.8376 12.3898C53.5275 10.054 48.6985 8.76484 43.7715 8.62867V2.7146C49.7409 2.85077 55.5911 4.41227 60.7989 7.26293Z" fill="#FFE563"/>
<path d="M42.0697 2.7146V8.62867C37.1386 8.76479 32.3094 10.054 27.9994 12.3856L25.0381 7.25867C30.2416 4.41227 36.0961 2.85077 42.0697 2.7146Z" fill="#FFC963"/>
<path d="M26.5275 13.2366C22.3366 15.8149 18.8009 19.3506 16.2226 23.5414L11.0957 20.5801C14.1973 15.4958 18.4818 11.2113 23.5662 8.10962L26.5275 13.2366Z" fill="#FF9763"/>
<path d="M15.3711 25.0135C13.0396 29.3236 11.7461 34.1526 11.6142 39.0839H5.7002C5.8321 33.1102 7.39781 27.2557 10.2443 22.0522L15.3711 25.0135Z" fill="#FF7575"/>
<path d="M80.4083 38.8125H74.4942C74.3581 33.8813 73.0689 29.0522 70.7373 24.7422L75.8643 21.7852C78.7107 26.9886 80.2722 32.8389 80.4083 38.8125Z" fill="#4AC381"/>
<path d="M75.0126 20.3085L69.8856 23.2699C67.3073 19.0832 63.7716 15.5476 59.585 12.9692L62.542 7.84229C67.6264 10.9397 71.9152 15.2242 75.0126 20.3085Z" fill="#B4E875"/>
<path d="M61.0703 6.99144L58.1091 12.1184C53.799 9.78252 48.97 8.49336 44.043 8.35719V2.44312C50.0123 2.57928 55.8625 4.14078 61.0703 6.99144Z" fill="#FFE45C"/>
<path d="M42.3412 2.44312V8.35719C37.41 8.49331 32.5809 9.78252 28.2709 12.1141L25.3096 6.98718C30.5131 4.14078 36.3676 2.57928 42.3412 2.44312Z" fill="#FFC65C"/>
<path d="M26.799 12.9651C22.6081 15.5434 19.0724 19.0791 16.494 23.27L11.3672 20.3087C14.4688 15.2243 18.7533 10.9398 23.8377 7.83813L26.799 12.9651Z" fill="#FF925C"/>
<path d="M15.6427 24.7421C13.3111 29.0521 12.0177 33.8812 11.8858 38.8124H5.97168C6.10358 32.8387 7.6693 26.9843 10.5158 21.7808L15.6427 24.7421Z" fill="#FF6E6E"/>
<path d="M80.6798 38.5411H74.7657C74.6296 33.6098 73.3404 28.7808 71.0088 24.4707L76.1357 21.5137C78.9821 26.7172 80.5436 32.5674 80.6798 38.5411Z" fill="#42C07C"/>
<path d="M75.2841 20.0371L70.1571 22.9984C67.5788 18.8117 64.0432 15.2761 59.8564 12.6977L62.8135 7.5708C67.8979 10.6682 72.1866 14.9527 75.2841 20.0371Z" fill="#B0E76F"/>
<path d="M61.3418 6.71996L58.3805 11.8469C54.0705 9.51103 49.2414 8.22187 44.3145 8.0857V2.17163C50.2838 2.3078 56.134 3.8693 61.3418 6.71996Z" fill="#FFE354"/>
<path d="M42.6126 2.17163V8.0857C37.6815 8.22182 32.8524 9.51104 28.5423 11.8426L25.5811 6.71569C30.7846 3.8693 36.6391 2.3078 42.6126 2.17163Z" fill="#FFC454"/>
<path d="M27.0705 12.6936C22.8796 15.2719 19.344 18.8075 16.7656 22.9985L11.6387 20.0372C14.7403 14.9528 19.0248 10.6683 24.1092 7.56665L27.0705 12.6936Z" fill="#FF8D54"/>
<path d="M15.9141 24.4706C13.5826 28.7806 12.2891 33.6097 12.1572 38.5409H6.24316C6.37507 32.5673 7.94078 26.7128 10.7873 21.5093L15.9141 24.4706Z" fill="#FF6868"/>
<path d="M80.9513 38.2693H75.0372C74.901 33.3381 73.6119 28.509 71.2803 24.199L76.4072 21.2419C79.2537 26.4454 80.8152 32.2957 80.9513 38.2693Z" fill="#3ABD76"/>
<path d="M75.5555 19.7656L70.4286 22.7269C67.8503 18.5403 64.3146 15.0046 60.1279 12.4262L63.085 7.29932C68.1694 10.3967 72.4581 14.6812 75.5555 19.7656Z" fill="#ADE669"/>
<path d="M61.6133 6.44843L58.652 11.5753C54.342 9.2395 49.5129 7.95034 44.5859 7.81417V1.90015C50.5553 2.03631 56.4055 3.59776 61.6133 6.44843Z" fill="#FFE24D"/>
<path d="M42.8841 1.90015V7.81422C37.9529 7.95034 33.1238 9.23955 28.8138 11.5711L25.8525 6.44416C31.056 3.59776 36.9105 2.03631 42.8841 1.90015Z" fill="#FFC14D"/>
<path d="M27.3419 12.4221C23.1511 15.0004 19.6154 18.5361 17.037 22.727L11.9102 19.7657C15.0118 14.6814 19.2963 10.3969 24.3807 7.29517L27.3419 12.4221Z" fill="#FF894D"/>
<path d="M16.1856 24.1991C13.8541 28.5091 12.5606 33.3382 12.4287 38.2694H6.51465C6.64655 32.2958 8.21227 26.4413 11.0588 21.2378L16.1856 24.1991Z" fill="#FF6161"/>
<path d="M81.2228 37.9978H75.3087C75.1725 33.0666 73.8834 28.2375 71.5518 23.9275L76.6787 20.9705C79.5252 26.174 81.0867 32.0242 81.2228 37.9978Z" fill="#31BA70"/>
<path d="M75.827 19.4941L70.7001 22.4554C68.1217 18.2687 64.5861 14.7331 60.3994 12.1547L63.3565 7.02783C68.4409 10.1253 72.7296 14.4098 75.827 19.4941Z" fill="#AAE563"/>
<path d="M61.8848 6.17694L58.9235 11.3038C54.6135 8.96802 49.7844 7.67886 44.8574 7.54269V1.62866C50.8268 1.76483 56.677 3.32628 61.8848 6.17694Z" fill="#FFE046"/>
<path d="M43.1556 1.62866V7.54274C38.2245 7.67886 33.3953 8.96807 29.0853 11.2996L26.124 6.17268C31.3275 3.32628 37.182 1.76483 43.1556 1.62866Z" fill="#FFBE46"/>
<path d="M27.6134 12.1506C23.4225 14.729 19.8869 18.2646 17.3085 22.4556L12.1816 19.4943C15.2832 14.4099 19.5678 10.1254 24.6521 7.02368L27.6134 12.1506Z" fill="#FF8446"/>
<path d="M16.4571 23.9276C14.1255 28.2377 12.8321 33.0667 12.7002 37.998H6.78613C6.91804 32.0243 8.48375 26.1698 11.3302 20.9663L16.4571 23.9276Z" fill="#FF5A5A"/>
<path d="M81.4942 37.7264H75.5801C75.444 32.7951 74.1549 27.9661 71.8232 23.656L76.9502 20.699C79.7966 25.9025 81.3581 31.7527 81.4942 37.7264Z" fill="#29B86B"/>
<path d="M76.0985 19.2226L70.9716 22.1839C68.3932 17.9973 64.8576 14.4616 60.6709 11.8833L63.6279 6.75635C68.7123 9.85377 73.001 14.1383 76.0985 19.2226Z" fill="#A6E45C"/>
<path d="M62.1562 5.90551L59.195 11.0324C54.8849 8.69658 50.0559 7.40742 45.1289 7.27125V1.35718C51.0983 1.49335 56.9485 3.05484 62.1562 5.90551Z" fill="#FFDF3E"/>
<path d="M43.427 1.35718V7.27125C38.4959 7.40737 33.6668 8.69653 29.3568 11.0281L26.3955 5.90124C31.599 3.05484 37.4535 1.49335 43.427 1.35718Z" fill="#FFBC3E"/>
<path d="M27.8849 11.8792C23.694 14.4575 20.1584 17.9932 17.58 22.1841L12.4531 19.2228C15.5547 14.1384 19.8392 9.85393 24.9236 6.7522L27.8849 11.8792Z" fill="#FF7F3E"/>
<path d="M16.7286 23.6561C14.397 27.9661 13.1036 32.7952 12.9717 37.7265H7.05762C7.18952 31.7528 8.75523 25.8983 11.6017 20.6948L16.7286 23.6561Z" fill="#FF5454"/>
<path d="M81.7657 37.4551H75.8516C75.7155 32.5239 74.4263 27.6948 72.0947 23.3848L77.2217 20.4277C80.068 25.6313 81.6296 31.4815 81.7657 37.4551Z" fill="#21B565"/>
<path d="M76.37 18.9514L71.243 21.9127C68.6647 17.7261 65.1291 14.1904 60.9424 11.612L63.8994 6.48511C68.9838 9.58248 73.2725 13.867 76.37 18.9514Z" fill="#A3E356"/>
<path d="M62.4277 5.63426L59.4665 10.7612C55.1564 8.42534 50.3274 7.13618 45.4004 7.00001V1.08594C51.3697 1.22211 57.22 2.7836 62.4277 5.63426Z" fill="#FFDE37"/>
<path d="M43.6985 1.08594V7.00001C38.7674 7.13613 33.9383 8.42529 29.6282 10.7569L26.667 5.63C31.8705 2.7836 37.725 1.22211 43.6985 1.08594Z" fill="#FFB937"/>
<path d="M28.1564 11.6079C23.9655 14.1862 20.4298 17.7219 17.8515 21.9128L12.7246 18.9515C15.8262 13.8672 20.1108 9.58269 25.1951 6.48096L28.1564 11.6079Z" fill="#FF7A37"/>
<path d="M17.0001 23.3849C14.6685 27.6949 13.3751 32.524 13.2432 37.4552H7.3291C7.46106 31.4816 9.02672 25.6271 11.8732 20.4236L17.0001 23.3849Z" fill="#FF4D4D"/>
<path d="M82.0372 37.1839H76.1231C75.9869 32.2526 74.6978 27.4235 72.3662 23.1135L77.4932 20.1565C80.3395 25.36 81.9011 31.2102 82.0372 37.1839Z" fill="#19B25F"/>
<path d="M76.6415 18.6799L71.5145 21.6412C68.9362 17.4546 65.4005 13.9189 61.2139 11.3405L64.1709 6.21362C69.2553 9.31104 73.5441 13.5955 76.6415 18.6799Z" fill="#9FE250"/>
<path d="M62.6992 5.36278L59.738 10.4897C55.4279 8.15386 50.5989 6.8647 45.6719 6.72853V0.814453C51.6412 0.950621 57.4915 2.51212 62.6992 5.36278Z" fill="#FFDD2F"/>
<path d="M43.9701 0.814453V6.72853C39.039 6.86465 34.2098 8.15381 29.8998 10.4854L26.9385 5.35847C32.142 2.51212 37.9965 0.950621 43.9701 0.814453Z" fill="#FFB72F"/>
<path d="M28.4279 11.3364C24.237 13.9148 20.7013 17.4504 18.123 21.6413L12.9961 18.68C16.0977 13.5957 20.3822 9.3112 25.4666 6.20947L28.4279 11.3364Z" fill="#FF752F"/>
<path d="M17.2715 23.1134C14.9399 27.4234 13.6465 32.2525 13.5146 37.1837H7.60059C7.73249 31.2101 9.2982 25.3556 12.1447 20.1521L17.2715 23.1134Z" fill="#FF4747"/>
<path d="M82.3087 36.9124H76.3946C76.2584 31.9811 74.9693 27.1521 72.6377 22.842L77.7646 19.885C80.611 25.0885 82.1725 30.9387 82.3087 36.9124Z" fill="#10AF59"/>
<path d="M76.913 18.4086L71.786 21.3699C69.2077 17.1833 65.6721 13.6477 61.4854 11.0693L64.4424 5.94238C69.5268 9.0398 73.8155 13.3243 76.913 18.4086Z" fill="#9CE14A"/>
<path d="M62.9707 5.0913L60.0094 10.2182C55.6994 7.88238 50.8704 6.59316 45.9434 6.45704V0.542969C51.9127 0.679137 57.7629 2.24064 62.9707 5.0913Z" fill="#FFDB28"/>
<path d="M44.2416 0.542969V6.45704C39.3104 6.59316 34.4813 7.88232 30.1713 10.2139L27.21 5.08698C32.4135 2.24064 38.268 0.679137 44.2416 0.542969Z" fill="#FFB428"/>
<path d="M28.6994 11.0649C24.5085 13.6433 20.9728 17.1789 18.3944 21.3698L13.2676 18.4086C16.3692 13.3242 20.6537 9.03972 25.7381 5.93799L28.6994 11.0649Z" fill="#FF7028"/>
<path d="M17.543 22.8419C15.2115 27.152 13.9181 31.981 13.7861 36.9123H7.87207C8.00402 30.9386 9.56969 25.0841 12.4162 19.8806L17.543 22.8419Z" fill="#FF4040"/>
<path d="M82.5802 36.6409H76.6661C76.5299 31.7097 75.2408 26.8806 72.9092 22.5706L78.0361 19.6135C80.8825 24.817 82.444 30.6672 82.5802 36.6409Z" fill="#08AD54"/>
<path d="M77.1844 18.1369L72.0575 21.0982C69.4792 16.9116 65.9435 13.3759 61.7568 10.7976L64.7139 5.67065C69.7983 8.76807 74.087 13.0525 77.1844 18.1369Z" fill="#98E043"/>
<path d="M63.2422 4.81981L60.2809 9.94672C55.9709 7.61089 51.1418 6.32173 46.2148 6.18556V0.271484C52.1842 0.407652 58.0344 1.96915 63.2422 4.81981Z" fill="#FFDA20"/>
<path d="M44.513 0.271484V6.18556C39.5819 6.32168 34.7528 7.61084 30.4427 9.94245L27.4814 4.8155C32.685 1.96915 38.5395 0.407652 44.513 0.271484Z" fill="#FFB220"/>
<path d="M28.9708 10.7935C24.78 13.3718 21.2443 16.9075 18.6659 21.0984L13.5391 18.1371C16.6407 13.0527 20.9252 8.76824 26.0095 5.6665L28.9708 10.7935Z" fill="#FF6B20"/>
<path d="M17.8145 22.5704C15.483 26.8804 14.1895 31.7095 14.0576 36.6408H8.14355C8.27551 30.6671 9.84117 24.8126 12.6877 19.6091L17.8145 22.5704Z" fill="#FF3A3A"/>
<path d="M82.8516 36.3694H76.9376C76.8014 31.4382 75.5123 26.6091 73.1807 22.2991L78.3076 19.342C81.154 24.5455 82.7155 30.3958 82.8516 36.3694Z" fill="#00AA4E"/>
<path d="M77.4559 17.8654L72.329 20.8267C69.7506 16.6401 66.215 13.1045 62.0283 10.5261L64.9854 5.39917C70.0698 8.49659 74.3585 12.7811 77.4559 17.8654Z" fill="#95DF3D"/>
<path d="M63.5137 4.54833L60.5524 9.67523C56.2424 7.33941 51.4133 6.05024 46.4863 5.91407V0C52.4557 0.136168 58.3059 1.69767 63.5137 4.54833Z" fill="#FFD919"/>
<path d="M44.7845 0V5.91407C39.8534 6.05019 35.0243 7.33935 30.7142 9.67097L27.7529 4.54402C32.9565 1.69767 38.811 0.136168 44.7845 0Z" fill="#FFAF19"/>
<path d="M29.2423 10.522C25.0514 13.1003 21.5158 16.636 18.9374 20.8269L13.8105 17.8656C16.9121 12.7812 21.1967 8.49675 26.281 5.39502L29.2423 10.522Z" fill="#FF6619"/>
<path d="M18.086 22.2989C15.7544 26.6089 14.461 31.438 14.3291 36.3693H8.41504C8.54699 30.3956 10.1127 24.5411 12.9592 19.3376L18.086 22.2989Z" fill="#FF3333"/>
</g>
<path d="M82.8516 36.3694H76.9376C76.8014 31.4382 75.5123 26.6091 73.1807 22.2991L78.3076 19.342C81.154 24.5455 82.7155 30.3958 82.8516 36.3694Z" fill="#00AA4E"/>
<path d="M77.4559 17.8654L72.329 20.8267C69.7506 16.6401 66.215 13.1045 62.0283 10.5261L64.9854 5.39917C70.0698 8.49659 74.3585 12.7811 77.4559 17.8654Z" fill="#95DF3D"/>
<path d="M63.5137 4.54833L60.5524 9.67523C56.2424 7.33941 51.4133 6.05024 46.4863 5.91407V0C52.4557 0.136168 58.3059 1.69767 63.5137 4.54833Z" fill="#FFD919"/>
<path d="M44.7845 0V5.91407C39.8534 6.05019 35.0243 7.33935 30.7142 9.67097L27.7529 4.54402C32.9565 1.69767 38.811 0.136168 44.7845 0Z" fill="#FFAF19"/>
<path d="M29.2423 10.522C25.0514 13.1003 21.5158 16.636 18.9374 20.8269L13.8105 17.8656C16.9121 12.7812 21.1967 8.49675 26.281 5.39502L29.2423 10.522Z" fill="#FF6619"/>
<path d="M18.086 22.2989C15.7544 26.6089 14.461 31.438 14.3291 36.3693H8.41504C8.54699 30.3956 10.1127 24.5411 12.9592 19.3376L18.086 22.2989Z" fill="#FF3333"/>
</svg>
