<svg width="120" height="120" viewBox="0 0 120 120" fill="none" xmlns="http://www.w3.org/2000/svg">
<circle cx="60" cy="60" r="60" fill="#F9F8FD"/>
<circle cx="60" cy="60" r="50" fill="#0072BC" fill-opacity="0.1"/>
<path d="M20 60C20 37.9086 37.9086 20 60 20C82.0914 20 100 37.9086 100 60C100 82.0914 82.0914 100 60 100C37.9086 100 20 82.0914 20 60Z" fill="#0072BC"/>
<mask id="mask0_3521_5728" style="mask-type:alpha" maskUnits="userSpaceOnUse" x="36" y="36" width="48" height="48">
<rect x="36" y="36" width="48" height="48" fill="#D9D9D9"/>
</mask>
<g mask="url(#mask0_3521_5728)">
<path d="M59.9992 63C58.6019 63 57.4192 62.516 56.4512 61.548C55.4832 60.58 54.9992 59.3973 54.9992 58V46C54.9992 44.6027 55.4832 43.42 56.4512 42.452C57.4192 41.484 58.6019 41 59.9992 41C61.3966 41 62.5792 41.484 63.5472 42.452C64.5152 43.42 64.9992 44.6027 64.9992 46V58C64.9992 59.3973 64.5152 60.58 63.5472 61.548C62.5792 62.516 61.3966 63 59.9992 63ZM58.4992 76V70.9075C55.5222 70.5638 52.9709 69.3408 50.8452 67.2385C48.7199 65.1358 47.4751 62.573 47.1107 59.55C47.0571 59.1243 47.1686 58.7597 47.4452 58.456C47.7222 58.152 48.0736 58 48.4992 58C48.9249 58 49.2812 58.1468 49.5682 58.4405C49.8556 58.7338 50.0467 59.0933 50.1417 59.519C50.5057 61.968 51.6256 63.9937 53.5012 65.596C55.3769 67.1987 57.5429 68 59.9992 68C62.4889 68 64.6632 67.1903 66.5222 65.571C68.3812 63.952 69.4927 61.9347 69.8567 59.519C69.9517 59.0933 70.1429 58.7338 70.4302 58.4405C70.7172 58.1468 71.0736 58 71.4992 58C71.9249 58 72.2762 58.152 72.5532 58.456C72.8299 58.7597 72.9414 59.1243 72.8877 59.55C72.5234 62.5063 71.2869 65.0493 69.1782 67.179C67.0692 69.3083 64.5096 70.5512 61.4992 70.9075V76C61.4992 76.4257 61.3556 76.782 61.0682 77.069C60.7812 77.3563 60.4249 77.5 59.9992 77.5C59.5736 77.5 59.2172 77.3563 58.9302 77.069C58.6429 76.782 58.4992 76.4257 58.4992 76Z" fill="#F9F8FD"/>
</g>
</svg>
